<svg width="14" height="14" viewBox="0 0 14 14" fill="none" xmlns="http://www.w3.org/2000/svg">
<g id="Add to cart_icon">
<path id="Icon" d="M4.2824 11.122C4.91503 11.122 5.45033 11.6573 5.45033 12.29C5.45033 12.9469 4.91503 13.4579 4.2824 13.4579C3.62544 13.4579 3.11447 12.9469 3.11447 12.29C3.11447 11.6573 3.62544 11.122 4.2824 11.122ZM13.8448 2.09493C13.9908 2.28959 14.0395 2.55724 13.9665 2.77622L12.6282 7.44793C12.5309 7.78858 12.2389 8.00756 11.8983 8.00756H4.13641L4.3554 9.17549H11.8739C12.1902 9.17549 12.4579 9.44314 12.4579 9.75945C12.4579 10.1001 12.1902 10.3434 11.8739 10.3434H3.89309C3.60111 10.3434 3.35779 10.1488 3.30913 9.88111L1.84922 2.16793H0.583964C0.243318 2.16793 0 1.92461 0 1.58396C0 1.26765 0.243318 1 0.583964 1H2.33585C2.6035 1 2.84682 1.21899 2.89549 1.48664L2.94415 1.77862H13.2122C13.4798 1.77862 13.6988 1.90028 13.8448 2.09493ZM10.122 4.91742C10.122 4.62544 9.87872 4.40645 9.61107 4.40645H8.66213V3.45751C8.66213 3.18986 8.44314 2.97088 8.17549 2.97088H8.15116C7.88351 2.97088 7.66452 3.18986 7.66452 3.45751V4.40645H6.71558C6.44793 4.40645 6.22895 4.62544 6.22895 4.91742C6.22895 5.18507 6.44793 5.40406 6.71558 5.40406H7.66452V6.353C7.66452 6.62065 7.88351 6.83964 8.15116 6.83964H8.17549C8.44314 6.83964 8.66213 6.62065 8.66213 6.353V5.40406H9.61107C9.87872 5.40406 10.122 5.18507 10.122 4.91742ZM11.29 11.122C11.9226 11.122 12.4579 11.6573 12.4579 12.29C12.4579 12.9469 11.9226 13.4579 11.29 13.4579C10.633 13.4579 10.122 12.9469 10.122 12.29C10.122 11.6573 10.633 11.122 11.29 11.122Z" fill="currentColor"/>
</g>
</svg>
