<svg width="14" height="14" viewBox="0 0 14 14" fill="none" xmlns="http://www.w3.org/2000/svg">
<g id="Add-to-Shopping list_icon">
<g id="Icon">
<path d="M12.4444 1.5C13.2951 1.5 14 2.21205 14 3.07143V7.35418C13.6724 6.98306 13.2771 6.67318 12.8333 6.44394V3.07143C12.8333 2.875 12.6389 2.67857 12.4444 2.67857H1.55556C1.33681 2.67857 1.16667 2.875 1.16667 3.07143V10.9286C1.16667 11.1496 1.33681 11.3214 1.55556 11.3214H7.22342C7.37435 11.7528 7.59709 12.1504 7.87731 12.5H1.55556C0.680556 12.5 0 11.8125 0 10.9286V3.07143C0 2.21205 0.680556 1.5 1.55556 1.5H12.4444Z" fill="currentColor"/>
<path d="M5.25 6.41071H9.23247C8.67026 6.6881 8.18264 7.09368 7.80778 7.58929H5.25C4.90972 7.58929 4.66667 7.34375 4.66667 7C4.66667 6.6808 4.90972 6.41071 5.25 6.41071Z" fill="currentColor"/>
<path d="M5.25 8.76786H7.19337C7.07305 9.13984 7.00574 9.53566 7.00035 9.94643H5.25C4.90972 9.94643 4.66667 9.70089 4.66667 9.35714C4.66667 9.03795 4.90972 8.76786 5.25 8.76786Z" fill="currentColor"/>
<path d="M3.11111 3.85714C3.52431 3.85714 3.88889 4.22545 3.88889 4.64286C3.88889 5.08482 3.52431 5.42857 3.11111 5.42857C2.67361 5.42857 2.33333 5.08482 2.33333 4.64286C2.33333 4.22545 2.67361 3.85714 3.11111 3.85714Z" fill="currentColor"/>
<path d="M3.11111 6.21429C3.52431 6.21429 3.88889 6.58259 3.88889 7C3.88889 7.44196 3.52431 7.78571 3.11111 7.78571C2.67361 7.78571 2.33333 7.44196 2.33333 7C2.33333 6.58259 2.67361 6.21429 3.11111 6.21429Z" fill="currentColor"/>
<path d="M3.11111 8.57143C3.52431 8.57143 3.88889 8.93973 3.88889 9.35714C3.88889 9.79911 3.52431 10.1429 3.11111 10.1429C2.67361 10.1429 2.33333 9.79911 2.33333 9.35714C2.33333 8.93973 2.67361 8.57143 3.11111 8.57143Z" fill="currentColor"/>
<path d="M11.0833 4.05357C11.3993 4.05357 11.6667 4.32366 11.6667 4.64286C11.6667 4.98661 11.3993 5.23214 11.0833 5.23214H5.25C4.90972 5.23214 4.66667 4.98661 4.66667 4.64286C4.66667 4.32366 4.90972 4.05357 5.25 4.05357H11.0833Z" fill="currentColor"/>
<path fill-rule="evenodd" clip-rule="evenodd" d="M14 10C14 8.35 12.65 7 11 7C9.3375 7 8 8.35 8 10C8 11.6625 9.3375 13 11 13C12.65 13 14 11.6625 14 10ZM12.5 10C12.5 10.175 12.3625 10.3 12.2 10.3H11.3V11.2C11.3 11.375 11.1625 11.5 11 11.5C10.825 11.5 10.7 11.375 10.7 11.2V10.3H9.8C9.625 10.3 9.5 10.175 9.5 10C9.5 9.8375 9.625 9.7 9.8 9.7H10.7V8.8C10.7 8.6375 10.825 8.5 11 8.5C11.1625 8.5 11.3 8.6375 11.3 8.8V9.7H12.2C12.3625 9.7 12.5 9.8375 12.5 10Z" fill="currentColor"/>
</g>
</g>
</svg>
