<svg width="14" height="14" viewBox="0 0 14 14" fill="none" xmlns="http://www.w3.org/2000/svg">
<g id="add user_icon">
<path id="Icon" d="M2.1 4.25C2.1 3.52065 2.395 2.82118 2.9201 2.30546C3.4452 1.78973 4.15739 1.5 4.9 1.5C5.64261 1.5 6.3548 1.78973 6.8799 2.30546C7.405 2.82118 7.7 3.52065 7.7 4.25C7.7 4.97935 7.405 5.67882 6.8799 6.19454C6.3548 6.71027 5.64261 7 4.9 7C4.15739 7 3.4452 6.71027 2.9201 6.19454C2.395 5.67882 2.1 4.97935 2.1 4.25ZM0 11.8619C0 9.7457 1.74563 8.03125 3.90031 8.03125H5.89969C8.05437 8.03125 9.8 9.7457 9.8 11.8619C9.8 12.2143 9.50906 12.5 9.15031 12.5H0.649688C0.290938 12.5 0 12.2143 0 11.8619ZM11.025 8.20312V6.82812H9.625C9.33406 6.82812 9.1 6.59824 9.1 6.3125C9.1 6.02676 9.33406 5.79688 9.625 5.79688H11.025V4.42188C11.025 4.13613 11.2591 3.90625 11.55 3.90625C11.8409 3.90625 12.075 4.13613 12.075 4.42188V5.79688H13.475C13.7659 5.79688 14 6.02676 14 6.3125C14 6.59824 13.7659 6.82812 13.475 6.82812H12.075V8.20312C12.075 8.48887 11.8409 8.71875 11.55 8.71875C11.2591 8.71875 11.025 8.48887 11.025 8.20312Z" fill="currentColor"/>
</g>
</svg>
