<svg width="14" height="14" viewBox="0 0 14 14" fill="none" xmlns="http://www.w3.org/2000/svg">
<g id="add-intend_icon">
<path id="Icon" d="M1.36607 9.66964C1.20536 9.58929 1.125 9.45536 1.125 9.26786V4.98214C1.125 4.82143 1.20536 4.6875 1.36607 4.60714C1.5 4.52679 1.6875 4.55357 1.82143 4.66071L4.39286 6.80357C4.47321 6.88393 4.55357 7.01786 4.55357 7.125C4.55357 7.25893 4.47321 7.39286 4.39286 7.47321L1.82143 9.61607C1.74107 9.66964 1.63393 9.69643 1.55357 9.69643C1.47321 9.69643 1.41964 9.69643 1.36607 9.66964ZM1.98214 2.83929C1.5 2.83929 1.125 2.46429 1.125 1.98214C1.125 1.52679 1.5 1.125 1.98214 1.125H12.2679C12.7232 1.125 13.125 1.52679 13.125 1.98214C13.125 2.46429 12.7232 2.83929 12.2679 2.83929H1.98214ZM12.2679 11.4107C12.7232 11.4107 13.125 11.8125 13.125 12.2679C13.125 12.75 12.7232 13.125 12.2679 13.125H1.98214C1.5 13.125 1.125 12.75 1.125 12.2679C1.125 11.8125 1.5 11.4107 1.98214 11.4107H12.2679ZM12.2679 7.98214C12.7232 7.98214 13.125 8.38393 13.125 8.83929C13.125 9.32143 12.7232 9.69643 12.2679 9.69643H7.125C6.64286 9.69643 6.26786 9.32143 6.26786 8.83929C6.26786 8.38393 6.64286 7.98214 7.125 7.98214H12.2679ZM12.2679 4.55357C12.7232 4.55357 13.125 4.95536 13.125 5.41071C13.125 5.89286 12.7232 6.26786 12.2679 6.26786H7.125C6.64286 6.26786 6.26786 5.89286 6.26786 5.41071C6.26786 4.95536 6.64286 4.55357 7.125 4.55357H12.2679Z" fill="currentColor"/>
</g>
</svg>
