<svg width="14" height="14" viewBox="0 0 14 14" fill="none" xmlns="http://www.w3.org/2000/svg">
<g id="Archive_icon">
<path id="Icon" d="M0.875 11.5625V4.125H13.125V11.5625C13.125 12.3008 12.5234 12.875 11.8125 12.875H2.1875C1.44922 12.875 0.875 12.3008 0.875 11.5625ZM4.375 6.20312V6.42188C4.375 6.61328 4.51172 6.75 4.70312 6.75H9.29688C9.46094 6.75 9.625 6.61328 9.625 6.42188V6.20312C9.625 6.03906 9.46094 5.875 9.29688 5.875H4.70312C4.51172 5.875 4.375 6.03906 4.375 6.20312ZM13.125 0.625C13.5898 0.625 14 1.03516 14 1.5V2.8125C14 3.05859 13.7812 3.25 13.5625 3.25H0.4375C0.191406 3.25 0 3.05859 0 2.8125V1.5C0 1.03516 0.382812 0.625 0.875 0.625H13.125Z" fill="currentColor"/>
</g>
</svg>
