<svg width="14" height="14" viewBox="0 0 14 14" fill="none" xmlns="http://www.w3.org/2000/svg">
<g id="Arrow-left_icon">
<path id="Icon" d="M13 6.99521C13 7.62826 12.5181 8.09617 11.9292 8.09617H4.56721L6.92303 10.6559C7.3246 11.0963 7.29782 11.7844 6.86949 12.1972C6.65533 12.4174 6.38762 12.5 6.14668 12.5C5.8522 12.5 5.55772 12.3899 5.37033 12.1697L1.30117 7.76588C0.89961 7.35302 0.89961 6.66493 1.30117 6.25207L5.37033 1.84824C5.77189 1.40786 6.44116 1.38033 6.86949 1.79319C7.29782 2.23357 7.3246 2.92167 6.92303 3.36205L4.56721 5.89426H11.9292C12.5181 5.89426 13 6.38969 13 6.99521Z" fill="currentColor"/>
</g>
</svg>
