<svg width="14" height="14" viewBox="0 0 14 14" fill="none" xmlns="http://www.w3.org/2000/svg">
<g id="Articles_icon">
<path id="Icon" d="M12.8333 1.5C13.4653 1.5 14 2.03472 14 2.66667V11.2222C14 11.8785 13.4653 12.3889 12.8333 12.3889H1.16667C0.510417 12.3889 0 11.8785 0 11.2222V2.66667C0 2.03472 0.510417 1.5 1.16667 1.5H12.8333ZM3.11111 9.66667V4.22222C3.11111 4.02778 2.91667 3.83333 2.72222 3.83333H1.94444C1.72569 3.83333 1.55556 4.02778 1.55556 4.22222V9.66667C1.55556 9.88542 1.72569 10.0556 1.94444 10.0556H2.72222C2.91667 10.0556 3.11111 9.88542 3.11111 9.66667ZM4.66667 9.66667V4.22222C4.66667 4.02778 4.47222 3.83333 4.27778 3.83333C4.05903 3.83333 3.88889 4.02778 3.88889 4.22222V9.66667C3.88889 9.88542 4.05903 10.0556 4.27778 10.0556C4.47222 10.0556 4.66667 9.88542 4.66667 9.66667ZM6.22222 9.66667V4.22222C6.22222 4.02778 6.02778 3.83333 5.83333 3.83333C5.61458 3.83333 5.44444 4.02778 5.44444 4.22222V9.66667C5.44444 9.88542 5.61458 10.0556 5.83333 10.0556C6.02778 10.0556 6.22222 9.88542 6.22222 9.66667ZM9.33333 9.66667V4.22222C9.33333 4.02778 9.13889 3.83333 8.94444 3.83333H8.16667C7.94792 3.83333 7.77778 4.02778 7.77778 4.22222V9.66667C7.77778 9.88542 7.94792 10.0556 8.16667 10.0556H8.94444C9.13889 10.0556 9.33333 9.88542 9.33333 9.66667ZM12.4444 9.66667V4.22222C12.4444 4.02778 12.25 3.83333 12.0556 3.83333H11.2778C11.059 3.83333 10.8889 4.02778 10.8889 4.22222V9.66667C10.8889 9.88542 11.059 10.0556 11.2778 10.0556H12.0556C12.25 10.0556 12.4444 9.88542 12.4444 9.66667Z" fill="currentColor"/>
</g>
</svg>
