<svg width="14" height="14" viewBox="0 0 14 14" fill="none" xmlns="http://www.w3.org/2000/svg">
<path d="M3.85 7.6C2.86562 7.6 2.1 6.83437 2.1 5.85C2.1 4.8875 2.86562 4.1 3.85 4.1C4.8125 4.1 5.6 4.8875 5.6 5.85C5.6 6.83437 4.8125 7.6 3.85 7.6ZM11.9 4.1C13.0594 4.1 14 5.04063 14 6.2V11.45C14 11.6469 13.825 11.8 13.65 11.8H12.95C12.7531 11.8 12.6 11.6469 12.6 11.45V10.4H1.4V11.45C1.4 11.6469 1.225 11.8 1.05 11.8H0.35C0.153125 11.8 0 11.6469 0 11.45V2.35C0 2.175 0.153125 2 0.35 2H1.05C1.225 2 1.4 2.175 1.4 2.35V8.3H6.3V4.45C6.3 4.275 6.45312 4.1 6.65 4.1H11.9Z" fill="currentColor"/>
</svg>
