<svg width="14" height="14" viewBox="0 0 14 14" fill="none" xmlns="http://www.w3.org/2000/svg">
<g id="Bold_icon">
<path id="Icon" d="M10.75 6.78571C11.5052 7.42857 12 8.39286 12 9.46429C12 11.4196 10.4375 13 8.5625 13H3.04167C2.44271 13 2 12.5446 2 11.9286C2 11.3393 2.44271 10.8571 3.04167 10.8571H3.25V3.14286H3.04167C2.44271 3.14286 2 2.6875 2 2.07143C2 1.48214 2.44271 1 3.04167 1H8.11979C10.0208 1 11.5573 2.60714 11.5573 4.53571C11.5573 5.39286 11.2448 6.16964 10.75 6.78571ZM5.33333 3.14286V5.92857H8.11979C8.84896 5.92857 9.47396 5.3125 9.47396 4.53571C9.47396 3.78571 8.84896 3.14286 8.11979 3.14286H5.33333ZM8.5625 10.8571C9.29167 10.8571 9.91667 10.2411 9.91667 9.46429C9.91667 8.71429 9.29167 8.07143 8.5625 8.07143H5.33333V10.8571H8.5625Z" fill="currentColor"/>
</g>
</svg>
