<svg width="14" height="14" viewBox="0 0 14 14" fill="none" xmlns="http://www.w3.org/2000/svg">
<g id="Booking_icon">
<path id="Icon" d="M3.57143 0.875V1.75H2.28571C1.57589 1.75 1 2.33789 1 3.0625V4.375H13V3.0625C13 2.33789 12.4241 1.75 11.7143 1.75H10.4286V0.875C10.4286 0.391016 10.0455 0 9.57143 0C9.09732 0 8.71429 0.391016 8.71429 0.875V1.75H5.28571V0.875C5.28571 0.391016 4.90268 0 4.42857 0C3.95446 0 3.57143 0.391016 3.57143 0.875ZM13 5.25H1V12.6875C1 13.4121 1.57589 14 2.28571 14H11.7143C12.4241 14 13 13.4121 13 12.6875V5.25ZM7 6.78125C7.35625 6.78125 7.64286 7.07383 7.64286 7.4375V8.96875H9.14286C9.49911 8.96875 9.78571 9.26133 9.78571 9.625C9.78571 9.98867 9.49911 10.2812 9.14286 10.2812H7.64286V11.8125C7.64286 12.1762 7.35625 12.4688 7 12.4688C6.64375 12.4688 6.35714 12.1762 6.35714 11.8125V10.2812H4.85714C4.50089 10.2812 4.21429 9.98867 4.21429 9.625C4.21429 9.26133 4.50089 8.96875 4.85714 8.96875H6.35714V7.4375C6.35714 7.07383 6.64375 6.78125 7 6.78125Z" fill="currentColor"/>
</g>
</svg>
