<svg width="14" height="14" viewBox="0 0 14 14" fill="none" xmlns="http://www.w3.org/2000/svg">
<g id="Bundle_icon">
<path id="Icon" d="M5.44444 7.66016C5.85764 7.66016 6.22222 8.02474 6.22222 8.43793V12.3268C6.22222 12.7643 5.85764 13.1046 5.44444 13.1046H0.777778C0.340278 13.1046 0 12.7643 0 12.3268V8.43793C0 8.02474 0.340278 7.66016 0.777778 7.66016H2.33333V9.99349L3.11111 9.48307L3.88889 9.99349V7.66016H5.44444ZM4.66667 6.1046C4.22917 6.1046 3.88889 5.76432 3.88889 5.32682V1.43793C3.88889 1.02474 4.22917 0.660156 4.66667 0.660156H6.22222V2.99349L7 2.48307L7.77778 2.99349V0.660156H9.33333C9.74653 0.660156 10.1111 1.02474 10.1111 1.43793V5.32682C10.1111 5.76432 9.74653 6.1046 9.33333 6.1046H4.66667ZM13.2222 7.66016C13.6354 7.66016 14 8.02474 14 8.43793V12.3268C14 12.7643 13.6354 13.1046 13.2222 13.1046H8.55556C8.11806 13.1046 7.77778 12.7643 7.77778 12.3268V8.43793C7.77778 8.02474 8.11806 7.66016 8.55556 7.66016H10.1111V9.99349L10.8889 9.48307L11.6667 9.99349V7.66016H13.2222Z" fill="currentColor"/>
</g>
</svg>
