<svg xmlns="http://www.w3.org/2000/svg" width="14" height="14" viewBox="0 0 14 14" fill="none">
<path d="M12.375 6.125C12.8398 6.125 13.25 6.53516 13.25 7C13.25 7.49219 12.8398 7.875 12.375 7.875H1.875C1.38281 7.875 1 7.49219 1 7C1 6.53516 1.38281 6.125 1.875 6.125H12.375ZM12.375 10.5C12.8398 10.5 13.25 10.9102 13.25 11.375C13.25 11.8672 12.8398 12.25 12.375 12.25H1.875C1.38281 12.25 1 11.8672 1 11.375C1 10.9102 1.38281 10.5 1.875 10.5H12.375ZM12.375 1.75C12.8398 1.75 13.25 2.16016 13.25 2.625C13.25 3.11719 12.8398 3.5 12.375 3.5H1.875C1.38281 3.5 1 3.11719 1 2.625C1 2.16016 1.38281 1.75 1.875 1.75H12.375Z" fill="currentColor"/>
</svg>
