<svg width="14" height="14" viewBox="0 0 14 14" fill="none" xmlns="http://www.w3.org/2000/svg">
<g id="calc_icon">
<path id="Icon" d="M3.66667 0C2.7474 0 2 0.784766 2 1.75V12.25C2 13.2152 2.7474 14 3.66667 14H10.3333C11.2526 14 12 13.2152 12 12.25V1.75C12 0.784766 11.2526 0 10.3333 0H3.66667ZM4.5 1.75H9.5C9.96094 1.75 10.3333 2.14102 10.3333 2.625V3.5C10.3333 3.98398 9.96094 4.375 9.5 4.375H4.5C4.03906 4.375 3.66667 3.98398 3.66667 3.5V2.625C3.66667 2.14102 4.03906 1.75 4.5 1.75ZM5.33333 6.125C5.33333 6.35706 5.24554 6.57962 5.08926 6.74372C4.93298 6.90781 4.72101 7 4.5 7C4.27899 7 4.06702 6.90781 3.91074 6.74372C3.75446 6.57962 3.66667 6.35706 3.66667 6.125C3.66667 5.89294 3.75446 5.67038 3.91074 5.50628C4.06702 5.34219 4.27899 5.25 4.5 5.25C4.72101 5.25 4.93298 5.34219 5.08926 5.50628C5.24554 5.67038 5.33333 5.89294 5.33333 6.125ZM4.5 9.625C4.27899 9.625 4.06702 9.53281 3.91074 9.36872C3.75446 9.20462 3.66667 8.98206 3.66667 8.75C3.66667 8.51794 3.75446 8.29538 3.91074 8.13128C4.06702 7.96719 4.27899 7.875 4.5 7.875C4.72101 7.875 4.93298 7.96719 5.08926 8.13128C5.24554 8.29538 5.33333 8.51794 5.33333 8.75C5.33333 8.98206 5.24554 9.20462 5.08926 9.36872C4.93298 9.53281 4.72101 9.625 4.5 9.625ZM3.66667 11.375C3.66667 10.891 4.03906 10.5 4.5 10.5H7C7.46094 10.5 7.83333 10.891 7.83333 11.375C7.83333 11.859 7.46094 12.25 7 12.25H4.5C4.03906 12.25 3.66667 11.859 3.66667 11.375ZM7 7C6.77899 7 6.56702 6.90781 6.41074 6.74372C6.25446 6.57962 6.16667 6.35706 6.16667 6.125C6.16667 5.89294 6.25446 5.67038 6.41074 5.50628C6.56702 5.34219 6.77899 5.25 7 5.25C7.22101 5.25 7.43297 5.34219 7.58926 5.50628C7.74554 5.67038 7.83333 5.89294 7.83333 6.125C7.83333 6.35706 7.74554 6.57962 7.58926 6.74372C7.43297 6.90781 7.22101 7 7 7ZM7.83333 8.75C7.83333 8.98206 7.74554 9.20462 7.58926 9.36872C7.43297 9.53281 7.22101 9.625 7 9.625C6.77899 9.625 6.56702 9.53281 6.41074 9.36872C6.25446 9.20462 6.16667 8.98206 6.16667 8.75C6.16667 8.51794 6.25446 8.29538 6.41074 8.13128C6.56702 7.96719 6.77899 7.875 7 7.875C7.22101 7.875 7.43297 7.96719 7.58926 8.13128C7.74554 8.29538 7.83333 8.51794 7.83333 8.75ZM9.5 7C9.27899 7 9.06702 6.90781 8.91074 6.74372C8.75446 6.57962 8.66667 6.35706 8.66667 6.125C8.66667 5.89294 8.75446 5.67038 8.91074 5.50628C9.06702 5.34219 9.27899 5.25 9.5 5.25C9.72101 5.25 9.93297 5.34219 10.0893 5.50628C10.2455 5.67038 10.3333 5.89294 10.3333 6.125C10.3333 6.35706 10.2455 6.57962 10.0893 6.74372C9.93297 6.90781 9.72101 7 9.5 7ZM10.3333 8.75C10.3333 8.98206 10.2455 9.20462 10.0893 9.36872C9.93297 9.53281 9.72101 9.625 9.5 9.625C9.27899 9.625 9.06702 9.53281 8.91074 9.36872C8.75446 9.20462 8.66667 8.98206 8.66667 8.75C8.66667 8.51794 8.75446 8.29538 8.91074 8.13128C9.06702 7.96719 9.27899 7.875 9.5 7.875C9.72101 7.875 9.93297 7.96719 10.0893 8.13128C10.2455 8.29538 10.3333 8.51794 10.3333 8.75ZM9.5 12.25C9.27899 12.25 9.06702 12.1578 8.91074 11.9937C8.75446 11.8296 8.66667 11.6071 8.66667 11.375C8.66667 11.1429 8.75446 10.9204 8.91074 10.7563C9.06702 10.5922 9.27899 10.5 9.5 10.5C9.72101 10.5 9.93297 10.5922 10.0893 10.7563C10.2455 10.9204 10.3333 11.1429 10.3333 11.375C10.3333 11.6071 10.2455 11.8296 10.0893 11.9937C9.93297 12.1578 9.72101 12.25 9.5 12.25Z" fill="currentColor"/>
</g>
</svg>
