<svg width="14" height="14" viewBox="0 0 14 14" fill="none" xmlns="http://www.w3.org/2000/svg">
<path d="M2.1 1.3999C2.37708 1.41449 2.55208 1.56032 2.625 1.8374L2.64688 2.0999H11.8562C12.0896 2.11449 12.2719 2.20928 12.4031 2.38428C12.5344 2.55928 12.5781 2.76344 12.5344 2.99678L11.7688 5.70928C11.4771 5.63636 11.1708 5.5999 10.85 5.5999C10.0917 5.61449 9.41354 5.81136 8.81563 6.19053C8.21771 6.56969 7.75104 7.07282 7.41563 7.6999H3.74063L3.9375 8.7499H7.06563C7.00729 8.98324 6.97813 9.21657 6.97813 9.4499C6.97813 9.52282 6.98542 9.59574 7 9.66865C7 9.7124 7.00729 9.75615 7.02187 9.7999H3.47813C3.21563 9.78532 3.04792 9.64678 2.975 9.38428L1.6625 2.4499H0.525C0.204167 2.42074 0.0291667 2.24574 0 1.9249C0.0291667 1.60407 0.204167 1.42907 0.525 1.3999H2.1ZM2.8 11.5499C2.81458 11.2582 2.91667 11.0103 3.10625 10.8062C3.31042 10.6166 3.55833 10.5145 3.85 10.4999C4.14167 10.5145 4.38958 10.6166 4.59375 10.8062C4.78333 11.0103 4.88542 11.2582 4.9 11.5499C4.88542 11.8416 4.78333 12.0895 4.59375 12.2937C4.38958 12.4832 4.14167 12.5853 3.85 12.5999C3.55833 12.5853 3.31042 12.4832 3.10625 12.2937C2.91667 12.0895 2.81458 11.8416 2.8 11.5499ZM14 9.4499C13.9708 10.3395 13.6646 11.0832 13.0813 11.6812C12.4833 12.2645 11.7396 12.5707 10.85 12.5999C9.96042 12.5707 9.21667 12.2645 8.61875 11.6812C8.03542 11.0832 7.72917 10.3395 7.7 9.4499C7.72917 8.56032 8.03542 7.81657 8.61875 7.21865C9.21667 6.63532 9.96042 6.32907 10.85 6.2999C11.7396 6.32907 12.4833 6.63532 13.0813 7.21865C13.6646 7.81657 13.9708 8.56032 14 9.4499ZM10.5 9.82178L9.86563 9.20928C9.70521 9.06344 9.54479 9.06344 9.38438 9.20928C9.23854 9.36969 9.23854 9.53011 9.38438 9.69053L10.2594 10.5655C10.4198 10.7114 10.5802 10.7114 10.7406 10.5655L12.3156 8.99053C12.4615 8.83011 12.4615 8.66969 12.3156 8.50928C12.1552 8.36344 11.9948 8.36344 11.8344 8.50928L10.5 9.82178Z" fill="currentColor"/>
</svg>
