<svg width="14" height="14" viewBox="0 0 14 14" fill="none" xmlns="http://www.w3.org/2000/svg">
<path d="M11.2905 11.122C11.9231 11.122 12.4584 11.6573 12.4584 12.29C12.4584 12.9469 11.9231 13.4579 11.2905 13.4579C10.6335 13.4579 10.1225 12.9469 10.1225 12.29C10.1225 11.6573 10.6335 11.122 11.2905 11.122ZM4.28289 11.122C4.91552 11.122 5.45082 11.6573 5.45082 12.29C5.45082 12.9469 4.91552 13.4579 4.28289 13.4579C3.62593 13.4579 3.11496 12.9469 3.11496 12.29C3.11496 11.6573 3.62593 11.122 4.28289 11.122ZM13.8453 2.09493C13.9913 2.28959 14.0399 2.55724 13.967 2.77622L12.6287 7.44793C12.5314 7.78858 12.2394 8.00756 11.8987 8.00756H4.1369L4.35588 9.17549H11.8744C12.1907 9.17549 12.4584 9.44314 12.4584 9.75945C12.4584 10.1001 12.1907 10.3434 11.8744 10.3434H3.89358C3.6016 10.3434 3.35828 10.1488 3.30962 9.88111L1.84971 2.16793H0.584452C0.243806 2.16793 0.000488281 1.92461 0.000488281 1.58396C0.000488281 1.26765 0.243806 1 0.584452 1H2.33634C2.60399 1 2.84731 1.21899 2.89597 1.48664L2.94464 1.77862H13.2127C13.4803 1.77862 13.6993 1.90028 13.8453 2.09493Z" fill="currentColor"/>
</svg>
