<svg part="svg" width="14" height="14" viewBox="0 0 14 14" fill="none" xmlns="http://www.w3.org/2000/svg">
<g id="Circle-X-close_icon">
<path part="path" id="Icon" d="M7 0C10.85 0 14 3.15 14 7C14 10.8792 10.85 14 7 14C3.12083 14 0 10.8792 0 7C0 3.15 3.12083 0 7 0ZM9.33333 8.4L7.9625 7L9.33333 5.62917C9.625 5.36667 9.625 4.92917 9.33333 4.66667C9.07083 4.375 8.63333 4.375 8.37083 4.66667L7 6.0375L5.6 4.66667C5.3375 4.375 4.9 4.375 4.6375 4.66667C4.34583 4.92917 4.34583 5.36667 4.6375 5.62917L6.00833 7L4.6375 8.4C4.34583 8.6625 4.34583 9.1 4.6375 9.3625C4.9 9.65417 5.3375 9.65417 5.6 9.3625L7 7.99167L8.37083 9.3625C8.63333 9.65417 9.07083 9.65417 9.33333 9.3625C9.625 9.1 9.625 8.6625 9.33333 8.4Z" fill="currentColor"/>
</g>
</svg>
