<svg width="14" height="14" viewBox="0 0 14 14" fill="none" xmlns="http://www.w3.org/2000/svg">
<g id="Circle-add_icon">
<path id="Icon" d="M7 0C10.85 0 14 3.15 14 7C14 10.8792 10.85 14 7 14C3.12083 14 0 10.8792 0 7C0 3.15 3.12083 0 7 0ZM9.8 7.7C10.1792 7.7 10.5 7.40833 10.5 7C10.5 6.62083 10.1792 6.3 9.8 6.3H7.7V4.2C7.7 3.82083 7.37917 3.5 7 3.5C6.59167 3.5 6.3 3.82083 6.3 4.2V6.3H4.2C3.79167 6.3 3.5 6.62083 3.5 7C3.5 7.40833 3.79167 7.7 4.2 7.7H6.3V9.8C6.3 10.2083 6.59167 10.5 7 10.5C7.37917 10.5 7.7 10.2083 7.7 9.8V7.7H9.8Z" fill="currentColor"/>
</g>
</svg>
