<svg width="14" height="14" viewBox="0 0 14 14" fill="none" xmlns="http://www.w3.org/2000/svg">
<g id="Circle-info_icon">
<path id="Icon" d="M7 0C10.85 0 14 3.15 14 7C14 10.8792 10.85 14 7 14C3.12083 14 0 10.8792 0 7C0 3.15 3.12083 0 7 0ZM7 3.26667C6.475 3.26667 6.06667 3.70417 6.06667 4.2C6.06667 4.725 6.475 5.13333 7 5.13333C7.49583 5.13333 7.93333 4.725 7.93333 4.2C7.93333 3.70417 7.49583 3.26667 7 3.26667ZM8.16667 10.7333C8.54583 10.7333 8.86667 10.4417 8.86667 10.0333C8.86667 9.65417 8.54583 9.33333 8.16667 9.33333H7.7V6.76667C7.7 6.3875 7.37917 6.06667 7 6.06667H6.06667C5.65833 6.06667 5.36667 6.3875 5.36667 6.76667C5.36667 7.175 5.65833 7.46667 6.06667 7.46667H6.3V9.33333H5.83333C5.425 9.33333 5.13333 9.65417 5.13333 10.0333C5.13333 10.4417 5.425 10.7333 5.83333 10.7333H8.16667Z" fill="currentColor"/>
</g>
</svg>
