<svg width="14" height="14" viewBox="0 0 14 14" fill="none" xmlns="http://www.w3.org/2000/svg">
<g id="circle-dot_icon" clip-path="url(#clip0_3819_307484)">
<path id="Icon" d="M7 14C8.85652 14 10.637 13.2625 11.9497 11.9497C13.2625 10.637 14 8.85652 14 7C14 5.14348 13.2625 3.36301 11.9497 2.05025C10.637 0.737498 8.85652 0 7 0C5.14348 0 3.36301 0.737498 2.05025 2.05025C0.737498 3.36301 0 5.14348 0 7C0 8.85652 0.737498 10.637 2.05025 11.9497C3.36301 13.2625 5.14348 14 7 14ZM7 4.375C7.69619 4.375 8.36387 4.65156 8.85616 5.14384C9.34844 5.63613 9.625 6.30381 9.625 7C9.625 7.69619 9.34844 8.36387 8.85616 8.85616C8.36387 9.34844 7.69619 9.625 7 9.625C6.30381 9.625 5.63613 9.34844 5.14384 8.85616C4.65156 8.36387 4.375 7.69619 4.375 7C4.375 6.30381 4.65156 5.63613 5.14384 5.14384C5.63613 4.65156 6.30381 4.375 7 4.375Z" fill="currentColor"/>
</g>
<defs>
<clipPath id="clip0_3819_307484">
<rect width="14" height="14" fill="white"/>
</clipPath>
</defs>
</svg>
