<svg width="14" height="14" viewBox="0 0 14 14" fill="none" xmlns="http://www.w3.org/2000/svg">
<g id="Clients_icon">
<path id="Icon" d="M2.1 4.25C2.1 3.52065 2.395 2.82118 2.9201 2.30546C3.4452 1.78973 4.15739 1.5 4.9 1.5C5.64261 1.5 6.3548 1.78973 6.8799 2.30546C7.405 2.82118 7.7 3.52065 7.7 4.25C7.7 4.97935 7.405 5.67882 6.8799 6.19454C6.3548 6.71027 5.64261 7 4.9 7C4.15739 7 3.4452 6.71027 2.9201 6.19454C2.395 5.67882 2.1 4.97935 2.1 4.25ZM0 11.8619C0 9.7457 1.74563 8.03125 3.90031 8.03125H5.89969C8.05437 8.03125 9.8 9.7457 9.8 11.8619C9.8 12.2143 9.50906 12.5 9.15031 12.5H0.649688C0.290938 12.5 0 12.2143 0 11.8619ZM13.3284 12.5H10.3119C10.43 12.298 10.5 12.0639 10.5 11.8125V11.6406C10.5 10.3365 9.90719 9.16563 8.97313 8.3793C9.02563 8.37715 9.07594 8.375 9.12844 8.375H10.4716C12.4206 8.375 14 9.92617 14 11.8404C14 12.2057 13.6981 12.5 13.3284 12.5ZM9.45 7C8.77187 7 8.15938 6.7293 7.71531 6.29316C8.14625 5.72168 8.4 5.01484 8.4 4.25C8.4 3.67422 8.25562 3.13066 7.99969 2.65371C8.40656 2.36152 8.9075 2.1875 9.45 2.1875C10.8041 2.1875 11.9 3.26387 11.9 4.59375C11.9 5.92363 10.8041 7 9.45 7Z" fill="currentColor"/>
</g>
</svg>
