<svg xmlns="http://www.w3.org/2000/svg" width="14" height="14" viewBox="0 0 14 14" fill="none">
    <path d="M7 0C10.85 0 14 3.15 14 7C14 10.8792 10.85 14 7 14C3.12083 14 0 10.8792 0 7C0 3.15 3.12083 0 7 0ZM9.42083 9.30417C9.65417 8.98333 9.59583 8.54583 9.275 8.3125L7.7 7.11667V3.96667C7.7 3.5875 7.37917 3.26667 7 3.26667C6.59167 3.26667 6.3 3.5875 6.3 3.96667V7.46667C6.3 7.7 6.3875 7.90417 6.5625 8.05L8.42917 9.45C8.54583 9.5375 8.69167 9.56667 8.8375 9.56667C9.07083 9.56667 9.275 9.47917 9.42083 9.30417Z" fill="currentColor"/>
</svg>
