<svg width="12" height="12" viewBox="0 0 12 12" fill="none" xmlns="http://www.w3.org/2000/svg">
  <path
    d="M10.6342 8.62752C11.1037 9.1283 11.1037 9.91078 10.6342 10.4116C10.1334 10.881 9.35096 10.881 8.85018 10.4116L6.00198 7.53206L3.12248 10.4116C2.6217 10.881 1.83922 10.881 1.33844 10.4116C0.868957 9.91078 0.868957 9.1283 1.33844 8.62752L4.21794 5.74802L1.33844 2.89982C0.868957 2.39904 0.868957 1.61657 1.33844 1.11578C1.83922 0.646301 2.6217 0.646301 3.12248 1.11578L6.00198 3.99528L8.85018 1.11578C9.35096 0.646301 10.1334 0.646301 10.6342 1.11578C11.1037 1.61657 11.1037 2.39904 10.6342 2.89982L7.75472 5.74802L10.6342 8.62752Z"
    fill="currentColor" />
</svg>