<svg width="14" height="14" viewBox="0 0 14 14" fill="none" xmlns="http://www.w3.org/2000/svg">
<g id="Code-snippet_icon">
<path id="Icon" d="M3.95938 3.72273C4.2875 4.07273 4.26562 4.64148 3.91563 4.9696L2.14375 6.58835L3.91563 8.22898C4.26562 8.5571 4.2875 9.12585 3.95938 9.47585C3.78437 9.65086 3.54375 9.73835 3.30313 9.73835C3.10625 9.73835 2.8875 9.67273 2.7125 9.5196L0.2625 7.2446C0.0875 7.0696 0 6.85085 0 6.58835C0 6.34773 0.0875 6.12898 0.2625 5.95398L2.7125 3.67898C3.0625 3.35085 3.63125 3.37273 3.95938 3.72273ZM13.7156 5.95398C13.8906 6.12898 14 6.34773 14 6.58835C14 6.85085 13.8906 7.0696 13.7156 7.2446L11.2656 9.5196C11.0906 9.67273 10.8719 9.73835 10.675 9.73835C10.4344 9.73835 10.1938 9.65086 10.0188 9.47585C9.69063 9.12585 9.7125 8.5571 10.0625 8.22898L11.8344 6.58835L10.0625 4.9696C9.7125 4.64148 9.69063 4.07273 10.0188 3.72273C10.3469 3.37273 10.9156 3.35085 11.2656 3.67898L13.7156 5.95398ZM8.44375 1.0321C8.90312 1.14148 9.1875 1.62273 9.05625 2.10398L6.60625 11.554C6.51875 11.9477 6.14687 12.1884 5.775 12.1884C5.6875 12.1884 5.62188 12.1884 5.53438 12.1665C5.075 12.0571 4.79063 11.5759 4.92188 11.0946L7.37188 1.6446C7.48125 1.18523 7.9625 0.900854 8.44375 1.0321Z" fill="currentColor"/>
</g>
</svg>
