<svg width="14" height="14" viewBox="0 0 14 14" fill="none" xmlns="http://www.w3.org/2000/svg">
<g id="Collapse_icon">
<path id="Icon" d="M5.92098 7.42341C6.2761 7.42341 6.57659 7.7239 6.57659 8.07902V11.7941C6.57659 12.1493 6.35805 12.4771 6.03024 12.6137C5.92098 12.6683 5.81171 12.6683 5.67512 12.6683C5.45659 12.6683 5.23805 12.5863 5.07415 12.4224L4.25463 11.6029L2.1239 13.7337C1.76878 14.0888 1.22244 14.0888 0.867317 13.7337L0.266341 13.1327C-0.0887805 12.7776 -0.0887805 12.2312 0.266341 11.8761L2.39707 9.74537L1.57756 8.92585C1.33171 8.68 1.24976 8.29756 1.38634 7.96976C1.52293 7.64195 1.85073 7.42341 2.17854 7.42341H5.92098ZM8.10634 6.54927C7.7239 6.54927 7.45073 6.2761 7.45073 5.89366V2.20585C7.45073 1.85073 7.64195 1.52293 7.96976 1.38634C8.29756 1.24976 8.68 1.33171 8.92585 1.57756L9.74537 2.39707L11.8761 0.266341C12.2312 -0.0887805 12.7776 -0.0887805 13.1327 0.266341L13.7337 0.867317C14.0888 1.22244 14.0888 1.76878 13.7337 2.1239L11.6029 4.25463L12.4224 5.07415C12.6683 5.32 12.7502 5.70244 12.6137 6.03024C12.4771 6.35805 12.1493 6.54927 11.8215 6.54927H8.10634Z" fill="currentColor"/>
</g>
</svg>
