<svg width="14" height="14" viewBox="0 0 14 14" fill="none" xmlns="http://www.w3.org/2000/svg">
<g id="collapse_all_icon">
<path id="Icon" d="M6.66016 5.05859L4.69141 3.08984C4.55469 2.98047 4.5 2.81641 4.5 2.625C4.5 2.29688 4.77344 1.96875 5.15625 1.96875C5.32031 1.96875 5.48438 2.05078 5.59375 2.1875L6.46875 3.03516V0.65625C6.46875 0.300781 6.74219 0 7.125 0C7.48047 0 7.78125 0.300781 7.78125 0.65625V3.03516L8.62891 2.1875C8.73828 2.05078 8.90234 1.96875 9.09375 1.96875C9.42188 1.96875 9.75 2.26953 9.75 2.625C9.75 2.81641 9.66797 2.98047 9.53125 3.08984L7.5625 5.05859C7.50781 5.14062 7.34375 5.25 7.125 5.25C6.87891 5.25 6.71484 5.14062 6.66016 5.05859ZM7.5625 8.96875L9.53125 10.9375C9.66797 11.0469 9.75 11.2109 9.75 11.375C9.75 11.5664 9.58594 12.0312 9.09375 12.0312C8.90234 12.0312 8.73828 11.9766 8.62891 11.8398L7.78125 10.9922V13.3438C7.78125 13.7266 7.48047 14 7.125 14C6.74219 14 6.46875 13.7266 6.46875 13.3438V10.9922L5.59375 11.8398C5.48438 11.9766 5.32031 12.0312 5.15625 12.0312C4.80078 12.0312 4.5 11.7578 4.5 11.375C4.5 11.2109 4.55469 11.0469 4.69141 10.9375L6.66016 8.96875C6.82422 8.77734 7.01562 8.77734 7.125 8.77734C7.20703 8.77734 7.39844 8.80469 7.5625 8.96875ZM12.5938 6.34375C12.9492 6.34375 13.25 6.64453 13.25 7C13.25 7.38281 12.9492 7.65625 12.5938 7.65625H1.65625C1.27344 7.65625 1 7.38281 1 7C1 6.64453 1.27344 6.34375 1.65625 6.34375H12.5938Z" fill="currentColor"/>
</g>
</svg>
