<svg width="14" height="14" viewBox="0 0 14 14" fill="none" xmlns="http://www.w3.org/2000/svg">
<g id="comp_group_icon">
<path id="Icon" d="M12.25 2.375C13.207 2.375 14 3.16797 14 4.125V11.125C14 12.1094 13.207 12.875 12.25 12.875H1.75C0.765625 12.875 0 12.1094 0 11.125V2.375C0 1.41797 0.765625 0.625 1.75 0.625H4.94922C5.41406 0.625 5.85156 0.816406 6.17969 1.14453L7.51953 2.375H12.25ZM12.6875 11.125V4.125C12.6875 3.90625 12.4688 3.6875 12.25 3.6875H7L5.25 2.07422C5.16797 1.99219 5.05859 1.9375 4.94922 1.9375H1.75C1.50391 1.9375 1.3125 2.15625 1.3125 2.375V11.125C1.3125 11.3711 1.50391 11.5625 1.75 11.5625H12.25C12.4688 11.5625 12.6875 11.3711 12.6875 11.125Z" fill="currentColor"/>
</g>
</svg>
