<svg width="15" height="14" viewBox="0 0 15 14" fill="none" xmlns="http://www.w3.org/2000/svg">
<g id="Connection add_icon">
<g id="Icon">
<path fill-rule="evenodd" clip-rule="evenodd" d="M8.75 11.7188C7.41016 11.7188 6.34375 10.625 6.34375 9.3125V7.78125H4.23828C3.96484 8.65625 3.14453 9.3125 2.1875 9.3125C0.957031 9.3125 -5.25903e-08 8.32812 0 7.125C5.37855e-08 5.89453 0.957031 4.9375 2.1875 4.9375C3.14453 4.9375 3.96484 5.56641 4.23828 6.46875H6.34375V4.9375C6.34375 3.59766 7.41016 2.53125 8.75 2.53125H9.73438C10.0078 1.62891 10.8281 1 11.8125 1C13.0156 1 14 1.95703 14 3.1875C14 4.39062 13.0156 5.375 11.8125 5.375C10.8281 5.375 10.0078 4.71875 9.73438 3.84375L8.75 3.84375C8.12109 3.84375 7.65625 4.30859 7.65625 4.9375V9.3125C7.65625 9.91406 8.12109 10.4062 8.75 10.4062V11.7188ZM11.8125 2.3125C12.2773 2.3125 12.6875 2.69531 12.6875 3.1875C12.6875 3.65234 12.2773 4.0625 11.8125 4.0625C11.3203 4.0625 10.9375 3.65234 10.9375 3.1875C10.9375 2.69531 11.3203 2.3125 11.8125 2.3125ZM2.1875 8C1.69531 8 1.3125 7.58984 1.3125 7.125C1.3125 6.63281 1.69531 6.25 2.1875 6.25C2.65234 6.25 3.0625 6.63281 3.0625 7.125C3.0625 7.58984 2.65234 8 2.1875 8Z" fill="currentColor"/>
<path d="M13.434 10.6698C13.7453 10.6698 14.0283 10.9245 14.0283 11.2642C14.0283 11.5755 13.7453 11.8302 13.434 11.8302H12.3302V12.934C12.3302 13.2453 12.0755 13.5 11.7642 13.5H11.7358C11.4245 13.5 11.1698 13.2453 11.1698 12.934V11.8302H10.066C9.75472 11.8302 9.5 11.5755 9.5 11.2642C9.5 10.9245 9.75472 10.6698 10.066 10.6698H11.1698V9.56604C11.1698 9.25472 11.4245 9 11.7358 9H11.7642C12.0755 9 12.3302 9.25472 12.3302 9.56604V10.6698H13.434Z" fill="currentColor"/>
</g>
</g>
</svg>
