<svg width="14" height="14" viewBox="0 0 14 14" fill="none" xmlns="http://www.w3.org/2000/svg">
<g id="Connection_icon">
<path id="Icon" d="M11.8125 13.25C10.8281 13.25 10.0078 12.5937 9.73437 11.7187L8.75 11.7187C7.41016 11.7187 6.34375 10.625 6.34375 9.3125L6.34375 7.78125L4.23828 7.78125C3.96484 8.65625 3.14453 9.3125 2.1875 9.3125C0.957031 9.3125 -3.20323e-07 8.32812 -2.67732e-07 7.125C-2.13947e-07 5.89453 0.957031 4.9375 2.1875 4.9375C3.14453 4.9375 3.96484 5.56641 4.23828 6.46875L6.34375 6.46875L6.34375 4.9375C6.34375 3.59766 7.41016 2.53125 8.75 2.53125L9.73437 2.53125C10.0078 1.62891 10.8281 1 11.8125 1C13.0156 1 14 1.95703 14 3.1875C14 4.39062 13.0156 5.375 11.8125 5.375C10.8281 5.375 10.0078 4.71875 9.73437 3.84375L8.75 3.84375C8.12109 3.84375 7.65625 4.30859 7.65625 4.9375L7.65625 9.3125C7.65625 9.91406 8.12109 10.4062 8.75 10.4062L9.73437 10.4062C10.0078 9.50391 10.8281 8.875 11.8125 8.875C13.0156 8.875 14 9.83203 14 11.0625C14 12.2656 13.0156 13.25 11.8125 13.25ZM12.6875 3.1875C12.6875 2.69531 12.2773 2.3125 11.8125 2.3125C11.3203 2.3125 10.9375 2.69531 10.9375 3.1875C10.9375 3.65234 11.3203 4.0625 11.8125 4.0625C12.2773 4.0625 12.6875 3.65234 12.6875 3.1875ZM1.3125 7.125C1.3125 7.58984 1.69531 8 2.1875 8C2.65234 8 3.0625 7.58984 3.0625 7.125C3.0625 6.63281 2.65234 6.25 2.1875 6.25C1.69531 6.25 1.3125 6.63281 1.3125 7.125ZM10.9375 11.0625C10.9375 11.5273 11.3203 11.9375 11.8125 11.9375C12.2773 11.9375 12.6875 11.5273 12.6875 11.0625C12.6875 10.5703 12.2773 10.1875 11.8125 10.1875C11.3203 10.1875 10.9375 10.5703 10.9375 11.0625Z" fill="currentColor"/>
</g>
</svg>
