<svg width="14" height="14" viewBox="0 0 14 14" fill="none" xmlns="http://www.w3.org/2000/svg">
<g id="copy planner_icon">
<path id="Icon" fill-rule="evenodd" clip-rule="evenodd" d="M0 2.71429C0 1.76875 0.784766 1 1.75 1H12.25C13.2152 1 14 1.76875 14 2.71429V11.2857C14 12.2312 13.2152 13 12.25 13H6.46487C6.80521 12.4117 7 11.7286 7 11C7 10.0554 6.67256 9.18724 6.125 8.50289V4.42857H1.75V7.19919C1.06696 7.42369 0.465134 7.82718 0 8.35418V2.71429ZM12.25 4.42857H7.875V11.2857H12.25V4.42857ZM6 11C6 12.6569 4.65685 14 3 14C1.34315 14 0 12.6569 0 11C0 9.34315 1.34315 8 3 8C4.65685 8 6 9.34315 6 11ZM2.73231 9.23908C2.57979 9.37949 2.57979 9.62519 2.73231 9.7656L3.58875 10.6197H1.50043C1.28925 10.6197 1.125 10.7952 1.125 10.9942C1.125 11.2048 1.28925 11.3686 1.50043 11.3686H3.58875L2.73231 12.2344C2.66191 12.3046 2.62672 12.3982 2.62672 12.4918C2.62672 12.5971 2.66191 12.6907 2.73231 12.7609C2.87309 12.913 3.11947 12.913 3.26025 12.7609L4.76197 11.2633C4.91449 11.1229 4.91449 10.8771 4.76197 10.7367L3.26025 9.23908C3.11947 9.08697 2.87309 9.08697 2.73231 9.23908Z" fill="currentColor"/>
</g>
</svg>
