<svg width="14" height="14" viewBox="0 0 14 14" fill="none" xmlns="http://www.w3.org/2000/svg">
<g id="copy diet_icon">
<path id="Icon" fill-rule="evenodd" clip-rule="evenodd" d="M6.99867 3.0625C6.76301 3.0625 6.57019 2.86562 6.57019 2.625V2.1875C6.57019 0.978906 7.52891 0 8.71257 0H9.14105C9.37671 0 9.56952 0.196875 9.56952 0.4375V0.875C9.56952 2.08359 8.61081 3.0625 7.42715 3.0625H6.99867ZM3.00001 7C2.27501 7 1.59505 7.19288 1.00867 7.53014C1.1082 5.54439 2.06817 3.5 3.99934 3.5C4.73043 3.5 5.59809 3.78164 6.21402 4.02773C6.71748 4.22734 7.28254 4.22734 7.78599 4.02773C8.39925 3.78437 9.26959 3.5 10.0007 3.5C12.044 3.5 13 5.78867 13 7.875C13 11.375 10.8576 14 8.71525 14C8.27339 14 7.69494 13.8195 7.3361 13.691C7.11918 13.6145 6.88352 13.6145 6.6666 13.691C6.40962 13.783 6.04003 13.9017 5.68862 13.9617C6.49421 13.2299 7.00001 12.174 7.00001 11C7.00001 8.79086 5.20915 7 3.00001 7ZM6 11C6 12.6569 4.65685 14 3 14C1.34315 14 0 12.6569 0 11C0 9.34315 1.34315 8 3 8C4.65685 8 6 9.34315 6 11ZM2.73231 9.23908C2.57979 9.37949 2.57979 9.62519 2.73231 9.7656L3.58875 10.6197H1.50043C1.28925 10.6197 1.125 10.7952 1.125 10.9942C1.125 11.2048 1.28925 11.3686 1.50043 11.3686H3.58875L2.73231 12.2344C2.66191 12.3046 2.62672 12.3982 2.62672 12.4918C2.62672 12.5971 2.66191 12.6907 2.73231 12.7609C2.87309 12.913 3.11947 12.913 3.26025 12.7609L4.76197 11.2633C4.91449 11.1229 4.91449 10.8771 4.76197 10.7367L3.26025 9.23908C3.11947 9.08697 2.87309 9.08697 2.73231 9.23908Z" fill="currentColor"/>
</g>
</svg>
