<svg width="14" height="14" viewBox="0 0 14 14" fill="none" xmlns="http://www.w3.org/2000/svg">
<path d="M11.7431 6.70648C11.5868 6.89416 11.3413 6.988 11.1181 6.988C10.8949 6.988 10.6717 6.91762 10.4931 6.72994L7.01116 3.2345L3.50688 6.72994C3.14975 7.10529 2.59175 7.08183 2.25694 6.70648C1.89982 6.33113 1.92214 5.74465 2.27926 5.39276L6.38619 1.26392C6.721 0.912027 7.279 0.912027 7.61381 1.26392L11.7207 5.39276C12.0779 5.74465 12.1002 6.33113 11.7431 6.70648Z" fill="currentColor"/>
<path d="M11.7431 8.29352C11.5868 8.10584 11.3413 8.012 11.1181 8.012C10.8949 8.012 10.6717 8.08238 10.4931 8.27006L7.01116 11.7655L3.50688 8.27006C3.14975 7.89471 2.59175 7.91817 2.25694 8.29352C1.89982 8.66887 1.92214 9.25535 2.27926 9.60724L6.38619 13.7361C6.721 14.088 7.279 14.088 7.61381 13.7361L11.7207 9.60724C12.0779 9.25535 12.1002 8.66887 11.7431 8.29352Z" fill="currentColor"/>
</svg>
