<svg width="14" height="15" viewBox="0 0 14 15" fill="none" xmlns="http://www.w3.org/2000/svg">
<g id="Date-up_icon">
<path id="Icon" d="M13.125 3.8125V5.125H0.875V3.8125C0.875 3.10156 1.44922 2.5 2.1875 2.5H3.5V1.625C3.5 1.16016 3.88281 0.75 4.375 0.75C4.83984 0.75 5.25 1.16016 5.25 1.625V2.5H8.75V1.625C8.75 1.16016 9.13281 0.75 9.625 0.75C10.0898 0.75 10.5 1.16016 10.5 1.625V2.5H11.8125C12.5234 2.5 13.125 3.10156 13.125 3.8125ZM0.875 6H13.125V13.4375C13.125 14.1758 12.5234 14.75 11.8125 14.75H2.1875C1.44922 14.75 0.875 14.1758 0.875 13.4375V6ZM4.34766 10.6211C4.59375 10.8945 5.00391 10.8945 5.25 10.6211L6.34375 9.55469V12.3438C6.34375 12.7266 6.61719 13 7 13C7.35547 13 7.65625 12.7266 7.65625 12.3438V9.55469L8.72266 10.6211C8.83203 10.7578 8.99609 10.8125 9.1875 10.8125C9.35156 10.8125 9.51562 10.7578 9.625 10.6211C9.89844 10.375 9.89844 9.96484 9.625 9.71875L7.4375 7.53125C7.19141 7.25781 6.78125 7.25781 6.53516 7.53125L4.34766 9.71875C4.07422 9.96484 4.07422 10.375 4.34766 10.6211Z" fill="currentColor"/>
</g>
</svg>
