<svg width="14" height="14" viewBox="0 0 14 14" fill="none" xmlns="http://www.w3.org/2000/svg">
<g id="diet_icon">
<path id="Icon" d="M6.99866 3.0625C6.763 3.0625 6.57019 2.86562 6.57019 2.625V2.1875C6.57019 0.978906 7.5289 0 8.71256 0H9.14104C9.3767 0 9.56952 0.196875 9.56952 0.4375V0.875C9.56952 2.08359 8.6108 3.0625 7.42714 3.0625H6.99866ZM1 7.875C1 5.78867 1.95604 3.5 3.99933 3.5C4.73042 3.5 5.59808 3.78164 6.21401 4.02773C6.71747 4.22734 7.28253 4.22734 7.78598 4.02773C8.39924 3.78437 9.26958 3.5 10.0007 3.5C12.044 3.5 13 5.78867 13 7.875C13 11.375 10.8576 14 8.71524 14C8.27338 14 7.69493 13.8195 7.33609 13.691C7.11917 13.6145 6.88351 13.6145 6.66659 13.691C6.30774 13.8195 5.7293 14 5.28744 14C3.14238 14 1 11.375 1 7.875Z" fill="currentColor"/>
</g>
</svg>
