<svg width="14" height="14" viewBox="0 0 14 14" fill="none" xmlns="http://www.w3.org/2000/svg">
<g id="Dish_icon">
<path id="Icon" d="M7.65625 4.24219C10.7188 4.57031 13.125 7.16797 13.125 10.3125H0.875C0.875 7.16797 3.25391 4.57031 6.34375 4.24219V3.3125H5.90625C5.52344 3.3125 5.25 3.03906 5.25 2.65625C5.25 2.30078 5.52344 2 5.90625 2H8.09375C8.44922 2 8.75 2.30078 8.75 2.65625C8.75 3.03906 8.44922 3.3125 8.09375 3.3125H7.65625V4.24219ZM13.3438 11.1875C13.6992 11.1875 14 11.4883 14 11.8438C14 12.2266 13.6992 12.5 13.3438 12.5H0.65625C0.273438 12.5 0 12.2266 0 11.8438C0 11.4883 0.273438 11.1875 0.65625 11.1875H13.3438Z" fill="currentColor"/>
</g>
</svg>
