<svg width="14" height="14" viewBox="0 0 14 14" fill="none" xmlns="http://www.w3.org/2000/svg">
<g id="Document_icon">
<path id="Icon" d="M3.5 0C2.53477 0 1.75 0.784766 1.75 1.75V12.25C1.75 13.2152 2.53477 14 3.5 14H10.5C11.4652 14 12.25 13.2152 12.25 12.25V4.375H8.75C8.26602 4.375 7.875 3.98398 7.875 3.5V0H3.5ZM8.75 0V3.5H12.25L8.75 0ZM4.8125 7H9.1875C9.42812 7 9.625 7.19688 9.625 7.4375C9.625 7.67812 9.42812 7.875 9.1875 7.875H4.8125C4.57188 7.875 4.375 7.67812 4.375 7.4375C4.375 7.19688 4.57188 7 4.8125 7ZM4.8125 8.75H9.1875C9.42812 8.75 9.625 8.94687 9.625 9.1875C9.625 9.42813 9.42812 9.625 9.1875 9.625H4.8125C4.57188 9.625 4.375 9.42813 4.375 9.1875C4.375 8.94687 4.57188 8.75 4.8125 8.75ZM4.8125 10.5H9.1875C9.42812 10.5 9.625 10.6969 9.625 10.9375C9.625 11.1781 9.42812 11.375 9.1875 11.375H4.8125C4.57188 11.375 4.375 11.1781 4.375 10.9375C4.375 10.6969 4.57188 10.5 4.8125 10.5Z" fill="currentColor"/>
</g>
</svg>
