<svg width="14" height="14" viewBox="0 0 14 14" fill="none" xmlns="http://www.w3.org/2000/svg">
<g id="Dots-horizontal_icon">
<path id="Icon" d="M1.75 5C2.70703 5 3.5 5.79297 3.5 6.75C3.5 7.73438 2.70703 8.5 1.75 8.5C0.765625 8.5 0 7.73438 0 6.75C0 5.79297 0.765625 5 1.75 5ZM7 5C7.95703 5 8.75 5.79297 8.75 6.75C8.75 7.73438 7.95703 8.5 7 8.5C6.01562 8.5 5.25 7.73438 5.25 6.75C5.25 5.79297 6.01562 5 7 5ZM12.25 5C13.207 5 14 5.79297 14 6.75C14 7.73438 13.207 8.5 12.25 8.5C11.2656 8.5 10.5 7.73438 10.5 6.75C10.5 5.79297 11.2656 5 12.25 5Z" fill="currentColor"/>
</g>
</svg>
