<svg width="14" height="15" viewBox="0 0 14 15" fill="none" xmlns="http://www.w3.org/2000/svg">
<g id="Edit_icon">
<path id="Icon" d="M13.59 2.80078C14.1095 3.29297 14.1095 4.14062 13.59 4.66016L12.0588 6.19141L8.55876 2.69141L10.09 1.16016C10.6095 0.640625 11.4572 0.640625 11.9494 1.16016L13.59 2.80078ZM0.847823 10.4023L7.92985 3.32031L11.4299 6.82031L4.34782 13.9023C4.26579 13.9844 4.18376 14.0117 4.10173 14.0391L0.519698 14.75C0.492354 14.75 0.437667 14.75 0.410323 14.75C0.164229 14.75 -0.0545208 14.5039 0.000166722 14.2305L0.711104 10.6484C0.738448 10.5664 0.765792 10.4844 0.847823 10.4023ZM3.5822 12.8086L4.26579 12.125H2.62517V10.4844L1.94157 11.168L1.53142 13.2188L3.5822 12.8086Z" fill="currentColor"/>
</g>
</svg>
