<svg width="14" height="14" viewBox="0 0 14 14" fill="none" xmlns="http://www.w3.org/2000/svg">
<g id="Email_icon">
<path id="Icon" d="M7 9.40234C7.4375 9.40234 7.90234 9.23828 8.28516 8.9375L14 4.50781V10.6875C14 11.4258 13.3984 12 12.6875 12H1.3125C0.574219 12 0 11.4258 0 10.6875V4.50781L5.6875 8.9375C6.07031 9.23828 6.53516 9.40234 7 9.40234ZM0.4375 3.74219C0.164062 3.52344 0 3.19531 0 2.8125C0 2.10156 0.574219 1.5 1.3125 1.5H12.6875C13.3984 1.5 14 2.10156 14 2.8125C14 3.19531 13.8086 3.52344 13.5352 3.74219L7.73828 8.25391C7.30078 8.58203 6.67188 8.58203 6.23438 8.25391L0.4375 3.74219Z" fill="currentColor"/>
</g>
</svg>
