<svg width="14" height="14" viewBox="0 0 14 14" fill="none" xmlns="http://www.w3.org/2000/svg">
<g id="email_send">
<path id="Icon" fill-rule="evenodd" clip-rule="evenodd" d="M7 9.40234C7.11426 9.40234 7.23038 9.39115 7.34642 9.36926C7.12379 9.8673 7 10.4192 7 11C7 11.3453 7.04375 11.6804 7.12602 12H1.3125C0.574219 12 0 11.4258 0 10.6875V4.50781L5.6875 8.9375C6.07031 9.23828 6.53516 9.40234 7 9.40234ZM11 7C10.9251 7 10.8507 7.00206 10.7769 7.00612L14 4.50781V8.35418C13.2671 7.52375 12.1947 7 11 7ZM0.4375 3.74219C0.164062 3.52344 0 3.19531 0 2.8125C0 2.10156 0.574219 1.5 1.3125 1.5H12.6875C13.3984 1.5 14 2.10156 14 2.8125C14 3.19531 13.8086 3.52344 13.5352 3.74219L7.73828 8.25391C7.30078 8.58203 6.67188 8.58203 6.23438 8.25391L0.4375 3.74219ZM14 11C14 12.6569 12.6569 14 11 14C9.34315 14 8 12.6569 8 11C8 9.34315 9.34315 8 11 8C12.6569 8 14 9.34315 14 11ZM10.7323 9.23908C10.5798 9.37949 10.5798 9.62519 10.7323 9.7656L11.5888 10.6197H9.50043C9.28925 10.6197 9.125 10.7952 9.125 10.9942C9.125 11.2048 9.28925 11.3686 9.50043 11.3686H11.5888L10.7323 12.2344C10.6619 12.3046 10.6267 12.3982 10.6267 12.4918C10.6267 12.5971 10.6619 12.6907 10.7323 12.7609C10.8731 12.913 11.1195 12.913 11.2603 12.7609L12.762 11.2633C12.9145 11.1229 12.9145 10.8771 12.762 10.7367L11.2603 9.23908C11.1195 9.08697 10.8731 9.08697 10.7323 9.23908Z" fill="currentColor"/>
</g>
</svg>
