<svg width="14" height="14" viewBox="0 0 14 14" fill="none" xmlns="http://www.w3.org/2000/svg">
<g id="Empty_icon">
<path id="Icon" d="M3.30859 1C2.50469 1 1.80469 1.53571 1.61055 2.29911L0.0519531 8.40357C0.0164063 8.54018 0 8.67946 0 8.81875V11.2857C0 12.2312 0.784766 13 1.75 13H12.25C13.2152 13 14 12.2312 14 11.2857V8.81875C14 8.67946 13.9836 8.54018 13.948 8.40357L12.3895 2.29911C12.1953 1.53571 11.4953 1 10.6914 1H3.30859ZM3.30859 2.71429H10.6914L12.0039 7.85714H10.6039C10.273 7.85714 9.96953 8.03929 9.82188 8.33125L9.43086 9.09732C9.2832 9.38661 8.97969 9.57143 8.64883 9.57143H5.35391C5.02305 9.57143 4.71953 9.38929 4.57188 9.09732L4.18086 8.33125C4.0332 8.04196 3.72969 7.85714 3.39883 7.85714H1.99609L3.30859 2.71429Z" fill="currentColor"/>
</g>
</svg>
