<svg width="14" height="14" viewBox="0 0 14 14" fill="none" xmlns="http://www.w3.org/2000/svg">
<g id="Ex_icon">
<path id="Icon" d="M8.99609 11.1289C8.83203 10.9466 8.75 10.737 8.75 10.5C8.75 10.263 8.83203 10.0534 8.99609 9.87109L11.0195 7.875H2.1875C1.56771 7.85677 1.04818 7.64714 0.628906 7.24609C0.227865 6.82682 0.0182292 6.30729 0 5.6875V0.875C0 0.619792 0.0820312 0.410156 0.246094 0.246094C0.410156 0.0820312 0.619792 0 0.875 0C1.13021 0 1.33984 0.0820312 1.50391 0.246094C1.66797 0.410156 1.75 0.619792 1.75 0.875V5.6875C1.76823 5.96094 1.91406 6.10677 2.1875 6.125H11.0195L8.99609 4.12891C8.83203 3.94661 8.75 3.73698 8.75 3.5C8.75 3.26302 8.83203 3.05339 8.99609 2.87109C9.17839 2.70703 9.38802 2.625 9.625 2.625C9.86198 2.625 10.0716 2.70703 10.2539 2.87109L13.7539 6.37109C13.918 6.55339 14 6.76302 14 7C14 7.23698 13.918 7.44661 13.7539 7.62891L10.2539 11.1289C10.0716 11.293 9.86198 11.375 9.625 11.375C9.38802 11.375 9.17839 11.293 8.99609 11.1289Z" fill="currentColor"/>
</g>
</svg>
