<svg width="14" height="14" viewBox="0 0 14 14" fill="none" xmlns="http://www.w3.org/2000/svg">
<g id="exclamation_mark_icon">
<path id="Icon" d="M6.7226 10.5548C7.64542 10.5548 8.4452 11.3546 8.4452 12.2774C8.4452 13.231 7.64542 14 6.7226 14C5.76902 14 5 13.231 5 12.2774C5 11.3546 5.76902 10.5548 6.7226 10.5548ZM6.66108 9.32438C6.0151 9.32438 5.49217 8.77068 5.46141 8.12471L5.24609 1.57268C5.21532 0.711384 5.83054 0.0346491 6.66108 0.00388845C7.46085 -0.0576329 8.13759 0.619102 8.16835 1.44964C8.19911 1.4804 8.19911 1.51116 8.16835 1.57268L7.95303 8.12471C7.92227 8.8322 7.33781 9.35514 6.66108 9.32438Z" fill="currentColor"/>
</g>
</svg>
