<svg width="14" height="14" viewBox="0 0 14 14" fill="none" xmlns="http://www.w3.org/2000/svg">
<g id="Expand_icon">
<path id="Icon" d="M5.6875 7.71094L6.28906 8.3125C6.64453 8.66797 6.64453 9.21484 6.28906 9.57031L4.15625 11.7031L4.97656 12.5234C5.22266 12.7695 5.30469 13.1523 5.16797 13.4805C5.03125 13.8086 4.70312 14 4.375 14H0.65625C0.273438 14 0 13.7266 0 13.3438V9.65234C0 9.29688 0.191406 8.96875 0.519531 8.83203C0.628906 8.77734 0.738281 8.77734 0.875 8.77734C1.09375 8.77734 1.3125 8.85938 1.47656 9.02344L2.29688 9.84375L4.42969 7.71094C4.78516 7.35547 5.33203 7.35547 5.6875 7.71094ZM13.3438 0C13.6992 0 14 0.300781 14 0.65625V4.375C14 4.73047 13.7812 5.05859 13.4531 5.19531C13.125 5.33203 12.7422 5.25 12.4961 5.00391L11.6758 4.18359L9.54297 6.31641C9.1875 6.67188 8.64062 6.67188 8.28516 6.31641L7.68359 5.71484C7.32812 5.35938 7.32812 4.8125 7.68359 4.45703L9.81641 2.32422L8.99609 1.50391C8.75 1.25781 8.66797 0.875 8.80469 0.546875C8.94141 0.21875 9.26953 0 9.59766 0H13.3438Z" fill="currentColor"/>
</g>
</svg>
