<svg width="14" height="14" viewBox="0 0 14 14" fill="none" xmlns="http://www.w3.org/2000/svg">
<g id="expand_all_icon">
<path id="Icon" d="M9.09375 10.7188C9.42188 10.7188 9.75 11.0195 9.75 11.375C9.75 11.5664 9.66797 11.7305 9.53125 11.8398L7.5625 13.8086C7.50781 13.8906 7.34375 14 7.125 14C6.87891 14 6.71484 13.8906 6.66016 13.8086L4.69141 11.8398C4.55469 11.7305 4.5 11.5664 4.5 11.375C4.5 11.0195 4.80078 10.7188 5.15625 10.7188C5.32031 10.7188 5.48438 10.8008 5.59375 10.9375L6.46875 11.7852V9.40625C6.46875 9.05078 6.74219 8.75 7.125 8.75C7.48047 8.75 7.78125 9.05078 7.78125 9.40625V11.7852L8.62891 10.9375C8.73828 10.8008 8.90234 10.7188 9.09375 10.7188ZM5.15625 3.28125C4.80078 3.28125 4.5 3.00781 4.5 2.625C4.5 2.46094 4.55469 2.29688 4.69141 2.1875L6.66016 0.191406C6.82422 0.0273438 7.01562 0 7.125 0C7.20703 0 7.39844 0.0273438 7.5625 0.191406L9.53125 2.1875C9.66797 2.29688 9.75 2.46094 9.75 2.625C9.75 2.81641 9.58594 3.28125 9.09375 3.28125C8.90234 3.28125 8.73828 3.22656 8.62891 3.08984L7.78125 2.24219V4.59375C7.78125 4.97656 7.48047 5.25 7.125 5.25C6.74219 5.25 6.46875 4.97656 6.46875 4.59375V2.24219L5.59375 3.08984C5.48438 3.22656 5.32031 3.28125 5.15625 3.28125ZM12.5938 6.34375C12.9492 6.34375 13.25 6.64453 13.25 7C13.25 7.38281 12.9492 7.65625 12.5938 7.65625H1.65625C1.27344 7.65625 1 7.38281 1 7C1 6.64453 1.27344 6.34375 1.65625 6.34375H12.5938Z" fill="currentColor"/>
</g>
</svg>
