<svg width="14" height="14" viewBox="0 0 14 14" fill="none" xmlns="http://www.w3.org/2000/svg">
<g id="Export_icon">
<path id="Icon" d="M4.67072 8.10994C4.67072 8.45051 4.91399 8.69378 5.25456 8.69378H9.34144V11.8076C9.34144 12.4644 8.80626 12.9753 8.17376 12.9753H1.16768C0.51086 12.9753 0 12.4644 0 11.8076V1.6877C0 1.05521 0.51086 0.52002 1.16768 0.52002H5.44917V3.63383C5.44917 4.07171 5.78975 4.41229 6.22763 4.41229H9.34144V7.5261H5.25456C4.91399 7.5261 4.67072 7.79369 4.67072 8.10994ZM6.22763 0.52002L9.34144 3.63383H6.22763V0.52002ZM13.8176 7.72072C14.0608 7.93965 14.0608 8.30455 13.8176 8.52349L11.8714 10.4696C11.6525 10.7129 11.2876 10.7129 11.0686 10.4696C10.947 10.3723 10.8983 10.2264 10.8983 10.0561C10.8983 9.91012 10.947 9.76416 11.0686 9.66685L12.0174 8.69378H9.34144V7.5261H12.0174L11.0686 6.57736C10.8254 6.35842 10.8254 5.99352 11.0686 5.77458C11.2876 5.53131 11.6525 5.53131 11.8714 5.77458L13.8176 7.72072Z" fill="currentColor"/>
</g>
</svg>
