<svg xmlns="http://www.w3.org/2000/svg" width="14" height="14" viewBox="0 0 14 14" fill="none">
    <path d="M13.2127 6.37822C13.2564 6.4876 13.3002 6.6626 13.3002 6.7501C13.3002 6.85947 13.2564 7.03447 13.2127 7.14385C12.0314 9.83447 9.66895 11.6501 7.0002 11.6501C4.30957 11.6501 1.94707 9.83447 0.76582 7.14385C0.72207 7.03447 0.700195 6.85947 0.700195 6.7501C0.700195 6.6626 0.72207 6.4876 0.76582 6.37822C1.94707 3.6876 4.30957 1.8501 7.0002 1.8501C9.66895 1.8501 12.0314 3.6876 13.2127 6.37822ZM10.1502 6.77197V6.7501C10.1502 5.02197 8.72832 3.6001 7.0002 3.6001C5.2502 3.6001 3.8502 5.02197 3.8502 6.7501C3.8502 8.5001 5.2502 9.9001 7.0002 9.9001C8.72832 9.9001 10.1502 8.5001 10.1502 6.77197ZM7.0002 4.6501C8.1377 4.6501 9.1002 5.6126 9.1002 6.7501C9.1002 7.90947 8.1377 8.8501 7.0002 8.8501C5.84082 8.8501 4.9002 7.90947 4.9002 6.7501C4.9002 6.70635 4.9002 6.64072 4.9002 6.5751C5.09707 6.68447 5.3377 6.7501 5.6002 6.7501C6.36582 6.7501 7.0002 6.1376 7.0002 5.3501C7.0002 5.10947 6.9127 4.89072 6.80332 4.67197C6.86895 4.67197 6.93457 4.67197 6.97832 4.6501H7.0002Z" fill="currentColor"/>
</svg>
