<svg width="15" height="14" viewBox="0 0 15 14" fill="none" xmlns="http://www.w3.org/2000/svg">
<g id="Eye-Closed_icon">
<path id="Icon" d="M8.10658 8.85075C8.06285 8.85075 8.01912 8.87261 7.9754 8.87261C6.96967 8.87261 6.117 8.12925 5.92023 7.14539L8.10658 8.85075ZM7.99726 9.92206C8.41267 9.92206 8.78435 9.83461 9.15603 9.68156L10.7958 10.9496C9.92125 11.4088 8.98112 11.6493 7.9754 11.6493C5.30805 11.6493 2.94679 9.83461 1.76615 7.14539C1.72243 7.03607 1.6787 6.86117 1.6787 6.77371C1.6787 6.66439 1.72243 6.48949 1.76615 6.38017C2.05038 5.76799 2.37833 5.19954 2.77188 4.67481L4.87078 6.33644C4.87078 6.46762 4.82705 6.62067 4.82705 6.77371C4.82705 8.50093 6.24818 9.92206 7.9754 9.92206H7.99726ZM14.775 11.4306C15.0155 11.6056 15.0592 11.9335 14.8624 12.1521C14.6875 12.3926 14.3595 12.4364 14.1409 12.2396L1.1977 2.09492C0.957204 1.92001 0.913477 1.59206 1.11025 1.37342C1.1977 1.24224 1.35075 1.15479 1.52566 1.15479C1.63497 1.15479 1.74429 1.19851 1.83175 1.28597L4.2586 3.16623C5.32991 2.33542 6.61986 1.87628 7.9754 1.87628C10.6646 1.87628 13.0259 3.69095 14.2065 6.38017C14.2502 6.48949 14.2721 6.66439 14.2721 6.77371C14.2721 6.86117 14.2502 7.03607 14.2065 7.14539C13.7911 8.10739 13.2008 8.9382 12.523 9.63783L14.775 11.4306ZM11.1237 6.77371C11.1237 5.02463 9.72448 3.62536 7.9754 3.62536C7.16645 3.62536 6.44495 3.93145 5.8765 4.45618L7.84421 5.98662C7.93167 5.78985 7.9754 5.59308 7.9754 5.37445C7.9754 5.11208 7.90981 4.89345 7.80049 4.67481C7.86608 4.67481 7.93167 4.67481 7.9754 4.67481C9.13416 4.67481 10.0743 5.61494 10.0743 6.77371C10.0743 7.05794 10.0087 7.34216 9.89939 7.60453L10.7521 8.26043C10.9926 7.82316 11.1237 7.29844 11.1237 6.77371Z" fill="currentColor"/>
</g>
</svg>
