<svg width="14" height="14" viewBox="0 0 14 14" fill="none" xmlns="http://www.w3.org/2000/svg">
<path d="M0 7C0.0182292 5.6875 0.33724 4.51172 0.957031 3.47266C1.57682 2.41536 2.41536 1.57682 3.47266 0.957031C4.51172 0.33724 5.6875 0.0182292 7 0C8.3125 0.0182292 9.48828 0.33724 10.5273 0.957031C11.5846 1.57682 12.4232 2.41536 13.043 3.47266C13.6628 4.51172 13.9818 5.6875 14 7C13.9818 8.3125 13.6628 9.48828 13.043 10.5273C12.4232 11.5846 11.5846 12.4232 10.5273 13.043C9.48828 13.6628 8.3125 13.9818 7 14C5.6875 13.9818 4.51172 13.6628 3.47266 13.043C2.41536 12.4232 1.57682 11.5846 0.957031 10.5273C0.33724 9.48828 0.0182292 8.3125 0 7ZM4.8125 6.5625C5.06771 6.5625 5.27734 6.48047 5.44141 6.31641C5.60547 6.15234 5.6875 5.94271 5.6875 5.6875C5.6875 5.43229 5.60547 5.22266 5.44141 5.05859C5.27734 4.89453 5.06771 4.8125 4.8125 4.8125C4.57552 4.8125 4.375 4.89453 4.21094 5.05859C4.04688 5.22266 3.95573 5.43229 3.9375 5.6875C3.95573 5.94271 4.04688 6.15234 4.21094 6.31641C4.375 6.48047 4.57552 6.5625 4.8125 6.5625ZM9.1875 4.8125C8.95052 4.8125 8.75 4.89453 8.58594 5.05859C8.42188 5.22266 8.33073 5.43229 8.3125 5.6875C8.33073 5.94271 8.42188 6.15234 8.58594 6.31641C8.75 6.48047 8.95052 6.5625 9.1875 6.5625C9.44271 6.5625 9.65234 6.48047 9.81641 6.31641C9.98047 6.15234 10.0625 5.94271 10.0625 5.6875C10.0625 5.43229 9.98047 5.22266 9.81641 5.05859C9.65234 4.89453 9.44271 4.8125 9.1875 4.8125ZM4.375 9.1875C4.10156 9.20573 3.95573 9.35156 3.9375 9.625C3.95573 9.89844 4.10156 10.0443 4.375 10.0625H9.625C9.89844 10.0443 10.0443 9.89844 10.0625 9.625C10.0443 9.35156 9.89844 9.20573 9.625 9.1875H4.375Z" fill="currentColor"/>
</svg>
