<svg width="14" height="14" viewBox="0 0 14 14" fill="none" xmlns="http://www.w3.org/2000/svg">
<path d="M9.57031 8.42188C9.82552 8.36719 10.0352 8.42188 10.1992 8.58594C10.3633 8.76823 10.3724 8.97786 10.2266 9.21484C9.89844 9.72526 9.45182 10.1354 8.88672 10.4453C8.32161 10.7552 7.69271 10.9102 7 10.9102C6.30729 10.9102 5.67839 10.7552 5.11328 10.4453C4.54818 10.1354 4.09245 9.72526 3.74609 9.21484C3.61849 8.97786 3.63672 8.76823 3.80078 8.58594C3.96484 8.42188 4.17448 8.36719 4.42969 8.42188C5.23177 8.6224 6.08854 8.72266 7 8.72266C7.91146 8.72266 8.76823 8.6224 9.57031 8.42188ZM6.53516 4.83984L6.04297 6.64453C5.95182 6.89974 5.77865 7 5.52344 6.94531L3.74609 6.48047C3.49089 6.40755 3.29948 6.26172 3.17188 6.04297C3.0625 5.84245 3.03516 5.61458 3.08984 5.35938C3.16276 5.10417 3.30859 4.92188 3.52734 4.8125C3.72786 4.6849 3.94661 4.65755 4.18359 4.73047L4.64844 4.83984L4.75781 4.40234C4.83073 4.14714 4.97656 3.95573 5.19531 3.82812C5.41406 3.71875 5.64193 3.69141 5.87891 3.74609C6.13411 3.81901 6.32552 3.96484 6.45312 4.18359C6.5625 4.38411 6.58984 4.60286 6.53516 4.83984ZM9.35156 4.83984L9.78906 4.73047C10.0443 4.65755 10.2721 4.6849 10.4727 4.8125C10.6914 4.92188 10.8372 5.10417 10.9102 5.35938C10.9648 5.61458 10.9375 5.84245 10.8281 6.04297C10.7005 6.26172 10.5091 6.40755 10.2539 6.48047L8.47656 6.94531C8.22135 7 8.04818 6.89974 7.95703 6.64453L7.46484 4.83984C7.41016 4.60286 7.4375 4.38411 7.54688 4.18359C7.67448 3.96484 7.86589 3.81901 8.12109 3.74609C8.35807 3.69141 8.58594 3.71875 8.80469 3.82812C9.02344 3.95573 9.16927 4.14714 9.24219 4.40234L9.35156 4.83984ZM14 7C13.9818 8.3125 13.6628 9.48828 13.043 10.5273C12.4232 11.5846 11.5846 12.4232 10.5273 13.043C9.48828 13.6628 8.3125 13.9818 7 14C5.6875 13.9818 4.51172 13.6628 3.47266 13.043C2.41536 12.4232 1.57682 11.5846 0.957031 10.5273C0.33724 9.48828 0.0182292 8.3125 0 7C0.0182292 5.6875 0.33724 4.51172 0.957031 3.47266C1.57682 2.41536 2.41536 1.57682 3.47266 0.957031C4.51172 0.33724 5.6875 0.0182292 7 0C8.3125 0.0182292 9.48828 0.33724 10.5273 0.957031C11.5846 1.57682 12.4232 2.41536 13.043 3.47266C13.6628 4.51172 13.9818 5.6875 14 7ZM7 1.3125C5.39583 1.34896 4.05599 1.90495 2.98047 2.98047C1.90495 4.05599 1.34896 5.39583 1.3125 7C1.34896 8.60417 1.90495 9.94401 2.98047 11.0195C4.05599 12.0951 5.39583 12.651 7 12.6875C8.60417 12.651 9.94401 12.0951 11.0195 11.0195C12.0951 9.94401 12.651 8.60417 12.6875 7C12.651 5.39583 12.0951 4.05599 11.0195 2.98047C9.94401 1.90495 8.60417 1.34896 7 1.3125Z" fill="currentColor"/>
</svg>
