<svg width="14" height="14" viewBox="0 0 14 14" fill="none" xmlns="http://www.w3.org/2000/svg">
<path d="M3.9375 5.6875C3.95573 5.43229 4.04688 5.22266 4.21094 5.05859C4.375 4.89453 4.57552 4.8125 4.8125 4.8125C5.06771 4.8125 5.27734 4.89453 5.44141 5.05859C5.60547 5.22266 5.6875 5.43229 5.6875 5.6875C5.6875 5.94271 5.60547 6.15234 5.44141 6.31641C5.27734 6.48047 5.06771 6.5625 4.8125 6.5625C4.57552 6.5625 4.375 6.48047 4.21094 6.31641C4.04688 6.15234 3.95573 5.94271 3.9375 5.6875ZM10.0625 5.6875C10.0625 5.94271 9.98047 6.15234 9.81641 6.31641C9.65234 6.48047 9.44271 6.5625 9.1875 6.5625C8.95052 6.5625 8.75 6.48047 8.58594 6.31641C8.42188 6.15234 8.33073 5.94271 8.3125 5.6875C8.33073 5.43229 8.42188 5.22266 8.58594 5.05859C8.75 4.89453 8.95052 4.8125 9.1875 4.8125C9.44271 4.8125 9.65234 4.89453 9.81641 5.05859C9.98047 5.22266 10.0625 5.43229 10.0625 5.6875ZM8.96875 8.96875C9.36979 9.00521 9.58854 9.22396 9.625 9.625C9.58854 10.026 9.36979 10.2448 8.96875 10.2812H5.03125C4.63021 10.2448 4.41146 10.026 4.375 9.625C4.41146 9.22396 4.63021 9.00521 5.03125 8.96875H8.96875ZM14 7C13.9818 8.3125 13.6628 9.48828 13.043 10.5273C12.4232 11.5846 11.5846 12.4232 10.5273 13.043C9.48828 13.6628 8.3125 13.9818 7 14C5.6875 13.9818 4.51172 13.6628 3.47266 13.043C2.41536 12.4232 1.57682 11.5846 0.957031 10.5273C0.33724 9.48828 0.0182292 8.3125 0 7C0.0182292 5.6875 0.33724 4.51172 0.957031 3.47266C1.57682 2.41536 2.41536 1.57682 3.47266 0.957031C4.51172 0.33724 5.6875 0.0182292 7 0C8.3125 0.0182292 9.48828 0.33724 10.5273 0.957031C11.5846 1.57682 12.4232 2.41536 13.043 3.47266C13.6628 4.51172 13.9818 5.6875 14 7ZM7 12.6875C8.60417 12.651 9.94401 12.0951 11.0195 11.0195C12.0951 9.94401 12.651 8.60417 12.6875 7C12.651 5.39583 12.0951 4.05599 11.0195 2.98047C9.94401 1.90495 8.60417 1.34896 7 1.3125C5.39583 1.34896 4.05599 1.90495 2.98047 2.98047C1.90495 4.05599 1.34896 5.39583 1.3125 7C1.34896 8.60417 1.90495 9.94401 2.98047 11.0195C4.05599 12.0951 5.39583 12.651 7 12.6875Z" fill="currentColor"/>
</svg>
