<svg width="14" height="14" viewBox="0 0 14 14" fill="none" xmlns="http://www.w3.org/2000/svg">
<path d="M0 7C0.0182292 5.6875 0.33724 4.51172 0.957031 3.47266C1.57682 2.41536 2.41536 1.57682 3.47266 0.957031C4.51172 0.33724 5.6875 0.0182292 7 0C8.3125 0.0182292 9.48828 0.33724 10.5273 0.957031C11.5846 1.57682 12.4232 2.41536 13.043 3.47266C13.6628 4.51172 13.9818 5.6875 14 7C13.9818 8.3125 13.6628 9.48828 13.043 10.5273C12.4232 11.5846 11.5846 12.4232 10.5273 13.043C9.48828 13.6628 8.3125 13.9818 7 14C5.6875 13.9818 4.51172 13.6628 3.47266 13.043C2.41536 12.4232 1.57682 11.5846 0.957031 10.5273C0.33724 9.48828 0.0182292 8.3125 0 7ZM9.51562 10.8008C9.71615 10.9831 9.92578 10.9922 10.1445 10.8281C10.3268 10.6276 10.3359 10.4271 10.1719 10.2266C9.86198 9.84375 9.44271 9.50651 8.91406 9.21484C8.38542 8.92318 7.7474 8.76823 7 8.75C6.2526 8.76823 5.61458 8.92318 5.08594 9.21484C4.55729 9.50651 4.13802 9.84375 3.82812 10.2266C3.66406 10.4271 3.68229 10.6276 3.88281 10.8281C4.08333 10.9922 4.28385 10.9831 4.48438 10.8008C4.73958 10.4909 5.06771 10.2174 5.46875 9.98047C5.88802 9.76172 6.39844 9.64323 7 9.625C7.58333 9.64323 8.08464 9.76172 8.50391 9.98047C8.92318 10.2174 9.26042 10.4909 9.51562 10.8008ZM4.8125 4.8125C4.57552 4.8125 4.375 4.89453 4.21094 5.05859C4.04688 5.22266 3.95573 5.43229 3.9375 5.6875C3.95573 5.94271 4.04688 6.15234 4.21094 6.31641C4.375 6.48047 4.57552 6.5625 4.8125 6.5625C5.06771 6.5625 5.27734 6.48047 5.44141 6.31641C5.60547 6.15234 5.6875 5.94271 5.6875 5.6875C5.6875 5.43229 5.60547 5.22266 5.44141 5.05859C5.27734 4.89453 5.06771 4.8125 4.8125 4.8125ZM9.1875 6.5625C9.44271 6.5625 9.65234 6.48047 9.81641 6.31641C9.98047 6.15234 10.0625 5.94271 10.0625 5.6875C10.0625 5.43229 9.98047 5.22266 9.81641 5.05859C9.65234 4.89453 9.44271 4.8125 9.1875 4.8125C8.95052 4.8125 8.75 4.89453 8.58594 5.05859C8.42188 5.22266 8.33073 5.43229 8.3125 5.6875C8.33073 5.94271 8.42188 6.15234 8.58594 6.31641C8.75 6.48047 8.95052 6.5625 9.1875 6.5625Z" fill="currentColor"/>
</svg>
