<svg width="14" height="14" viewBox="0 0 14 14" fill="none" xmlns="http://www.w3.org/2000/svg">
<path d="M0 7C0.0182292 5.6875 0.33724 4.51172 0.957031 3.47266C1.57682 2.41536 2.41536 1.57682 3.47266 0.957031C4.51172 0.33724 5.6875 0.0182292 7 0C8.3125 0.0182292 9.48828 0.33724 10.5273 0.957031C11.5846 1.57682 12.4232 2.41536 13.043 3.47266C13.6628 4.51172 13.9818 5.6875 14 7C13.9818 8.3125 13.6628 9.48828 13.043 10.5273C12.4232 11.5846 11.5846 12.4232 10.5273 13.043C9.48828 13.6628 8.3125 13.9818 7 14C5.6875 13.9818 4.51172 13.6628 3.47266 13.043C2.41536 12.4232 1.57682 11.5846 0.957031 10.5273C0.33724 9.48828 0.0182292 8.3125 0 7ZM7 9.07812C5.70573 9.0599 4.51172 8.88672 3.41797 8.55859C3.23568 8.50391 3.08073 8.53125 2.95312 8.64062C2.84375 8.75 2.81641 8.89583 2.87109 9.07812C3.23568 9.89844 3.78255 10.5547 4.51172 11.0469C5.24089 11.5391 6.07031 11.7943 7 11.8125C7.94792 11.7943 8.78646 11.5391 9.51562 11.0469C10.2448 10.5547 10.7826 9.89844 11.1289 9.07812C11.2018 8.89583 11.1745 8.75 11.0469 8.64062C10.9375 8.53125 10.7917 8.50391 10.6094 8.55859C9.51562 8.88672 8.3125 9.0599 7 9.07812ZM5.44141 3.52734C5.20443 3.47266 4.97656 3.5 4.75781 3.60938C4.53906 3.73698 4.39323 3.92839 4.32031 4.18359L4.21094 4.62109L3.74609 4.51172C3.50911 4.4388 3.29036 4.46615 3.08984 4.59375C2.87109 4.70312 2.72526 4.88542 2.65234 5.14062C2.59766 5.39583 2.625 5.6237 2.73438 5.82422C2.86198 6.04297 3.05339 6.1888 3.30859 6.26172L5.08594 6.72656C5.34115 6.78125 5.51432 6.68099 5.60547 6.42578L6.09766 4.62109C6.15234 4.38411 6.125 4.16536 6.01562 3.96484C5.88802 3.74609 5.69661 3.60026 5.44141 3.52734ZM9.67969 4.18359C9.60677 3.92839 9.46094 3.73698 9.24219 3.60938C9.02344 3.5 8.79557 3.47266 8.55859 3.52734C8.30339 3.60026 8.11198 3.74609 7.98438 3.96484C7.875 4.16536 7.84766 4.38411 7.90234 4.62109L8.39453 6.42578C8.48568 6.68099 8.65885 6.78125 8.91406 6.72656L10.6914 6.26172C10.9466 6.1888 11.138 6.04297 11.2656 5.82422C11.375 5.6237 11.4023 5.39583 11.3477 5.14062C11.2747 4.88542 11.1289 4.70312 10.9102 4.59375C10.7096 4.46615 10.4818 4.4388 10.2266 4.51172L9.78906 4.62109L9.67969 4.18359Z" fill="currentColor"/>
</svg>
