<svg width="14" height="14" viewBox="0 0 14 14" fill="none" xmlns="http://www.w3.org/2000/svg">
<path d="M7 9.59766C6.48958 9.61589 6.0612 9.71615 5.71484 9.89844C5.35026 10.099 5.06771 10.3177 4.86719 10.5547C4.55729 10.8281 4.2474 10.8372 3.9375 10.582C3.64583 10.2904 3.6276 9.98047 3.88281 9.65234C4.19271 9.32422 4.60286 9.01432 5.11328 8.72266C5.64193 8.44922 6.27083 8.30339 7 8.28516C7.72917 8.30339 8.35807 8.44922 8.88672 8.72266C9.39714 9.01432 9.80729 9.32422 10.1172 9.65234C10.3542 9.98047 10.3359 10.2904 10.0625 10.582C9.7526 10.8372 9.44271 10.8281 9.13281 10.5547C8.93229 10.3177 8.64974 10.099 8.28516 9.89844C7.9388 9.71615 7.51042 9.61589 7 9.59766ZM5.6875 5.6875C5.6875 5.94271 5.60547 6.15234 5.44141 6.31641C5.27734 6.48047 5.06771 6.5625 4.8125 6.5625C4.57552 6.5625 4.375 6.48047 4.21094 6.31641C4.04688 6.15234 3.95573 5.94271 3.9375 5.6875C3.95573 5.43229 4.04688 5.22266 4.21094 5.05859C4.375 4.89453 4.57552 4.8125 4.8125 4.8125C5.06771 4.8125 5.27734 4.89453 5.44141 5.05859C5.60547 5.22266 5.6875 5.43229 5.6875 5.6875ZM8.3125 5.6875C8.33073 5.43229 8.42188 5.22266 8.58594 5.05859C8.75 4.89453 8.95052 4.8125 9.1875 4.8125C9.44271 4.8125 9.65234 4.89453 9.81641 5.05859C9.98047 5.22266 10.0625 5.43229 10.0625 5.6875C10.0625 5.94271 9.98047 6.15234 9.81641 6.31641C9.65234 6.48047 9.44271 6.5625 9.1875 6.5625C8.95052 6.5625 8.75 6.48047 8.58594 6.31641C8.42188 6.15234 8.33073 5.94271 8.3125 5.6875ZM14 7C13.9818 8.3125 13.6628 9.48828 13.043 10.5273C12.4232 11.5846 11.5846 12.4232 10.5273 13.043C9.48828 13.6628 8.3125 13.9818 7 14C5.6875 13.9818 4.51172 13.6628 3.47266 13.043C2.41536 12.4232 1.57682 11.5846 0.957031 10.5273C0.33724 9.48828 0.0182292 8.3125 0 7C0.0182292 5.6875 0.33724 4.51172 0.957031 3.47266C1.57682 2.41536 2.41536 1.57682 3.47266 0.957031C4.51172 0.33724 5.6875 0.0182292 7 0C8.3125 0.0182292 9.48828 0.33724 10.5273 0.957031C11.5846 1.57682 12.4232 2.41536 13.043 3.47266C13.6628 4.51172 13.9818 5.6875 14 7ZM7 1.3125C5.39583 1.34896 4.05599 1.90495 2.98047 2.98047C1.90495 4.05599 1.34896 5.39583 1.3125 7C1.34896 8.60417 1.90495 9.94401 2.98047 11.0195C4.05599 12.0951 5.39583 12.651 7 12.6875C8.60417 12.651 9.94401 12.0951 11.0195 11.0195C12.0951 9.94401 12.651 8.60417 12.6875 7C12.651 5.39583 12.0951 4.05599 11.0195 2.98047C9.94401 1.90495 8.60417 1.34896 7 1.3125Z" fill="currentColor"/>
</svg>
