<svg width="14" height="14" viewBox="0 0 14 14" fill="none" xmlns="http://www.w3.org/2000/svg">
<g id="Go Back_icon">
<path id="Icon" d="M8.24609 4.12891C7.89062 3.80078 7.89062 3.22656 8.24609 2.89844C8.57422 2.54297 9.14844 2.54297 9.47656 2.89844L12.9766 6.39844C13.332 6.72656 13.332 7.30078 12.9766 7.62891L9.47656 11.1289C9.14844 11.4844 8.57422 11.4844 8.24609 11.1289C8.08203 10.9648 8 10.7461 8 10.5C8 10.2812 8.08203 10.0625 8.24609 9.89844L10.2422 7.875H5.375C4.88281 7.875 4.5 7.49219 4.5 7C4.5 6.53516 4.88281 6.125 5.375 6.125H10.2422L8.24609 4.12891ZM2.75 11.375C2.75 11.8672 2.33984 12.25 1.875 12.25C1.38281 12.25 1 11.8672 1 11.375V2.625C1 2.16016 1.38281 1.75 1.875 1.75C2.33984 1.75 2.75 2.16016 2.75 2.625V11.375Z" fill="currentColor"/>
</g>
</svg>
