<svg width="14" height="14" viewBox="0 0 14 14" fill="none" xmlns="http://www.w3.org/2000/svg">
<g id="HACCP Add_icon">
<path id="Icon" fill-rule="evenodd" clip-rule="evenodd" d="M13.492 9.33672C13.9842 9.20011 14.1756 8.57172 13.7928 8.21654L12.535 6.98707L13.7928 5.7576C14.1756 5.40242 13.9842 4.77403 13.492 4.66474L11.7967 4.2276L12.2616 2.53366C12.3983 2.04187 11.9608 1.57741 11.4686 1.71402L9.77329 2.2058L9.33579 0.484549C9.22641 0.0200831 8.57016 -0.171168 8.21469 0.211334L7.01157 1.46812L5.7811 0.211334C5.42563 -0.171168 4.79673 -0.00723842 4.66001 0.484549L4.22251 2.2058L2.52719 1.71402C2.03501 1.57741 1.59751 2.04187 1.73423 2.53366L2.19907 4.2276L0.503757 4.66474C0.011569 4.77403 -0.179837 5.40242 0.202975 5.7576L1.46079 6.98707L0.202975 8.21654C-0.179837 8.57172 0.011569 9.20011 0.503757 9.33672L2.19907 9.77386L1.73423 11.4678C1.59751 11.9596 2.03501 12.3967 2.52719 12.2601L4.22251 11.7957L4.66001 13.4896C4.79673 14.0087 5.42563 14.1453 5.7811 13.7901L7.01157 12.5333L8.21469 13.7901C8.57016 14.1726 9.19907 14.0087 9.33579 13.4896L9.77329 11.7957L11.4686 12.2601C11.9608 12.3967 12.3983 11.9596 12.2616 11.4678L11.7967 9.77386L13.492 9.33672ZM10.067 7.03352C10.067 6.57849 9.68784 6.23722 9.27073 6.23722H7.7919V4.75838C7.7919 4.34127 7.45063 4 7.03352 4H6.9956C6.57849 4 6.23722 4.34127 6.23722 4.75838V6.23722H4.75838C4.34127 6.23722 4 6.57849 4 7.03352C4 7.45062 4.34127 7.79189 4.75838 7.79189H6.23722V9.27073C6.23722 9.68784 6.57849 10.0291 6.9956 10.0291H7.03352C7.45063 10.0291 7.7919 9.68784 7.7919 9.27073V7.79189H9.27073C9.68784 7.79189 10.067 7.45062 10.067 7.03352Z" fill="currentColor"/>
</g>
</svg>
