<svg width="14" height="14" viewBox="0 0 14 14" fill="none" xmlns="http://www.w3.org/2000/svg">
<g id="HACCP_icon">
<path id="Icon" d="M13.7928 8.21654C14.1756 8.57172 13.9842 9.20011 13.492 9.33672L11.7967 9.77386L12.2616 11.4678C12.3983 11.9596 11.9608 12.3967 11.4686 12.2601L9.77329 11.7957L9.33579 13.4896C9.19907 14.0087 8.57016 14.1726 8.21469 13.7901L7.01157 12.5333L5.7811 13.7901C5.42563 14.1453 4.79673 14.0087 4.66001 13.4896L4.22251 11.7957L2.52719 12.2601C2.03501 12.3967 1.59751 11.9596 1.73423 11.4678L2.19907 9.77386L0.503757 9.33672C0.011569 9.20011 -0.179837 8.57172 0.202975 8.21654L1.46079 6.98707L0.202975 5.7576C-0.179837 5.40242 0.011569 4.77403 0.503757 4.66474L2.19907 4.2276L1.73423 2.53366C1.59751 2.04187 2.03501 1.57741 2.52719 1.71402L4.22251 2.2058L4.66001 0.484549C4.79673 -0.00723843 5.42563 -0.171168 5.7811 0.211334L7.01157 1.46812L8.21469 0.211334C8.57016 -0.171168 9.22641 0.0200831 9.33579 0.484549L9.77329 2.2058L11.4686 1.71402C11.9608 1.57741 12.3983 2.04187 12.2616 2.53366L11.7967 4.2276L13.492 4.66474C13.9842 4.77403 14.1756 5.40242 13.7928 5.7576L12.535 6.98707L13.7928 8.21654Z" fill="currentColor"/>
</g>
</svg>
