<svg width="14" height="14" viewBox="0 0 14 14" fill="none" xmlns="http://www.w3.org/2000/svg">
<g id="Heading_icon">
<path id="Icon" d="M13 12.1429C13 12.625 12.5982 13 12.1429 13H9.57143C9.08929 13 8.71429 12.625 8.71429 12.1429C8.71429 11.6875 9.08929 11.2857 9.57143 11.2857V7.85714H4.42857V11.2857C4.88393 11.2857 5.28571 11.6875 5.28571 12.1429C5.28571 12.625 4.88393 13 4.42857 13H1.85714C1.375 13 1 12.625 1 12.1429C1 11.6875 1.375 11.2857 1.85714 11.2857V2.71429C1.375 2.71429 1 2.33929 1 1.85714C1 1.40179 1.375 1 1.85714 1H4.42857C4.88393 1 5.28571 1.40179 5.28571 1.85714C5.28571 2.33929 4.88393 2.71429 4.42857 2.71429V5.28571H9.57143V2.71429C9.08929 2.71429 8.71429 2.33929 8.71429 1.85714C8.71429 1.40179 9.08929 1 9.57143 1H12.1429C12.5982 1 13 1.40179 13 1.85714C13 2.33929 12.5982 2.71429 12.1429 2.71429V11.2857C12.5982 11.2857 13 11.6875 13 12.1429Z" fill="currentColor"/>
</g>
</svg>
