<svg width="14" height="14" viewBox="0 0 14 14" fill="none" xmlns="http://www.w3.org/2000/svg">
<path d="M13.9902 7.25013C13.9902 7.68839 13.6494 8.02926 13.2111 8.02926H12.432V11.9249C12.432 12.8014 11.7502 13.4832 10.8737 13.4832H3.10676C2.23023 13.4832 1.5485 12.8014 1.5485 11.9249V8.02926H0.769365C0.331104 8.02926 -0.00976562 7.68839 -0.00976562 7.25013C-0.00976562 7.031 0.0632779 6.83622 0.233713 6.66579L6.46676 1.21187C6.63719 1.06579 6.83197 1.01709 6.97806 1.01709C7.17284 1.01709 7.36763 1.09013 7.51371 1.21187L13.7468 6.66579C13.9172 6.83622 13.9902 7.031 13.9902 7.25013Z" fill="currentColor"/>
</svg>
