<svg width="14" height="14" viewBox="0 0 14 14" fill="none" xmlns="http://www.w3.org/2000/svg">
<g id="Image_icon">
<path id="Icon" d="M12.25 1C13.207 1 14 1.79297 14 2.75V11.5C14 12.4844 13.207 13.25 12.25 13.25H1.75C0.765625 13.25 0 12.4844 0 11.5V2.75C0 1.79297 0.765625 1 1.75 1H12.25ZM3.0625 2.75C2.32422 2.75 1.75 3.35156 1.75 4.0625C1.75 4.80078 2.32422 5.375 3.0625 5.375C3.77344 5.375 4.375 4.80078 4.375 4.0625C4.375 3.35156 3.77344 2.75 3.0625 2.75ZM12.1953 11.2812C12.25 11.1445 12.25 10.9805 12.168 10.8438L8.66797 5.59375C8.58594 5.45703 8.44922 5.375 8.3125 5.375C8.14844 5.375 8.01172 5.45703 7.92969 5.59375L5.38672 9.42188L4.48438 8.19141C4.40234 8.08203 4.29297 8 4.15625 8C3.99219 8 3.88281 8.08203 3.80078 8.19141L1.88672 10.8164C1.77734 10.9531 1.77734 11.1172 1.83203 11.2812C1.91406 11.418 2.05078 11.5 2.24219 11.5H11.8125C11.9492 11.5 12.1133 11.418 12.1953 11.2812Z" fill="currentColor"/>
</g>
</svg>
