<svg width="14" height="14" viewBox="0 0 14 14" fill="none" xmlns="http://www.w3.org/2000/svg">
<g id="Inbound_icon">
<path id="Icon" d="M7 0C5.91146 0 4.98438 0.730078 4.64323 1.75H3.66667C2.7474 1.75 2 2.53477 2 3.5V12.25C2 13.2152 2.7474 14 3.66667 14H10.3333C11.2526 14 12 13.2152 12 12.25V3.5C12 2.53477 11.2526 1.75 10.3333 1.75H9.35677C9.01562 0.730078 8.08854 0 7 0ZM7 1.75C7.22101 1.75 7.43297 1.84219 7.58926 2.00628C7.74554 2.17038 7.83333 2.39294 7.83333 2.625C7.83333 2.85706 7.74554 3.07962 7.58926 3.24372C7.43297 3.40781 7.22101 3.5 7 3.5C6.77899 3.5 6.56702 3.40781 6.41074 3.24372C6.25446 3.07962 6.16667 2.85706 6.16667 2.625C6.16667 2.39294 6.25446 2.17038 6.41074 2.00628C6.56702 1.84219 6.77899 1.75 7 1.75ZM4.91667 5.25H9.08333C9.3125 5.25 9.5 5.44688 9.5 5.6875C9.5 5.92812 9.3125 6.125 9.08333 6.125H4.91667C4.6875 6.125 4.5 5.92812 4.5 5.6875C4.5 5.44688 4.6875 5.25 4.91667 5.25Z" fill="currentColor"/>
</g>
</svg>
