<svg width="14" height="14" viewBox="0 0 14 14" fill="none" xmlns="http://www.w3.org/2000/svg">
<g id="Ingredient_icon" clip-path="url(#clip0_4169_353212)">
<path id="Icon" d="M8.14626 4.28822C9.81238 5.10763 10.5225 7.15614 9.70313 8.82226C9.34805 9.53242 8.80178 10.0787 8.14626 10.3791L5.36028 11.7448L3.80341 10.1879C3.63953 10.0241 3.33908 10.0241 3.1752 10.1879C3.01131 10.3518 3.01131 10.6523 3.1752 10.8162L4.51356 12.1545L0.880861 13.9299C0.580412 14.0938 0.198023 13.9572 0.0614554 13.6568C-0.0204851 13.4929 -0.0204851 13.2744 0.0614554 13.1105L3.55759 5.95435L4.92326 7.32002C5.0052 7.40196 5.11446 7.42928 5.22371 7.42928C5.33296 7.42928 5.46953 7.40196 5.55147 7.32002C5.71535 7.15614 5.71535 6.85569 5.55147 6.69181L4.02191 5.18957C5.0052 4.01509 6.69864 3.57807 8.14626 4.28822ZM10.6591 3.33225C11.7516 2.81329 13.09 3.08643 13.9913 4.17897C12.8442 5.54464 11.0415 5.59927 9.83969 4.37016L9.62119 4.15165C8.39208 2.94986 8.4467 1.14717 9.81238 0C10.9049 0.901346 11.1781 2.23971 10.6591 3.33225Z" fill="currentColor"/>
</g>
<defs>
<clipPath id="clip0_4169_353212">
<rect width="14" height="14" fill="white"/>
</clipPath>
</defs>
</svg>
