<svg width="14" height="14" viewBox="0 0 14 14" fill="none" xmlns="http://www.w3.org/2000/svg">
<g id="Insights_icon">
<path id="Icon" d="M14 2C14 0.896875 13.1031 0 12 0H2C0.896875 0 0 0.896875 0 2V12C0 13.1031 0.896875 14 2 14H12C13.1031 14 14 13.1031 14 12V2ZM8 4C8 4.55312 7.55312 5 7 5H4C3.44688 5 3 4.55312 3 4C3 3.44688 3.44688 3 4 3H7C7.55312 3 8 3.44688 8 4ZM10 6C10.5531 6 11 6.44688 11 7C11 7.55312 10.5531 8 10 8H4C3.44688 8 3 7.55312 3 7C3 6.44688 3.44688 6 4 6H10ZM6 10C6 10.5531 5.55312 11 5 11H4C3.44688 11 3 10.5531 3 10C3 9.44687 3.44688 9 4 9H5C5.55312 9 6 9.44687 6 10Z" fill="currentColor"/>
</g>
</svg>
