<svg width="14" height="14" viewBox="0 0 14 14" fill="none" xmlns="http://www.w3.org/2000/svg">
<g id="Inventory_icon">
<path id="Icon" d="M13.3 1C13.6719 1 14 1.32812 14 1.7V12.2H12.6V11.5H1.4V12.2H0V1.7C0 1.32812 0.30625 1 0.7 1C1.07187 1 1.4 1.32812 1.4 1.7V4.5H12.6V1.7C12.6 1.32812 12.9062 1 13.3 1ZM12.6 10.1V5.9H1.4V10.1H12.6ZM8.05 3.8C7.85313 3.8 7.7 3.64688 7.7 3.45V1.35C7.7 1.175 7.85313 1 8.05 1H10.15C10.325 1 10.5 1.175 10.5 1.35V3.45C10.5 3.64688 10.325 3.8 10.15 3.8H8.05ZM2.45 9.4C2.25312 9.4 2.1 9.24687 2.1 9.05V6.95C2.1 6.775 2.25312 6.6 2.45 6.6H4.55C4.725 6.6 4.9 6.775 4.9 6.95V9.05C4.9 9.24687 4.725 9.4 4.55 9.4H2.45ZM5.95 9.4C5.75313 9.4 5.6 9.24687 5.6 9.05V6.95C5.6 6.775 5.75313 6.6 5.95 6.6H8.05C8.225 6.6 8.4 6.775 8.4 6.95V9.05C8.4 9.24687 8.225 9.4 8.05 9.4H5.95Z" fill="currentColor"/>
</g>
</svg>
