<svg width="14" height="14" viewBox="0 0 14 14" fill="none" xmlns="http://www.w3.org/2000/svg">
<g id="Italic_icon">
<path id="Icon" d="M12 2.07143C12 2.6875 11.5312 3.14286 10.9583 3.14286H9.65625L6.58333 10.8571H7.625C8.19792 10.8571 8.66667 11.3393 8.66667 11.9286C8.66667 12.5446 8.19792 13 7.625 13H3.04167C2.44271 13 2 12.5446 2 11.9286C2 11.3393 2.44271 10.8571 3.04167 10.8571H4.31771L7.39062 3.14286H6.375C5.77604 3.14286 5.33333 2.6875 5.33333 2.07143C5.33333 1.48214 5.77604 1 6.375 1H10.9583C11.5312 1 12 1.48214 12 2.07143Z" fill="currentColor"/>
</g>
</svg>
