<svg width="14" height="14" viewBox="0 0 14 14" fill="none" xmlns="http://www.w3.org/2000/svg">
<g id="Kitchen_icon">
<path id="Icon" d="M0.805 5.625H13.195C13.6391 5.625 14 5.27051 14 4.83437C14 4.67754 13.9519 4.525 13.8644 4.39609L12.2106 1.95977C12.0159 1.67188 11.69 1.5 11.3378 1.5H2.66219C2.31219 1.5 1.98406 1.67188 1.78938 1.95977L0.135625 4.39395C0.048125 4.525 0 4.67754 0 4.83223C0 5.27051 0.360938 5.625 0.805 5.625ZM1.4 6.3125V9.75V11.4688C1.4 12.0381 1.87031 12.5 2.45 12.5H7.35C7.92969 12.5 8.4 12.0381 8.4 11.4688V9.75V6.3125H7V9.75H2.8V6.3125H1.4ZM11.2 6.3125V11.8125C11.2 12.1928 11.5128 12.5 11.9 12.5C12.2872 12.5 12.6 12.1928 12.6 11.8125V6.3125H11.2Z" fill="currentColor"/>
</g>
</svg>
