<svg xmlns="http://www.w3.org/2000/svg" width="16" height="14" viewBox="0 0 16 14" fill="none">
    <path
        d="M14.9721 1.56641C15.6481 2.25195 15.9987 3.11523 15.9987 4.0293C16.0237 4.96875 15.6982 5.9082 14.9721 6.64453L11.6422 10.0215C10.9412 10.7324 10.0398 11.0625 9.13852 11.0625C8.23718 11.0625 7.33585 10.7324 6.63481 10.0215C5.48311 8.85352 5.30785 7.07617 6.084 5.70508C6.28429 5.50195 6.5597 5.375 6.86015 5.375C7.16059 5.375 7.46103 5.50195 7.66133 5.73047C7.73644 5.80664 7.81155 5.9082 7.86163 6.00977L7.76148 6.08594C7.41096 6.4668 7.21066 6.94922 7.21066 7.48242C7.21066 8.01562 7.41096 8.49805 7.76148 8.87891C8.13703 9.23438 8.61274 9.4375 9.13852 9.4375C9.66429 9.4375 10.14 9.23438 10.5156 8.87891L13.8455 5.50195C14.196 5.12109 14.4213 4.63867 14.4213 4.10547C14.4213 3.57227 14.196 3.08984 13.8455 2.70898C13.4699 2.35352 12.9942 2.125 12.4684 2.125C11.9427 2.125 11.467 2.35352 11.0914 2.70898L10.14 3.67383C10.0899 3.59766 10.0148 3.49609 9.9397 3.41992C9.61422 3.11523 9.2637 2.86133 8.88814 2.6582L9.96474 1.56641C10.6658 0.855469 11.5671 0.5 12.4684 0.5C13.3698 0.5 14.2711 0.855469 14.9721 1.56641ZM5.85866 10.3516C5.90874 10.4277 5.98385 10.5293 6.05896 10.6055C6.38444 10.9102 6.73496 11.1641 7.11052 11.3672L6.03392 12.459C5.33289 13.1699 4.43155 13.5 3.53022 13.5C2.62889 13.5 1.72755 13.1699 1.02652 12.459C0.325481 11.748 0 10.834 0 9.91992C0 9.00586 0.325481 8.0918 1.02652 7.38086L4.35644 4.00391C5.05748 3.29297 5.95881 2.9375 6.86015 2.9375C7.76148 2.9375 8.66281 3.29297 9.36385 4.00391C10.5156 5.17188 10.6908 6.94922 9.91466 8.32031C9.71437 8.52344 9.43896 8.625 9.13852 8.625C8.83807 8.625 8.53763 8.52344 8.33733 8.29492C8.26222 8.21875 8.18711 8.11719 8.13703 8.01562L8.23718 7.93945C8.5877 7.55859 8.81303 7.07617 8.81303 6.54297C8.81303 6.00977 8.5877 5.52734 8.23718 5.14648C7.86163 4.79102 7.38592 4.5625 6.86015 4.5625C6.33437 4.5625 5.85866 4.79102 5.48311 5.14648L2.15318 8.52344C1.80267 8.9043 1.57733 9.38672 1.57733 9.91992C1.57733 10.4531 1.80267 10.9355 2.15318 11.3164C2.52874 11.6719 3.00444 11.875 3.53022 11.875C4.056 11.875 4.5317 11.6719 4.90726 11.3164L5.85866 10.3516Z"
        fill="currentColor"/>
</svg>
