<svg width="14" height="15" viewBox="0 0 14 15" fill="none" xmlns="http://www.w3.org/2000/svg">
<g id="Lock_icon">
<path id="Icon" d="M11.375 6.875C12.332 6.875 13.125 7.66797 13.125 8.625V13C13.125 13.9844 12.332 14.75 11.375 14.75H2.625C1.64062 14.75 0.875 13.9844 0.875 13V8.625C0.875 7.66797 1.64062 6.875 2.625 6.875H3.0625V4.6875C3.0625 2.52734 4.8125 0.75 7 0.75C9.16016 0.75 10.9375 2.52734 10.9375 4.6875V6.875H11.375ZM4.8125 4.6875V6.875H9.1875V4.6875C9.1875 3.48438 8.20312 2.5 7 2.5C5.76953 2.5 4.8125 3.48438 4.8125 4.6875Z" fill="currentColor"/>
</g>
</svg>
