<svg width="88" height="88" viewBox="0 0 88 88" fill="none" xmlns="http://www.w3.org/2000/svg">
<mask id="path-1-inside-1_6594_520123" fill="white">
<path d="M3.58785 27.427C3.12512 23.6583 5.8051 20.2281 9.57375 19.7654L57.34 13.9004C61.1087 13.4377 64.5389 16.1176 65.0016 19.8863L70.8666 67.6526C71.3293 71.4212 68.6494 74.8515 64.8807 75.3142L17.1144 81.1792C13.3458 81.6419 9.91555 78.9619 9.45281 75.1932L3.58785 27.427Z"/>
</mask>
<path d="M3.58785 27.427C3.12512 23.6583 5.8051 20.2281 9.57375 19.7654L57.34 13.9004C61.1087 13.4377 64.5389 16.1176 65.0016 19.8863L70.8666 67.6526C71.3293 71.4212 68.6494 74.8515 64.8807 75.3142L17.1144 81.1792C13.3458 81.6419 9.91555 78.9619 9.45281 75.1932L3.58785 27.427Z" fill="url(#paint0_linear_6594_520123)"/>
<path d="M3.58785 27.427C3.07885 23.2814 6.02682 19.5082 10.1723 18.9992L56.5739 13.3018C60.7194 12.7928 64.4926 15.7408 65.0016 19.8863C64.5852 16.4945 61.1925 14.12 57.4238 14.5828L9.65754 20.4477C5.88888 20.9105 3.17139 24.0352 3.58785 27.427ZM71.7045 74.4763L10.2907 82.017L71.7045 74.4763ZM10.2907 82.017L2.75 20.6032L10.2907 82.017ZM64.1638 13.0625L71.7045 74.4763L64.1638 13.0625Z" fill="white" fill-opacity="0.32" mask="url(#path-1-inside-1_6594_520123)"/>
<rect x="10.7947" y="26.8884" width="47.4375" height="47.4375" rx="5.15625" transform="rotate(-7 10.7947 26.8884)" fill="url(#paint1_linear_6594_520123)" stroke="url(#paint2_linear_6594_520123)" stroke-width="0.6875"/>
<g clip-path="url(#clip0_6594_520123)">
<path d="M48.2893 34.2084C49.6446 34.042 50.9322 35.0479 51.0986 36.4032L53.3515 54.7515C53.5243 56.1589 52.5119 57.3944 51.1566 57.5608L26.1362 60.6329C24.7288 60.8057 23.4998 59.8455 23.3269 58.4381L21.0741 40.0898C20.9077 38.7345 21.8615 37.4533 23.2689 37.2805L48.2893 34.2084ZM29.5894 54.2828L28.1558 42.6066C28.1046 42.1896 27.6364 41.8238 27.2194 41.875L25.5513 42.0798C25.0822 42.1374 24.7685 42.5992 24.8197 43.0162L26.2534 54.6924C26.311 55.1615 26.7207 55.4816 27.1898 55.424L28.8578 55.2192C29.2748 55.168 29.647 54.7519 29.5894 54.2828ZM32.9255 53.8732L31.4918 42.197C31.4406 41.78 30.9724 41.4141 30.5554 41.4653C30.0863 41.523 29.7726 41.9848 29.8238 42.4018L31.2575 54.078C31.3151 54.5471 31.7248 54.8672 32.1939 54.8096C32.6109 54.7584 32.9831 54.3423 32.9255 53.8732ZM36.2616 53.4635L34.8279 41.7873C34.7767 41.3703 34.3085 41.0045 33.8915 41.0557C33.4224 41.1133 33.1087 41.5751 33.1599 41.9922L34.5935 53.6684C34.6511 54.1375 35.0608 54.4576 35.53 54.4C35.947 54.3488 36.3192 53.9327 36.2616 53.4635ZM42.9337 52.6443L41.5 40.9681C41.4488 40.5511 40.9806 40.1853 40.5636 40.2365L38.8956 40.4413C38.4264 40.4989 38.1128 40.9607 38.164 41.3777L39.5976 53.0539C39.6552 53.5231 40.0649 53.8431 40.534 53.7855L42.2021 53.5807C42.6191 53.5295 42.9913 53.1134 42.9337 52.6443ZM49.6058 51.8251L48.1721 40.1489C48.1209 39.7319 47.6527 39.3661 47.2357 39.4173L45.5677 39.6221C45.0986 39.6797 44.7849 40.1415 44.8361 40.5585L46.2697 52.2347C46.3273 52.7038 46.737 53.0239 47.2062 52.9663L48.8742 52.7615C49.2912 52.7103 49.6634 52.2942 49.6058 51.8251Z" fill="#669AB3"/>
</g>
<mask id="mask0_6594_520123" style="mask-type:alpha" maskUnits="userSpaceOnUse" x="3" y="13" width="68" height="69">
<mask id="path-5-inside-2_6594_520123" fill="white">
<path d="M3.58785 27.427C3.12512 23.6583 5.8051 20.2281 9.57375 19.7654L57.34 13.9004C61.1087 13.4377 64.5389 16.1176 65.0016 19.8863L70.8666 67.6526C71.3293 71.4212 68.6494 74.8515 64.8807 75.3142L17.1144 81.1792C13.3458 81.6419 9.91555 78.9619 9.45281 75.1932L3.58785 27.427Z"/>
</mask>
<path d="M3.58785 27.427C3.12512 23.6583 5.8051 20.2281 9.57375 19.7654L57.34 13.9004C61.1087 13.4377 64.5389 16.1176 65.0016 19.8863L70.8666 67.6526C71.3293 71.4212 68.6494 74.8515 64.8807 75.3142L17.1144 81.1792C13.3458 81.6419 9.91555 78.9619 9.45281 75.1932L3.58785 27.427Z" fill="url(#paint3_linear_6594_520123)"/>
<path d="M3.58785 27.427C3.07885 23.2814 6.02682 19.5082 10.1723 18.9992L56.5739 13.3018C60.7194 12.7928 64.4926 15.7408 65.0016 19.8863C64.5852 16.4945 61.1925 14.12 57.4238 14.5828L9.65754 20.4477C5.88888 20.9105 3.17139 24.0352 3.58785 27.427ZM71.7045 74.4763L10.2907 82.017L71.7045 74.4763ZM10.2907 82.017L2.75 20.6032L10.2907 82.017ZM64.1638 13.0625L71.7045 74.4763L64.1638 13.0625Z" fill="white" fill-opacity="0.32" mask="url(#path-5-inside-2_6594_520123)"/>
</mask>
<g mask="url(#mask0_6594_520123)">
<path d="M16.9459 62.321L65.0874 70.6497L72.9772 74.3522L6.28967 81.571L16.9459 62.321Z" fill="url(#paint4_linear_6594_520123)"/>
</g>
<mask id="path-8-inside-3_6594_520123" fill="white">
<path d="M22.6176 13.0113C23.0803 9.24266 26.5105 6.56268 30.2792 7.02541L78.0455 12.8904C81.8141 13.3531 84.4941 16.7833 84.0314 20.552L78.1664 68.3183C77.7037 72.0869 74.2735 74.7669 70.5048 74.3042L22.7385 68.4392C18.9699 67.9765 16.2899 64.5463 16.7526 60.7776L22.6176 13.0113Z"/>
</mask>
<path d="M22.6176 13.0113C23.0803 9.24266 26.5105 6.56268 30.2792 7.02541L78.0455 12.8904C81.8141 13.3531 84.4941 16.7833 84.0314 20.552L78.1664 68.3183C77.7037 72.0869 74.2735 74.7669 70.5048 74.3042L22.7385 68.4392C18.9699 67.9765 16.2899 64.5463 16.7526 60.7776L22.6176 13.0113Z" fill="url(#paint5_linear_6594_520123)"/>
<path d="M22.6176 13.0113C23.1266 8.86579 26.8998 5.91782 31.0454 6.42682L77.4469 12.1242C81.5924 12.6332 84.5404 16.4065 84.0314 20.552C84.4478 17.1602 81.7304 14.0355 77.9617 13.5728L30.1954 7.70779C26.4268 7.24506 23.0341 9.61953 22.6176 13.0113ZM77.3286 75.142L15.9148 67.6014L77.3286 75.142ZM15.9148 67.6014L23.4554 6.18756L15.9148 67.6014ZM84.8692 13.7282L77.3286 75.142L84.8692 13.7282Z" fill="white" fill-opacity="0.32" mask="url(#path-8-inside-3_6594_520123)"/>
<rect x="29.7406" y="14.2323" width="47.4375" height="47.4375" rx="5.15625" transform="rotate(7 29.7406 14.2323)" fill="url(#paint6_linear_6594_520123)" stroke="url(#paint7_linear_6594_520123)" stroke-width="0.6875"/>
<g clip-path="url(#clip1_6594_520123)">
<path d="M64.3504 30.4055C65.7056 30.5719 66.7116 31.8595 66.5452 33.2148L64.2923 51.5631C64.1195 52.9705 62.8383 53.9243 61.483 53.7579L36.4626 50.6858C35.0552 50.513 34.095 49.2839 34.2678 47.8765L36.5207 29.5282C36.6871 28.173 37.9225 27.1606 39.3299 27.3334L64.3504 30.4055ZM41.3495 45.3597L42.7832 33.6835C42.8344 33.2665 42.4686 32.7983 42.0516 32.7471L40.3835 32.5423C39.9144 32.4847 39.4983 32.8569 39.4471 33.2739L38.0135 44.9501C37.9559 45.4192 38.2759 45.8289 38.7451 45.8865L40.4131 46.0913C40.8301 46.1425 41.2919 45.8289 41.3495 45.3597ZM44.6856 45.7693L46.1192 34.0931C46.1704 33.6761 45.8046 33.2079 45.3876 33.1567C44.9185 33.0991 44.5024 33.4713 44.4512 33.8883L43.0175 45.5645C42.9599 46.0337 43.28 46.4433 43.7491 46.5009C44.1662 46.5521 44.628 46.2385 44.6856 45.7693ZM48.0216 46.179L49.4553 34.5028C49.5065 34.0857 49.1407 33.6175 48.7237 33.5663C48.2545 33.5087 47.8385 33.8809 47.7873 34.2979L46.3536 45.9741C46.296 46.4433 46.6161 46.853 47.0852 46.9106C47.5022 46.9618 47.964 46.6481 48.0216 46.179ZM54.6937 46.9982L56.1274 35.322C56.1786 34.905 55.8128 34.4368 55.3958 34.3856L53.7278 34.1808C53.2586 34.1232 52.8425 34.4954 52.7913 34.9124L51.3577 46.5886C51.3001 47.0577 51.6202 47.4674 52.0893 47.525L53.7573 47.7298C54.1743 47.781 54.6361 47.4673 54.6937 46.9982ZM61.3659 47.8174L62.7995 36.1412C62.8507 35.7242 62.4849 35.256 62.0679 35.2048L60.3999 35C59.9307 34.9424 59.5147 35.3146 59.4635 35.7316L58.0298 47.4078C57.9722 47.8769 58.2923 48.2866 58.7614 48.3442L60.4294 48.549C60.8464 48.6002 61.3083 48.2866 61.3659 47.8174Z" fill="#669AB3"/>
</g>
<defs>
<linearGradient id="paint0_linear_6594_520123" x1="33.4569" y1="16.8329" x2="40.9976" y2="78.2467" gradientUnits="userSpaceOnUse">
<stop stop-color="#E6EEF2"/>
<stop offset="1" stop-color="#99BBCD"/>
</linearGradient>
<linearGradient id="paint1_linear_6594_520123" x1="34.4741" y1="26.5891" x2="34.4741" y2="74.7141" gradientUnits="userSpaceOnUse">
<stop stop-color="white" stop-opacity="0.24"/>
<stop offset="1" stop-color="white" stop-opacity="0.08"/>
</linearGradient>
<linearGradient id="paint2_linear_6594_520123" x1="34.4741" y1="26.5891" x2="34.4741" y2="74.7141" gradientUnits="userSpaceOnUse">
<stop stop-color="white" stop-opacity="0.6"/>
<stop offset="1" stop-color="white" stop-opacity="0.1"/>
</linearGradient>
<linearGradient id="paint3_linear_6594_520123" x1="33.4569" y1="16.8329" x2="40.9976" y2="78.2467" gradientUnits="userSpaceOnUse">
<stop stop-color="#E6EEF2"/>
<stop offset="1" stop-color="#99BBCD"/>
</linearGradient>
<linearGradient id="paint4_linear_6594_520123" x1="44.9237" y1="48.4129" x2="39.7365" y2="82.1424" gradientUnits="userSpaceOnUse">
<stop offset="0.355" stop-color="#33789A" stop-opacity="0.64"/>
<stop offset="1" stop-color="#33789A" stop-opacity="0.08"/>
</linearGradient>
<linearGradient id="paint5_linear_6594_520123" x1="54.1623" y1="9.95789" x2="46.6217" y2="71.3717" gradientUnits="userSpaceOnUse">
<stop stop-color="#E6EEF2"/>
<stop offset="1" stop-color="#99BBCD"/>
</linearGradient>
<linearGradient id="paint6_linear_6594_520123" x1="53.5038" y1="13.8492" x2="53.5038" y2="61.9742" gradientUnits="userSpaceOnUse">
<stop stop-color="white" stop-opacity="0.24"/>
<stop offset="1" stop-color="white" stop-opacity="0.08"/>
</linearGradient>
<linearGradient id="paint7_linear_6594_520123" x1="53.5038" y1="13.8492" x2="53.5038" y2="61.9742" gradientUnits="userSpaceOnUse">
<stop stop-color="white" stop-opacity="0.6"/>
<stop offset="1" stop-color="white" stop-opacity="0.1"/>
</linearGradient>
<clipPath id="clip0_6594_520123">
<rect width="30.25" height="30.25" fill="white" transform="translate(20.3718 34.3708) rotate(-7)"/>
</clipPath>
<clipPath id="clip1_6594_520123">
<rect width="30.25" height="30.25" fill="white" transform="translate(37.2229 23.8093) rotate(7)"/>
</clipPath>
</defs>
</svg>
