<svg width="88" height="88" viewBox="0 0 88 88" fill="none" xmlns="http://www.w3.org/2000/svg">
<mask id="path-1-inside-1_6594_520159" fill="white">
<path d="M3.58785 27.4269C3.12512 23.6582 5.8051 20.228 9.57375 19.7653L57.34 13.9003C61.1087 13.4376 64.5389 16.1176 65.0016 19.8862L70.8666 67.6525C71.3293 71.4212 68.6494 74.8514 64.8807 75.3141L17.1144 81.1791C13.3458 81.6418 9.91555 78.9618 9.45281 75.1932L3.58785 27.4269Z"/>
</mask>
<path d="M3.58785 27.4269C3.12512 23.6582 5.8051 20.228 9.57375 19.7653L57.34 13.9003C61.1087 13.4376 64.5389 16.1176 65.0016 19.8862L70.8666 67.6525C71.3293 71.4212 68.6494 74.8514 64.8807 75.3141L17.1144 81.1791C13.3458 81.6418 9.91555 78.9618 9.45281 75.1932L3.58785 27.4269Z" fill="url(#paint0_linear_6594_520159)"/>
<path d="M3.58785 27.4269C3.07885 23.2814 6.02682 19.5081 10.1723 18.9991L56.5739 13.3017C60.7194 12.7927 64.4926 15.7407 65.0016 19.8862C64.5852 16.4944 61.1925 14.12 57.4238 14.5827L9.65754 20.4477C5.88888 20.9104 3.17139 24.0351 3.58785 27.4269ZM71.7045 74.4763L10.2907 82.0169L71.7045 74.4763ZM10.2907 82.0169L2.75 20.6031L10.2907 82.0169ZM64.1638 13.0625L71.7045 74.4763L64.1638 13.0625Z" fill="white" fill-opacity="0.32" mask="url(#path-1-inside-1_6594_520159)"/>
<rect x="10.7947" y="26.8884" width="47.4375" height="47.4375" rx="5.15625" transform="rotate(-7 10.7947 26.8884)" fill="url(#paint1_linear_6594_520159)" stroke="url(#paint2_linear_6594_520159)" stroke-width="0.6875"/>
<g clip-path="url(#clip0_6594_520159)">
<path d="M48.2892 34.2083C49.6445 34.0419 50.9321 35.0479 51.0985 36.4031L53.3513 54.7515C53.5242 56.1589 52.5118 57.3943 51.1565 57.5607L26.1361 60.6328C24.7287 60.8056 23.4996 59.8454 23.3268 58.438L21.0739 40.0897C20.9075 38.7344 21.8614 37.4532 23.2688 37.2804L48.2892 34.2083ZM29.5893 54.2827L28.1557 42.6065C28.1045 42.1895 27.6363 41.8237 27.2192 41.8749L25.5512 42.0797C25.0821 42.1373 24.7684 42.5991 24.8196 43.0161L26.2533 54.6923C26.3109 55.1615 26.7206 55.4815 27.1897 55.4239L28.8577 55.2191C29.2747 55.1679 29.6469 54.7518 29.5893 54.2827ZM32.9254 53.8731L31.4917 42.1969C31.4405 41.7799 30.9723 41.4141 30.5553 41.4653C30.0862 41.5229 29.7725 41.9847 29.8237 42.4017L31.2574 54.0779C31.315 54.547 31.7246 54.8671 32.1938 54.8095C32.6108 54.7583 32.983 54.3422 32.9254 53.8731ZM36.2614 53.4635L34.8278 41.7873C34.7766 41.3703 34.3084 41.0045 33.8914 41.0557C33.4222 41.1133 33.1086 41.5751 33.1598 41.9921L34.5934 53.6683C34.651 54.1374 35.0607 54.4575 35.5298 54.3999C35.9468 54.3487 36.319 53.9326 36.2614 53.4635ZM42.9336 52.6443L41.4999 40.968C41.4487 40.551 40.9805 40.1852 40.5635 40.2364L38.8955 40.4412C38.4263 40.4988 38.1126 40.9607 38.1638 41.3777L39.5975 53.0539C39.6551 53.523 40.0648 53.8431 40.5339 53.7855L42.2019 53.5807C42.619 53.5295 42.9912 53.1134 42.9336 52.6443ZM49.6057 51.825L48.172 40.1488C48.1208 39.7318 47.6526 39.366 47.2356 39.4172L45.5676 39.622C45.0984 39.6796 44.7848 40.1414 44.836 40.5584L46.2696 52.2346C46.3272 52.7038 46.7369 53.0238 47.206 52.9662L48.8741 52.7614C49.2911 52.7102 49.6633 52.2942 49.6057 51.825Z" fill="#669AB3"/>
</g>
<mask id="mask0_6594_520159" style="mask-type:alpha" maskUnits="userSpaceOnUse" x="3" y="13" width="68" height="69">
<mask id="path-5-inside-2_6594_520159" fill="white">
<path d="M3.58785 27.4269C3.12512 23.6582 5.8051 20.228 9.57375 19.7653L57.34 13.9003C61.1087 13.4376 64.5389 16.1176 65.0016 19.8862L70.8666 67.6525C71.3293 71.4212 68.6494 74.8514 64.8807 75.3141L17.1144 81.1791C13.3458 81.6418 9.91555 78.9618 9.45281 75.1932L3.58785 27.4269Z"/>
</mask>
<path d="M3.58785 27.4269C3.12512 23.6582 5.8051 20.228 9.57375 19.7653L57.34 13.9003C61.1087 13.4376 64.5389 16.1176 65.0016 19.8862L70.8666 67.6525C71.3293 71.4212 68.6494 74.8514 64.8807 75.3141L17.1144 81.1791C13.3458 81.6418 9.91555 78.9618 9.45281 75.1932L3.58785 27.4269Z" fill="url(#paint3_linear_6594_520159)"/>
<path d="M3.58785 27.4269C3.07885 23.2814 6.02682 19.5081 10.1723 18.9991L56.5739 13.3017C60.7194 12.7927 64.4926 15.7407 65.0016 19.8862C64.5852 16.4944 61.1925 14.12 57.4238 14.5827L9.65754 20.4477C5.88888 20.9104 3.17139 24.0351 3.58785 27.4269ZM71.7045 74.4763L10.2907 82.0169L71.7045 74.4763ZM10.2907 82.0169L2.75 20.6031L10.2907 82.0169ZM64.1638 13.0625L71.7045 74.4763L64.1638 13.0625Z" fill="white" fill-opacity="0.32" mask="url(#path-5-inside-2_6594_520159)"/>
</mask>
<g mask="url(#mask0_6594_520159)">
<path d="M16.9459 62.321L65.0874 70.6498L72.9772 74.3523L6.28967 81.571L16.9459 62.321Z" fill="url(#paint4_linear_6594_520159)"/>
</g>
<mask id="path-8-inside-3_6594_520159" fill="white">
<path d="M22.6176 13.0113C23.0803 9.2426 26.5105 6.56262 30.2792 7.02535L78.0455 12.8903C81.8141 13.353 84.4941 16.7833 84.0314 20.5519L78.1664 68.3182C77.7037 72.0869 74.2735 74.7668 70.5048 74.3041L22.7385 68.4391C18.9699 67.9764 16.2899 64.5462 16.7526 60.7775L22.6176 13.0113Z"/>
</mask>
<path d="M22.6176 13.0113C23.0803 9.2426 26.5105 6.56262 30.2792 7.02535L78.0455 12.8903C81.8141 13.353 84.4941 16.7833 84.0314 20.5519L78.1664 68.3182C77.7037 72.0869 74.2735 74.7668 70.5048 74.3041L22.7385 68.4391C18.9699 67.9764 16.2899 64.5462 16.7526 60.7775L22.6176 13.0113Z" fill="url(#paint5_linear_6594_520159)"/>
<path d="M22.6176 13.0113C23.1266 8.86573 26.8998 5.91776 31.0454 6.42676L77.4469 12.1242C81.5924 12.6332 84.5404 16.4064 84.0314 20.5519C84.4478 17.1601 81.7304 14.0354 77.9617 13.5727L30.1954 7.70773C26.4268 7.24499 23.0341 9.61946 22.6176 13.0113ZM77.3286 75.142L15.9148 67.6013L77.3286 75.142ZM15.9148 67.6013L23.4554 6.1875L15.9148 67.6013ZM84.8692 13.7282L77.3286 75.142L84.8692 13.7282Z" fill="white" fill-opacity="0.32" mask="url(#path-8-inside-3_6594_520159)"/>
<rect x="29.7407" y="14.2322" width="47.4375" height="47.4375" rx="5.15625" transform="rotate(7 29.7407 14.2322)" fill="url(#paint6_linear_6594_520159)" stroke="url(#paint7_linear_6594_520159)" stroke-width="0.6875"/>
<path d="M44.0555 26.825C42.3314 26.6133 40.6891 27.5779 40.0717 29.1639L35.1217 41.8452C35.0095 42.1288 34.9376 42.4232 34.901 42.7219L34.2514 48.0126C34.0024 50.0404 35.483 51.8957 37.553 52.1499L60.0714 54.9148C62.1414 55.1689 64.0269 53.7269 64.2759 51.6991L64.9255 46.4084C64.9622 46.1097 64.9637 45.8067 64.9234 45.5044L63.1883 32.0023C62.9729 30.314 61.6128 28.9807 59.8887 28.769L44.0555 26.825ZM43.6041 30.5014L59.4373 32.4455L60.8979 43.8206L57.8954 43.4519C57.1858 43.3648 56.487 43.6755 56.0934 44.2627L55.0531 45.8027C54.6603 46.3842 53.9607 46.7007 53.2511 46.6135L46.1848 45.7459C45.4752 45.6588 44.8723 45.1882 44.6325 44.5232L43.9956 42.7773C43.7552 42.118 43.1529 41.6417 42.4433 41.5546L39.435 41.1852L43.6041 30.5014Z" fill="#669AB3"/>
<defs>
<linearGradient id="paint0_linear_6594_520159" x1="33.4569" y1="16.8328" x2="40.9976" y2="78.2466" gradientUnits="userSpaceOnUse">
<stop stop-color="#E6EEF2"/>
<stop offset="1" stop-color="#99BBCD"/>
</linearGradient>
<linearGradient id="paint1_linear_6594_520159" x1="34.4741" y1="26.5891" x2="34.4741" y2="74.7141" gradientUnits="userSpaceOnUse">
<stop stop-color="white" stop-opacity="0.24"/>
<stop offset="1" stop-color="white" stop-opacity="0.08"/>
</linearGradient>
<linearGradient id="paint2_linear_6594_520159" x1="34.4741" y1="26.5891" x2="34.4741" y2="74.7141" gradientUnits="userSpaceOnUse">
<stop stop-color="white" stop-opacity="0.6"/>
<stop offset="1" stop-color="white" stop-opacity="0.1"/>
</linearGradient>
<linearGradient id="paint3_linear_6594_520159" x1="33.4569" y1="16.8328" x2="40.9976" y2="78.2466" gradientUnits="userSpaceOnUse">
<stop stop-color="#E6EEF2"/>
<stop offset="1" stop-color="#99BBCD"/>
</linearGradient>
<linearGradient id="paint4_linear_6594_520159" x1="44.9237" y1="48.4129" x2="39.7365" y2="82.1425" gradientUnits="userSpaceOnUse">
<stop offset="0.355" stop-color="#33789A" stop-opacity="0.64"/>
<stop offset="1" stop-color="#33789A" stop-opacity="0.08"/>
</linearGradient>
<linearGradient id="paint5_linear_6594_520159" x1="54.1623" y1="9.95783" x2="46.6217" y2="71.3716" gradientUnits="userSpaceOnUse">
<stop stop-color="#E6EEF2"/>
<stop offset="1" stop-color="#99BBCD"/>
</linearGradient>
<linearGradient id="paint6_linear_6594_520159" x1="53.5039" y1="13.8491" x2="53.5039" y2="61.9741" gradientUnits="userSpaceOnUse">
<stop stop-color="white" stop-opacity="0.24"/>
<stop offset="1" stop-color="white" stop-opacity="0.08"/>
</linearGradient>
<linearGradient id="paint7_linear_6594_520159" x1="53.5039" y1="13.8491" x2="53.5039" y2="61.9741" gradientUnits="userSpaceOnUse">
<stop stop-color="white" stop-opacity="0.6"/>
<stop offset="1" stop-color="white" stop-opacity="0.1"/>
</linearGradient>
<clipPath id="clip0_6594_520159">
<rect width="30.25" height="30.25" fill="white" transform="translate(20.3717 34.3707) rotate(-7)"/>
</clipPath>
</defs>
</svg>
