<svg width="150" height="151" viewBox="0 0 150 151" fill="none" xmlns="http://www.w3.org/2000/svg">
  <mask id="path-1-inside-1_4468_261680" fill="white">
    <path
      d="M12.14 50.7593C11.7331 47.4707 14.0698 44.4798 17.3592 44.079L93.0655 34.8549C96.3549 34.4541 99.3514 36.7952 99.7583 40.0838L109.043 115.119C109.45 118.408 107.113 121.399 103.824 121.8L28.1173 131.024C24.8279 131.425 21.8315 129.084 21.4246 125.795L12.14 50.7593Z" />
  </mask>
  <path
    d="M12.14 50.7593C11.7331 47.4707 14.0698 44.4798 17.3592 44.079L93.0655 34.8549C96.3549 34.4541 99.3514 36.7952 99.7583 40.0838L109.043 115.119C109.45 118.408 107.113 121.399 103.824 121.8L28.1173 131.024C24.8279 131.425 21.8315 129.084 21.4246 125.795L12.14 50.7593Z"
    fill="url(#paint0_linear_4468_261680)" />
  <path
    d="M12.14 50.7593C11.6653 46.9225 14.3914 43.4332 18.229 42.9656L91.9501 33.9834C95.7877 33.5158 99.2835 36.2471 99.7583 40.0838C99.4192 37.3433 96.4777 35.4465 93.1883 35.8473L17.482 45.0714C14.1926 45.4722 11.8009 48.0188 12.14 50.7593ZM109.78 121.074L22.1614 131.75L109.78 121.074ZM22.1614 131.75L11.4032 44.8047L22.1614 131.75ZM99.0215 34.1292L109.78 121.074L99.0215 34.1292Z"
    fill="white" fill-opacity="0.12" mask="url(#path-1-inside-1_4468_261680)" />
  <rect x="0.515099" y="0.402437" width="67.1675" height="66.6597" rx="3.53822"
    transform="matrix(0.992659 -0.120946 0.122799 0.992432 22.6006 53.5868)" fill="url(#paint1_linear_4468_261680)"
    stroke="url(#paint2_linear_4468_261680)" stroke-width="0.923565" />
  <g clip-path="url(#clip0_4468_261680)">
    <path
      d="M53.5086 102.714L51.3993 85.6671C49.7496 85.4268 48.3042 84.7203 47.0633 83.5477C45.8223 82.3751 45.0943 80.9193 44.8791 79.1804L43.2654 66.1387L47.0204 65.6812L48.6342 78.7229L50.5117 78.4941L48.898 65.4524L52.6531 64.9949L54.2668 78.0366L56.1443 77.8078L54.5306 64.7661L58.2857 64.3086L59.8994 77.3503C60.1145 79.0892 59.763 80.6765 58.8448 82.1122C57.9266 83.5479 56.6964 84.5804 55.1543 85.2096L57.2637 102.257L53.5086 102.714ZM72.284 100.427L70.4397 85.522L64.8071 86.2083L63.1934 73.1666C62.8745 70.5893 63.5179 68.2809 65.1238 66.2413C66.7296 64.2017 68.8311 63.0237 71.4284 62.7073L76.039 99.9694L72.284 100.427Z"
      fill="white" />
  </g>
  <mask id="mask0_4468_261680" style="mask-type:alpha" maskUnits="userSpaceOnUse" x="12" y="35" width="97" height="96">
    <mask id="path-5-inside-2_4468_261680" fill="white">
      <path
        d="M12.3856 52.7451C11.843 48.3603 14.9586 44.3725 19.3445 43.8381L91.0802 35.0977C95.4661 34.5634 99.4613 37.6848 100.004 42.0696L108.797 113.136C109.34 117.52 106.224 121.508 101.838 122.043L30.1026 130.783C25.7168 131.317 21.7215 128.196 21.179 123.811L12.3856 52.7451Z" />
    </mask>
    <path
      d="M12.3856 52.7451C11.843 48.3603 14.9586 44.3725 19.3445 43.8381L91.0802 35.0977C95.4661 34.5634 99.4613 37.6848 100.004 42.0696L108.797 113.136C109.34 117.52 106.224 121.508 101.838 122.043L30.1026 130.783C25.7168 131.317 21.7215 128.196 21.179 123.811L12.3856 52.7451Z"
      fill="url(#paint3_linear_4468_261680)" />
    <path
      d="M12.3856 52.7451C11.7804 47.8541 15.2557 43.4059 20.1478 42.8098L90.05 34.2929C94.9422 33.6968 99.3987 37.1786 100.004 42.0696C99.524 38.191 95.5795 35.4799 91.1936 36.0143L19.4579 44.7547C15.072 45.289 11.9057 48.8665 12.3856 52.7451ZM109.78 121.075L22.1614 131.751L109.78 121.075ZM22.1614 131.751L11.4032 44.8057L22.1614 131.751ZM99.0215 34.1302L109.78 121.075L99.0215 34.1302Z"
      fill="white" fill-opacity="0.12" mask="url(#path-5-inside-2_4468_261680)" />
  </mask>
  <g mask="url(#mask0_4468_261680)">
    <path d="M35.9815 101.903L105.62 119.518L117.226 122.228L19.5959 134.422L35.9815 101.903Z"
      fill="url(#paint4_linear_4468_261680)" />
  </g>
  <mask id="path-8-inside-3_4468_261680" fill="white">
    <path
      d="M44.1621 25.2046C44.5691 21.916 47.5655 19.5749 50.8549 19.9757L133.813 30.0833C137.102 30.4841 139.439 33.475 139.032 36.7636L128.857 118.995C128.45 122.284 125.453 124.625 122.164 124.224L39.2064 114.116C35.917 113.715 33.5803 110.725 33.9872 107.436L44.1621 25.2046Z" />
  </mask>
  <path
    d="M44.1621 25.2046C44.5691 21.916 47.5655 19.5749 50.8549 19.9757L133.813 30.0833C137.102 30.4841 139.439 33.475 139.032 36.7636L128.857 118.995C128.45 122.284 125.453 124.625 122.164 124.224L39.2064 114.116C35.917 113.715 33.5803 110.725 33.9872 107.436L44.1621 25.2046Z"
    fill="url(#paint5_linear_4468_261680)" />
  <path
    d="M44.1621 25.2046C44.6369 21.3679 48.1327 18.6366 51.9703 19.1042L132.943 28.9699C136.78 29.4375 139.507 32.9269 139.032 36.7636C139.371 34.0231 136.979 31.4765 133.69 31.0758L50.7321 20.9681C47.4427 20.5673 44.5012 22.4641 44.1621 25.2046ZM128.12 124.95L33.2504 113.391L128.12 124.95ZM33.2504 113.391L44.8989 19.25L33.2504 113.391ZM139.769 30.809L128.12 124.95L139.769 30.809Z"
    fill="white" fill-opacity="0.12" mask="url(#path-8-inside-3_4468_261680)" />
  <rect x="0.43493" y="0.556689" width="72.7264" height="72.1765" rx="3.5"
    transform="matrix(0.992659 0.120946 -0.122799 0.992432 54.4815 31.2817)" fill="url(#paint6_linear_4468_261680)"
    stroke="url(#paint7_linear_4468_261680)" />
  <g clip-path="url(#clip1_4468_261680)">
    <path
      d="M91.7798 62.9967C97.1073 66.4813 98.668 73.7492 95.1833 79.0766C93.6783 81.3449 91.5911 82.9756 89.2348 83.7242L79.1834 87.2075L74.5359 81.2589C74.0467 80.6328 73.0242 80.5072 72.3981 80.9964C71.7719 81.4856 71.6464 82.5081 72.1356 83.1342L76.1308 88.2479L63.0269 92.7717C61.936 93.2038 60.6918 92.5793 60.3526 91.4998C60.1422 90.9079 60.2335 90.1643 60.5808 89.6409L75.4683 66.7492L79.5451 71.9673C79.7897 72.2804 80.1501 72.419 80.5219 72.4646C80.8937 72.5103 81.3698 72.4744 81.6829 72.2298C82.3091 71.7405 82.4346 70.7181 81.9454 70.0919L77.368 64.3407C81.2049 60.7548 87.1503 59.9752 91.7798 62.9967ZM100.73 60.7935C104.665 59.484 109.106 60.9727 111.716 65.0672C107.242 69.2353 101.085 68.668 97.5083 63.9831L96.8561 63.1482C93.1755 58.5449 94.1147 52.4332 99.2414 49.1C102.583 52.6238 102.953 57.2924 100.73 60.7935Z"
      fill="#669AB3" />
  </g>
  <defs>
    <linearGradient id="paint0_linear_4468_261680" x1="55.2123" y1="39.4669" x2="65.8082" y2="126.432"
      gradientUnits="userSpaceOnUse">
      <stop stop-color="#E6EEF2" />
      <stop offset="1" stop-color="#99BBCD" />
    </linearGradient>
    <linearGradient id="paint1_linear_4468_261680" x1="34.0455" y1="0" x2="34.0455" y2="67.5833"
      gradientUnits="userSpaceOnUse">
      <stop stop-color="white" stop-opacity="0.24" />
      <stop offset="1" stop-color="white" stop-opacity="0.08" />
    </linearGradient>
    <linearGradient id="paint2_linear_4468_261680" x1="34.0455" y1="0" x2="34.0455" y2="67.5833"
      gradientUnits="userSpaceOnUse">
      <stop stop-color="white" stop-opacity="0.6" />
      <stop offset="1" stop-color="white" stop-opacity="0.1" />
    </linearGradient>
    <linearGradient id="paint3_linear_4468_261680" x1="55.2123" y1="39.4679" x2="65.8082" y2="126.433"
      gradientUnits="userSpaceOnUse">
      <stop stop-color="#005681" />
      <stop offset="1" stop-color="#00344D" />
    </linearGradient>
    <linearGradient id="paint4_linear_4468_261680" x1="74.903" y1="86.9987" x2="72.8861" y2="127.649"
      gradientUnits="userSpaceOnUse">
      <stop stop-color="#33789A" />
      <stop offset="1" stop-color="#33789A" stop-opacity="0" />
    </linearGradient>
    <linearGradient id="paint5_linear_4468_261680" x1="92.3337" y1="25.0295" x2="80.861" y2="119.191"
      gradientUnits="userSpaceOnUse">
      <stop stop-color="#E6EEF2" />
      <stop offset="1" stop-color="#99BBCD" />
    </linearGradient>
    <linearGradient id="paint6_linear_4468_261680" x1="36.8632" y1="0" x2="36.8632" y2="73.1765"
      gradientUnits="userSpaceOnUse">
      <stop stop-color="white" stop-opacity="0.24" />
      <stop offset="1" stop-color="white" stop-opacity="0.08" />
    </linearGradient>
    <linearGradient id="paint7_linear_4468_261680" x1="36.8632" y1="0" x2="36.8632" y2="73.1765"
      gradientUnits="userSpaceOnUse">
      <stop stop-color="white" stop-opacity="0.6" />
      <stop offset="1" stop-color="white" stop-opacity="0.1" />
    </linearGradient>
    <clipPath id="clip0_4468_261680">
      <rect width="45.3941" height="45.0555" fill="white"
        transform="matrix(0.992659 -0.120946 0.122799 0.992432 35.2942 63.3281)" />
    </clipPath>
    <clipPath id="clip1_4468_261680">
      <rect width="48" height="48" fill="white" transform="translate(65.8497 45) rotate(7)" />
    </clipPath>
  </defs>
</svg>