<svg width="89" height="88" viewBox="0 0 89 88" fill="none" xmlns="http://www.w3.org/2000/svg">
  <mask id="path-1-inside-1_10315_12034" fill="white">
    <path
      d="M4.08785 27.4268C3.62512 23.6581 6.3051 20.2279 10.0738 19.7652L57.84 13.9002C61.6087 13.4375 65.0389 16.1175 65.5016 19.8861L71.3666 67.6524C71.8293 71.4211 69.1494 74.8513 65.3807 75.314L17.6144 81.179C13.8458 81.6417 10.4155 78.9617 9.95281 75.1931L4.08785 27.4268Z" />
  </mask>
  <path
    d="M4.08785 27.4268C3.62512 23.6581 6.3051 20.2279 10.0738 19.7652L57.84 13.9002C61.6087 13.4375 65.0389 16.1175 65.5016 19.8861L71.3666 67.6524C71.8293 71.4211 69.1494 74.8513 65.3807 75.314L17.6144 81.179C13.8458 81.6417 10.4155 78.9617 9.95281 75.1931L4.08785 27.4268Z"
    fill="url(#paint0_linear_10315_12034)" />
  <path
    d="M4.08785 27.4268C3.57885 23.2813 6.52682 19.508 10.6723 18.999L57.0739 13.3016C61.2194 12.7926 64.9926 15.7406 65.5016 19.8861C65.0852 16.4943 61.6925 14.1199 57.9238 14.5826L10.1575 20.4476C6.38888 20.9103 3.67139 24.035 4.08785 27.4268ZM72.2045 74.4762L10.7907 82.0168L72.2045 74.4762ZM10.7907 82.0168L3.25 20.603L10.7907 82.0168ZM64.6638 13.0624L72.2045 74.4762L64.6638 13.0624Z"
    fill="white" fill-opacity="0.32" mask="url(#path-1-inside-1_10315_12034)" />
  <rect x="11.2947" y="26.8882" width="47.4375" height="47.4375" rx="5.15625" transform="rotate(-7 11.2947 26.8882)"
    fill="url(#paint1_linear_10315_12034)" stroke="url(#paint2_linear_10315_12034)" stroke-width="0.6875" />
  <g clip-path="url(#clip0_10315_12034)">
    <path
      d="M48.7891 34.2083C50.1444 34.0419 51.4319 35.0479 51.5983 36.4031L53.8512 54.7515C54.024 56.1589 53.0117 57.3943 51.6564 57.5607L26.636 60.6328C25.2286 60.8056 23.9995 59.8454 23.8267 58.438L21.5738 40.0897C21.4074 38.7344 22.3612 37.4532 23.7686 37.2804L48.7891 34.2083ZM30.0892 54.2827L28.6555 42.6065C28.6043 42.1895 28.1361 41.8237 27.7191 41.8749L26.0511 42.0797C25.582 42.1373 25.2683 42.5991 25.3195 43.0161L26.7531 54.6923C26.8107 55.1615 27.2204 55.4815 27.6896 55.4239L29.3576 55.2191C29.7746 55.1679 30.1468 54.7518 30.0892 54.2827ZM33.4253 53.8731L31.9916 42.1969C31.9404 41.7799 31.4722 41.4141 31.0552 41.4653C30.5861 41.5229 30.2724 41.9847 30.3236 42.4017L31.7572 54.0779C31.8148 54.547 32.2245 54.8671 32.6937 54.8095C33.1107 54.7583 33.4829 54.3422 33.4253 53.8731ZM36.7613 53.4635L35.3277 41.7873C35.2765 41.3703 34.8083 41.0045 34.3912 41.0557C33.9221 41.1133 33.6084 41.5751 33.6596 41.9921L35.0933 53.6683C35.1509 54.1374 35.5606 54.4575 36.0297 54.3999C36.4467 54.3487 36.8189 53.9326 36.7613 53.4635ZM43.4334 52.6443L41.9998 40.968C41.9486 40.551 41.4804 40.1852 41.0634 40.2364L39.3953 40.4412C38.9262 40.4988 38.6125 40.9607 38.6637 41.3777L40.0974 53.0539C40.155 53.523 40.5647 53.8431 41.0338 53.7855L42.7018 53.5807C43.1188 53.5295 43.491 53.1134 43.4334 52.6443ZM50.1055 51.825L48.6719 40.1488C48.6207 39.7318 48.1525 39.366 47.7355 39.4172L46.0674 39.622C45.5983 39.6796 45.2846 40.1414 45.3358 40.5584L46.7695 52.2346C46.8271 52.7038 47.2368 53.0238 47.7059 52.9662L49.3739 52.7614C49.7909 52.7102 50.1632 52.2942 50.1055 51.825Z"
      fill="#669AB3" />
  </g>
  <mask id="mask0_10315_12034" style="mask-type:alpha" maskUnits="userSpaceOnUse" x="4" y="13" width="68" height="69">
    <mask id="path-5-inside-2_10315_12034" fill="white">
      <path
        d="M4.08785 27.4268C3.62512 23.6581 6.3051 20.2279 10.0738 19.7652L57.84 13.9002C61.6087 13.4375 65.0389 16.1175 65.5016 19.8861L71.3666 67.6524C71.8293 71.4211 69.1494 74.8513 65.3807 75.314L17.6144 81.179C13.8458 81.6417 10.4155 78.9617 9.95281 75.1931L4.08785 27.4268Z" />
    </mask>
    <path
      d="M4.08785 27.4268C3.62512 23.6581 6.3051 20.2279 10.0738 19.7652L57.84 13.9002C61.6087 13.4375 65.0389 16.1175 65.5016 19.8861L71.3666 67.6524C71.8293 71.4211 69.1494 74.8513 65.3807 75.314L17.6144 81.179C13.8458 81.6417 10.4155 78.9617 9.95281 75.1931L4.08785 27.4268Z"
      fill="url(#paint3_linear_10315_12034)" />
    <path
      d="M4.08785 27.4268C3.57885 23.2813 6.52682 19.508 10.6723 18.999L57.0739 13.3016C61.2194 12.7926 64.9926 15.7406 65.5016 19.8861C65.0852 16.4943 61.6925 14.1199 57.9238 14.5826L10.1575 20.4476C6.38888 20.9103 3.67139 24.035 4.08785 27.4268ZM72.2045 74.4762L10.7907 82.0168L72.2045 74.4762ZM10.7907 82.0168L3.25 20.603L10.7907 82.0168ZM64.6638 13.0624L72.2045 74.4762L64.6638 13.0624Z"
      fill="white" fill-opacity="0.32" mask="url(#path-5-inside-2_10315_12034)" />
  </mask>
  <g mask="url(#mask0_10315_12034)">
    <path d="M17.4458 62.3208L65.5872 70.6495L73.4771 74.3521L6.78955 81.5708L17.4458 62.3208Z"
      fill="url(#paint4_linear_10315_12034)" />
  </g>
  <mask id="path-8-inside-3_10315_12034" fill="white">
    <path
      d="M23.1177 13.0113C23.5804 9.2426 27.0107 6.56262 30.7793 7.02535L78.5456 12.8903C82.3143 13.353 84.9942 16.7833 84.5315 20.5519L78.6665 68.3182C78.2038 72.0869 74.7736 74.7668 71.0049 74.3041L23.2387 68.4391C19.47 67.9764 16.79 64.5462 17.2528 60.7775L23.1177 13.0113Z" />
  </mask>
  <path
    d="M23.1177 13.0113C23.5804 9.2426 27.0107 6.56262 30.7793 7.02535L78.5456 12.8903C82.3143 13.353 84.9942 16.7833 84.5315 20.5519L78.6665 68.3182C78.2038 72.0869 74.7736 74.7668 71.0049 74.3041L23.2387 68.4391C19.47 67.9764 16.79 64.5462 17.2528 60.7775L23.1177 13.0113Z"
    fill="url(#paint5_linear_10315_12034)" />
  <path
    d="M23.1177 13.0113C23.6267 8.86573 27.4 5.91776 31.5455 6.42676L77.947 12.1242C82.0925 12.6332 85.0405 16.4064 84.5315 20.5519C84.948 17.1601 82.2305 14.0354 78.4618 13.5727L30.6955 7.70773C26.9269 7.24499 23.5342 9.61946 23.1177 13.0113ZM77.8287 75.142L16.4149 67.6013L77.8287 75.142ZM16.4149 67.6013L23.9556 6.1875L16.4149 67.6013ZM85.3694 13.7282L77.8287 75.142L85.3694 13.7282Z"
    fill="white" fill-opacity="0.32" mask="url(#path-8-inside-3_10315_12034)" />
  <rect x="30.2407" y="14.2322" width="47.4375" height="47.4375" rx="5.15625" transform="rotate(7 30.2407 14.2322)"
    fill="url(#paint6_linear_10315_12034)" stroke="url(#paint7_linear_10315_12034)" stroke-width="0.6875" />
  <path
    d="M64.0776 53.7462C64.5999 54.3456 64.492 55.2243 63.8331 55.7381L62.3835 56.8684C61.7245 57.3822 60.844 57.2741 60.3877 56.6233L54.001 48.4652C51.847 49.509 49.4055 49.9823 46.9401 49.6796C40.1898 48.8507 35.3997 42.7321 36.2269 35.9949C37.047 29.3163 43.1821 24.4796 49.9325 25.3085C56.6242 26.1301 61.4657 32.3145 60.6457 38.9931C60.3364 41.5123 59.2269 43.7547 57.6909 45.588L64.0776 53.7462ZM40.9229 36.5715C40.4121 40.731 43.348 44.4811 47.5156 44.9928C51.6245 45.4973 55.4391 42.576 55.9498 38.4165C56.4533 34.3156 53.466 30.4997 49.3571 29.9952C45.1894 29.4835 41.4264 32.4706 40.9229 36.5715Z"
    fill="#669AB3" />
  <defs>
    <linearGradient id="paint0_linear_10315_12034" x1="33.9569" y1="16.8327" x2="41.4976" y2="78.2465"
      gradientUnits="userSpaceOnUse">
      <stop stop-color="#E6EEF2" />
      <stop offset="1" stop-color="#99BBCD" />
    </linearGradient>
    <linearGradient id="paint1_linear_10315_12034" x1="34.9741" y1="26.5889" x2="34.9741" y2="74.7139"
      gradientUnits="userSpaceOnUse">
      <stop stop-color="white" stop-opacity="0.24" />
      <stop offset="1" stop-color="white" stop-opacity="0.08" />
    </linearGradient>
    <linearGradient id="paint2_linear_10315_12034" x1="34.9741" y1="26.5889" x2="34.9741" y2="74.7139"
      gradientUnits="userSpaceOnUse">
      <stop stop-color="white" stop-opacity="0.6" />
      <stop offset="1" stop-color="white" stop-opacity="0.1" />
    </linearGradient>
    <linearGradient id="paint3_linear_10315_12034" x1="33.9569" y1="16.8327" x2="41.4976" y2="78.2465"
      gradientUnits="userSpaceOnUse">
      <stop stop-color="#E6EEF2" />
      <stop offset="1" stop-color="#99BBCD" />
    </linearGradient>
    <linearGradient id="paint4_linear_10315_12034" x1="45.4236" y1="48.4127" x2="40.2363" y2="82.1422"
      gradientUnits="userSpaceOnUse">
      <stop offset="0.355" stop-color="#33789A" stop-opacity="0.64" />
      <stop offset="1" stop-color="#33789A" stop-opacity="0.08" />
    </linearGradient>
    <linearGradient id="paint5_linear_10315_12034" x1="54.6625" y1="9.95783" x2="47.1218" y2="71.3716"
      gradientUnits="userSpaceOnUse">
      <stop stop-color="#E6EEF2" />
      <stop offset="1" stop-color="#99BBCD" />
    </linearGradient>
    <linearGradient id="paint6_linear_10315_12034" x1="54.0039" y1="13.8491" x2="54.0039" y2="61.9741"
      gradientUnits="userSpaceOnUse">
      <stop stop-color="white" stop-opacity="0.24" />
      <stop offset="1" stop-color="white" stop-opacity="0.08" />
    </linearGradient>
    <linearGradient id="paint7_linear_10315_12034" x1="54.0039" y1="13.8491" x2="54.0039" y2="61.9741"
      gradientUnits="userSpaceOnUse">
      <stop stop-color="white" stop-opacity="0.6" />
      <stop offset="1" stop-color="white" stop-opacity="0.1" />
    </linearGradient>
    <clipPath id="clip0_10315_12034">
      <rect width="30.25" height="30.25" fill="white" transform="translate(20.8716 34.3706) rotate(-7)" />
    </clipPath>
  </defs>
</svg>