<svg width="129" height="114" viewBox="0 0 129 114" fill="none" xmlns="http://www.w3.org/2000/svg">
<mask id="path-1-inside-1_23594_197369" fill="white">
<path d="M1.13999 32.2593C0.733073 28.9707 3.06977 25.9798 6.35915 25.579L82.0655 16.3549C85.3549 15.9541 88.3514 18.2952 88.7583 21.5838L98.0429 96.6195C98.4498 99.9081 96.1131 102.899 92.8237 103.3L17.1173 112.524C13.8279 112.925 10.8315 110.584 10.4246 107.295L1.13999 32.2593Z"/>
</mask>
<path d="M1.13999 32.2593C0.733073 28.9707 3.06977 25.9798 6.35915 25.579L82.0655 16.3549C85.3549 15.9541 88.3514 18.2952 88.7583 21.5838L98.0429 96.6195C98.4498 99.9081 96.1131 102.899 92.8237 103.3L17.1173 112.524C13.8279 112.925 10.8315 110.584 10.4246 107.295L1.13999 32.2593Z" fill="url(#paint0_linear_23594_197369)"/>
<path d="M1.13999 32.2593C0.665252 28.4225 3.3914 24.9332 7.22901 24.4656L80.9501 15.4834C84.7877 15.0158 88.2835 17.7471 88.7583 21.5838C88.4192 18.8433 85.4777 16.9465 82.1883 17.3473L6.48195 26.5714C3.19257 26.9722 0.800892 29.5188 1.13999 32.2593ZM98.7796 102.574L11.1614 113.25L98.7796 102.574ZM11.1614 113.25L0.403198 26.3047L11.1614 113.25ZM88.0215 15.6292L98.7796 102.574L88.0215 15.6292Z" fill="white" fill-opacity="0.12" mask="url(#path-1-inside-1_23594_197369)"/>
<rect x="0.515099" y="0.402437" width="67.1675" height="66.6597" rx="3.53822" transform="matrix(0.992659 -0.120946 0.122799 0.992432 11.6006 35.0868)" fill="url(#paint1_linear_23594_197369)" stroke="url(#paint2_linear_23594_197369)" stroke-width="0.923565"/>
<path d="M42.5078 84.2145L40.3984 67.1671C38.7487 66.9268 37.3034 66.2203 36.0624 65.0477C34.8215 63.8751 34.0934 62.4193 33.8783 60.6804L32.2645 47.6387L36.0196 47.1812L37.6333 60.2229L39.5109 59.9941L37.8971 46.9524L41.6522 46.4949L43.2659 59.5366L45.1435 59.3078L43.5297 46.2661L47.2848 45.8086L48.8985 58.8503C49.1137 60.5892 48.7622 62.1765 47.844 63.6122C46.9257 65.0479 45.6956 66.0804 44.1535 66.7096L46.2628 83.757L42.5078 84.2145ZM61.2831 81.9269L59.4389 67.022L53.8063 67.7083L52.1925 54.6666C51.8736 52.0893 52.5171 49.7809 54.1229 47.7413C55.7287 45.7017 57.8303 44.5237 60.4275 44.2073L65.0382 81.4694L61.2831 81.9269Z" fill="white"/>
<mask id="mask0_23594_197369" style="mask-type:alpha" maskUnits="userSpaceOnUse" x="1" y="16" width="97" height="97">
<mask id="path-5-inside-2_23594_197369" fill="white">
<path d="M1.38559 34.2461C0.843031 29.8613 3.95863 25.8734 8.34447 25.3391L80.0802 16.5987C84.4661 16.0643 88.4613 19.1858 89.0039 23.5706L97.7973 94.6366C98.3398 99.0214 95.2242 103.009 90.8384 103.544L19.1026 112.284C14.7168 112.818 10.7215 109.697 10.179 105.312L1.38559 34.2461Z"/>
</mask>
<path d="M1.38559 34.2461C0.843031 29.8613 3.95863 25.8734 8.34447 25.3391L80.0802 16.5987C84.4661 16.0643 88.4613 19.1858 89.0039 23.5706L97.7973 94.6366C98.3398 99.0214 95.2242 103.009 90.8384 103.544L19.1026 112.284C14.7168 112.818 10.7215 109.697 10.179 105.312L1.38559 34.2461Z" fill="url(#paint3_linear_23594_197369)"/>
<path d="M1.38559 34.2461C0.780394 29.355 4.25567 24.9069 9.14784 24.3108L79.05 15.7938C83.9422 15.1978 88.3987 18.6796 89.0039 23.5706C88.524 19.692 84.5795 16.9809 80.1936 17.5153L8.45788 26.2556C4.07204 26.79 0.905667 30.3675 1.38559 34.2461ZM98.7797 102.576L11.1614 113.252L98.7797 102.576ZM11.1614 113.252L0.403198 26.3066L11.1614 113.252ZM88.0215 15.6312L98.7797 102.576L88.0215 15.6312Z" fill="white" fill-opacity="0.12" mask="url(#path-5-inside-2_23594_197369)"/>
</mask>
<g mask="url(#mask0_23594_197369)">
<path d="M24.9811 83.4043L94.6195 101.019L106.226 103.729L8.59558 115.923L24.9811 83.4043Z" fill="url(#paint4_linear_23594_197369)"/>
</g>
<mask id="path-8-inside-3_23594_197369" fill="white">
<path d="M33.1618 6.70459C33.5687 3.41596 36.5651 1.0749 39.8545 1.47568L122.812 11.5833C126.102 11.9841 128.438 14.975 128.031 18.2636L117.856 100.495C117.45 103.784 114.453 106.125 111.164 105.724L28.206 95.6162C24.9166 95.2154 22.5799 92.2246 22.9868 88.9359L33.1618 6.70459Z"/>
</mask>
<path d="M33.1618 6.70459C33.5687 3.41596 36.5651 1.0749 39.8545 1.47568L122.812 11.5833C126.102 11.9841 128.438 14.975 128.031 18.2636L117.856 100.495C117.45 103.784 114.453 106.125 111.164 105.724L28.206 95.6162C24.9166 95.2154 22.5799 92.2246 22.9868 88.9359L33.1618 6.70459Z" fill="url(#paint5_linear_23594_197369)"/>
<path d="M33.1618 6.70459C33.6365 2.86786 37.1324 0.136615 40.97 0.604194L121.942 10.4699C125.78 10.9375 128.506 14.4269 128.031 18.2636C128.371 15.5231 125.979 12.9765 122.689 12.5758L39.7317 2.46811C36.4423 2.06733 33.5009 3.96407 33.1618 6.70459ZM117.12 106.45L22.25 94.8905L117.12 106.45ZM22.25 94.8905L33.8986 0.75L22.25 94.8905ZM128.768 12.309L117.12 106.45L128.768 12.309Z" fill="white" fill-opacity="0.12" mask="url(#path-8-inside-3_23594_197369)"/>
<rect x="0.43493" y="0.556689" width="72.7264" height="72.1765" rx="3.5" transform="matrix(0.992659 0.120946 -0.122799 0.992432 43.4806 12.7817)" fill="url(#paint6_linear_23594_197369)" stroke="url(#paint7_linear_23594_197369)"/>
<path d="M63.7974 34.5081C64.4355 34.5864 64.9932 35.3192 64.9128 35.9736L64.27 41.209C64.1796 41.9452 63.4712 42.4395 62.8332 42.3612L57.7286 41.7344C57.0108 41.6463 56.5228 41.0051 56.6132 40.2689L57.256 35.0335C57.3364 34.379 57.9751 33.7932 58.6929 33.8813L63.7974 34.5081ZM62.1903 47.5966C62.8284 47.6749 63.3861 48.4077 63.3058 49.0621L62.6629 54.2975C62.5725 55.0338 61.8642 55.528 61.2261 55.4497L56.1216 54.8229C55.4037 54.7348 54.9157 54.0936 55.0061 53.3574L55.649 48.122C55.7293 47.4676 56.368 46.8817 57.0858 46.9698L62.1903 47.5966ZM60.5833 60.6851C61.2213 60.7634 61.779 61.4962 61.6987 62.1506L61.0559 67.386C60.9655 68.1223 60.2571 68.6166 59.619 68.5382L54.5145 67.9115C53.7967 67.8233 53.3087 67.1821 53.3991 66.4459L54.0419 61.2105C54.1223 60.5561 54.7609 59.9702 55.4787 60.0583L60.5833 60.6851ZM71.9268 42.1491C70.4911 41.9729 69.5151 40.6905 69.6959 39.2181C69.8667 37.8274 71.134 36.7375 72.5696 36.9137L95.54 39.7341C96.8959 39.9006 97.9416 41.2746 97.7708 42.6652C97.59 44.1377 96.253 45.136 94.8971 44.9695L71.9268 42.1491ZM92.3258 65.9112C93.6817 66.0777 94.7274 67.4516 94.5567 68.8423C94.3759 70.3147 93.0389 71.3131 91.683 71.1466L68.7126 68.3262C67.277 68.1499 66.301 66.8676 66.4818 65.3951C66.6526 64.0044 67.9198 62.9145 69.3555 63.0908L92.3258 65.9112ZM93.9329 52.8227C95.2888 52.9891 96.3345 54.3631 96.1637 55.7537C95.983 57.2262 94.646 58.2245 93.2901 58.0581L70.3197 55.2377C68.8841 55.0614 67.9081 53.779 68.0889 52.3066C68.2596 50.9159 69.5269 49.826 70.9625 50.0023L93.9329 52.8227Z" fill="#669AB3"/>
<defs>
<linearGradient id="paint0_linear_23594_197369" x1="44.2123" y1="20.9669" x2="54.8082" y2="107.932" gradientUnits="userSpaceOnUse">
<stop stop-color="#E6EEF2"/>
<stop offset="1" stop-color="#99BBCD"/>
</linearGradient>
<linearGradient id="paint1_linear_23594_197369" x1="34.0455" y1="0" x2="34.0455" y2="67.5833" gradientUnits="userSpaceOnUse">
<stop stop-color="white" stop-opacity="0.24"/>
<stop offset="1" stop-color="white" stop-opacity="0.08"/>
</linearGradient>
<linearGradient id="paint2_linear_23594_197369" x1="34.0455" y1="0" x2="34.0455" y2="67.5833" gradientUnits="userSpaceOnUse">
<stop stop-color="white" stop-opacity="0.6"/>
<stop offset="1" stop-color="white" stop-opacity="0.1"/>
</linearGradient>
<linearGradient id="paint3_linear_23594_197369" x1="44.2123" y1="20.9689" x2="54.8082" y2="107.934" gradientUnits="userSpaceOnUse">
<stop stop-color="#005681"/>
<stop offset="1" stop-color="#00344D"/>
</linearGradient>
<linearGradient id="paint4_linear_23594_197369" x1="63.9027" y1="68.4997" x2="61.8858" y2="109.15" gradientUnits="userSpaceOnUse">
<stop stop-color="#33789A"/>
<stop offset="1" stop-color="#33789A" stop-opacity="0"/>
</linearGradient>
<linearGradient id="paint5_linear_23594_197369" x1="81.3334" y1="6.5295" x2="69.8606" y2="100.691" gradientUnits="userSpaceOnUse">
<stop stop-color="#E6EEF2"/>
<stop offset="1" stop-color="#99BBCD"/>
</linearGradient>
<linearGradient id="paint6_linear_23594_197369" x1="36.8632" y1="0" x2="36.8632" y2="73.1765" gradientUnits="userSpaceOnUse">
<stop stop-color="white" stop-opacity="0.24"/>
<stop offset="1" stop-color="white" stop-opacity="0.08"/>
</linearGradient>
<linearGradient id="paint7_linear_23594_197369" x1="36.8632" y1="0" x2="36.8632" y2="73.1765" gradientUnits="userSpaceOnUse">
<stop stop-color="white" stop-opacity="0.6"/>
<stop offset="1" stop-color="white" stop-opacity="0.1"/>
</linearGradient>
</defs>
</svg>
