<svg width="88" height="88" viewBox="0 0 88 88" fill="none" xmlns="http://www.w3.org/2000/svg">
<mask id="path-1-inside-1_6594_520141" fill="white">
<path d="M3.58785 27.4269C3.12512 23.6582 5.8051 20.228 9.57375 19.7653L57.34 13.9003C61.1087 13.4376 64.5389 16.1176 65.0016 19.8862L70.8666 67.6525C71.3293 71.4212 68.6494 74.8514 64.8807 75.3141L17.1144 81.1791C13.3458 81.6418 9.91555 78.9618 9.45281 75.1932L3.58785 27.4269Z"/>
</mask>
<path d="M3.58785 27.4269C3.12512 23.6582 5.8051 20.228 9.57375 19.7653L57.34 13.9003C61.1087 13.4376 64.5389 16.1176 65.0016 19.8862L70.8666 67.6525C71.3293 71.4212 68.6494 74.8514 64.8807 75.3141L17.1144 81.1791C13.3458 81.6418 9.91555 78.9618 9.45281 75.1932L3.58785 27.4269Z" fill="url(#paint0_linear_6594_520141)"/>
<path d="M3.58785 27.4269C3.07885 23.2814 6.02682 19.5081 10.1723 18.9991L56.5739 13.3017C60.7194 12.7927 64.4926 15.7407 65.0016 19.8862C64.5852 16.4944 61.1925 14.12 57.4238 14.5827L9.65754 20.4477C5.88888 20.9104 3.17139 24.0351 3.58785 27.4269ZM71.7045 74.4763L10.2907 82.0169L71.7045 74.4763ZM10.2907 82.0169L2.75 20.6031L10.2907 82.0169ZM64.1638 13.0625L71.7045 74.4763L64.1638 13.0625Z" fill="white" fill-opacity="0.32" mask="url(#path-1-inside-1_6594_520141)"/>
<rect x="10.7947" y="26.8884" width="47.4375" height="47.4375" rx="5.15625" transform="rotate(-7 10.7947 26.8884)" fill="url(#paint1_linear_6594_520141)" stroke="url(#paint2_linear_6594_520141)" stroke-width="0.6875"/>
<g clip-path="url(#clip0_6594_520141)">
<path d="M48.2892 34.2084C49.6445 34.042 50.9321 35.0479 51.0985 36.4032L53.3513 54.7515C53.5242 56.1589 52.5118 57.3944 51.1565 57.5608L26.1361 60.6329C24.7287 60.8057 23.4996 59.8455 23.3268 58.4381L21.0739 40.0898C20.9075 38.7345 21.8614 37.4533 23.2688 37.2805L48.2892 34.2084ZM29.5893 54.2828L28.1557 42.6066C28.1045 42.1896 27.6363 41.8238 27.2192 41.875L25.5512 42.0798C25.0821 42.1374 24.7684 42.5992 24.8196 43.0162L26.2533 54.6924C26.3109 55.1615 26.7206 55.4816 27.1897 55.424L28.8577 55.2192C29.2747 55.168 29.6469 54.7519 29.5893 54.2828ZM32.9254 53.8732L31.4917 42.197C31.4405 41.78 30.9723 41.4141 30.5553 41.4653C30.0862 41.523 29.7725 41.9848 29.8237 42.4018L31.2574 54.078C31.315 54.5471 31.7246 54.8672 32.1938 54.8096C32.6108 54.7584 32.983 54.3423 32.9254 53.8732ZM36.2614 53.4635L34.8278 41.7873C34.7766 41.3703 34.3084 41.0045 33.8914 41.0557C33.4222 41.1133 33.1086 41.5751 33.1598 41.9922L34.5934 53.6684C34.651 54.1375 35.0607 54.4576 35.5298 54.4C35.9468 54.3488 36.319 53.9327 36.2614 53.4635ZM42.9336 52.6443L41.4999 40.9681C41.4487 40.5511 40.9805 40.1853 40.5635 40.2365L38.8955 40.4413C38.4263 40.4989 38.1126 40.9607 38.1638 41.3777L39.5975 53.0539C39.6551 53.5231 40.0648 53.8431 40.5339 53.7855L42.2019 53.5807C42.619 53.5295 42.9912 53.1134 42.9336 52.6443ZM49.6057 51.8251L48.172 40.1489C48.1208 39.7319 47.6526 39.3661 47.2356 39.4173L45.5676 39.6221C45.0984 39.6797 44.7848 40.1415 44.836 40.5585L46.2696 52.2347C46.3272 52.7038 46.7369 53.0239 47.206 52.9663L48.8741 52.7615C49.2911 52.7103 49.6633 52.2942 49.6057 51.8251Z" fill="#669AB3"/>
</g>
<mask id="mask0_6594_520141" style="mask-type:alpha" maskUnits="userSpaceOnUse" x="3" y="13" width="68" height="69">
<mask id="path-5-inside-2_6594_520141" fill="white">
<path d="M3.58785 27.4269C3.12512 23.6582 5.8051 20.228 9.57375 19.7653L57.34 13.9003C61.1087 13.4376 64.5389 16.1176 65.0016 19.8862L70.8666 67.6525C71.3293 71.4212 68.6494 74.8514 64.8807 75.3141L17.1144 81.1791C13.3458 81.6418 9.91555 78.9618 9.45281 75.1932L3.58785 27.4269Z"/>
</mask>
<path d="M3.58785 27.4269C3.12512 23.6582 5.8051 20.228 9.57375 19.7653L57.34 13.9003C61.1087 13.4376 64.5389 16.1176 65.0016 19.8862L70.8666 67.6525C71.3293 71.4212 68.6494 74.8514 64.8807 75.3141L17.1144 81.1791C13.3458 81.6418 9.91555 78.9618 9.45281 75.1932L3.58785 27.4269Z" fill="url(#paint3_linear_6594_520141)"/>
<path d="M3.58785 27.4269C3.07885 23.2814 6.02682 19.5081 10.1723 18.9991L56.5739 13.3017C60.7194 12.7927 64.4926 15.7407 65.0016 19.8862C64.5852 16.4944 61.1925 14.12 57.4238 14.5827L9.65754 20.4477C5.88888 20.9104 3.17139 24.0351 3.58785 27.4269ZM71.7045 74.4763L10.2907 82.0169L71.7045 74.4763ZM10.2907 82.0169L2.75 20.6031L10.2907 82.0169ZM64.1638 13.0625L71.7045 74.4763L64.1638 13.0625Z" fill="white" fill-opacity="0.32" mask="url(#path-5-inside-2_6594_520141)"/>
</mask>
<g mask="url(#mask0_6594_520141)">
<path d="M16.9459 62.321L65.0874 70.6498L72.9772 74.3523L6.28967 81.571L16.9459 62.321Z" fill="url(#paint4_linear_6594_520141)"/>
</g>
<mask id="path-8-inside-3_6594_520141" fill="white">
<path d="M22.6176 13.0113C23.0803 9.2426 26.5105 6.56262 30.2792 7.02535L78.0455 12.8903C81.8141 13.353 84.4941 16.7833 84.0314 20.5519L78.1664 68.3182C77.7037 72.0869 74.2735 74.7668 70.5048 74.3041L22.7385 68.4391C18.9699 67.9764 16.2899 64.5462 16.7526 60.7775L22.6176 13.0113Z"/>
</mask>
<path d="M22.6176 13.0113C23.0803 9.2426 26.5105 6.56262 30.2792 7.02535L78.0455 12.8903C81.8141 13.353 84.4941 16.7833 84.0314 20.5519L78.1664 68.3182C77.7037 72.0869 74.2735 74.7668 70.5048 74.3041L22.7385 68.4391C18.9699 67.9764 16.2899 64.5462 16.7526 60.7775L22.6176 13.0113Z" fill="url(#paint5_linear_6594_520141)"/>
<path d="M22.6176 13.0113C23.1266 8.86573 26.8998 5.91776 31.0454 6.42676L77.4469 12.1242C81.5924 12.6332 84.5404 16.4064 84.0314 20.5519C84.4478 17.1601 81.7304 14.0354 77.9617 13.5727L30.1954 7.70773C26.4268 7.24499 23.0341 9.61946 22.6176 13.0113ZM77.3286 75.142L15.9148 67.6013L77.3286 75.142ZM15.9148 67.6013L23.4554 6.1875L15.9148 67.6013ZM84.8692 13.7282L77.3286 75.142L84.8692 13.7282Z" fill="white" fill-opacity="0.32" mask="url(#path-8-inside-3_6594_520141)"/>
<rect x="29.7406" y="14.2323" width="47.4375" height="47.4375" rx="5.15625" transform="rotate(7 29.7406 14.2323)" fill="url(#paint6_linear_6594_520141)" stroke="url(#paint7_linear_6594_520141)" stroke-width="0.6875"/>
<path d="M58.5075 50.6348C59.8642 50.8014 60.8713 52.0904 60.7047 53.4471C60.5317 54.856 59.2491 55.8109 57.8924 55.6443C56.4835 55.4713 55.5222 54.241 55.6952 52.832C55.8618 51.4753 57.0986 50.4618 58.5075 50.6348ZM43.479 48.7896C44.8358 48.9562 45.8428 50.2451 45.6762 51.6019C45.5032 53.0108 44.2207 53.9657 42.8639 53.7991C41.455 53.6261 40.4937 52.3957 40.6667 50.9868C40.8333 49.63 42.0701 48.6166 43.479 48.7896ZM66.3637 31.948C66.6255 32.4039 66.6594 32.9907 66.4452 33.4411L62.345 43.1077C62.0466 43.8126 61.3627 44.2054 60.6322 44.1157L43.986 42.0718L44.1481 44.6342L60.2724 46.614C60.9508 46.6973 61.4543 47.3418 61.371 48.0202C61.2813 48.7507 60.6433 49.2021 59.9649 49.1188L42.8491 47.0172C42.2229 46.9403 41.7524 46.4588 41.7185 45.872L40.6186 28.9458L37.9052 28.6126C37.1746 28.5229 36.7169 27.937 36.8066 27.2065C36.8898 26.5281 37.4821 26.0182 38.2127 26.1079L41.9698 26.5692C42.5438 26.6397 43.008 27.1734 43.0419 27.7602L43.0693 28.3992L65.0902 31.103C65.6643 31.1735 66.1019 31.4921 66.3637 31.948Z" fill="#669AB3"/>
<defs>
<linearGradient id="paint0_linear_6594_520141" x1="33.4569" y1="16.8328" x2="40.9976" y2="78.2466" gradientUnits="userSpaceOnUse">
<stop stop-color="#E6EEF2"/>
<stop offset="1" stop-color="#99BBCD"/>
</linearGradient>
<linearGradient id="paint1_linear_6594_520141" x1="34.4741" y1="26.5891" x2="34.4741" y2="74.7141" gradientUnits="userSpaceOnUse">
<stop stop-color="white" stop-opacity="0.24"/>
<stop offset="1" stop-color="white" stop-opacity="0.08"/>
</linearGradient>
<linearGradient id="paint2_linear_6594_520141" x1="34.4741" y1="26.5891" x2="34.4741" y2="74.7141" gradientUnits="userSpaceOnUse">
<stop stop-color="white" stop-opacity="0.6"/>
<stop offset="1" stop-color="white" stop-opacity="0.1"/>
</linearGradient>
<linearGradient id="paint3_linear_6594_520141" x1="33.4569" y1="16.8328" x2="40.9976" y2="78.2466" gradientUnits="userSpaceOnUse">
<stop stop-color="#E6EEF2"/>
<stop offset="1" stop-color="#99BBCD"/>
</linearGradient>
<linearGradient id="paint4_linear_6594_520141" x1="44.9237" y1="48.4129" x2="39.7365" y2="82.1425" gradientUnits="userSpaceOnUse">
<stop offset="0.355" stop-color="#33789A" stop-opacity="0.64"/>
<stop offset="1" stop-color="#33789A" stop-opacity="0.08"/>
</linearGradient>
<linearGradient id="paint5_linear_6594_520141" x1="54.1623" y1="9.95783" x2="46.6217" y2="71.3716" gradientUnits="userSpaceOnUse">
<stop stop-color="#E6EEF2"/>
<stop offset="1" stop-color="#99BBCD"/>
</linearGradient>
<linearGradient id="paint6_linear_6594_520141" x1="53.5038" y1="13.8492" x2="53.5038" y2="61.9742" gradientUnits="userSpaceOnUse">
<stop stop-color="white" stop-opacity="0.24"/>
<stop offset="1" stop-color="white" stop-opacity="0.08"/>
</linearGradient>
<linearGradient id="paint7_linear_6594_520141" x1="53.5038" y1="13.8492" x2="53.5038" y2="61.9742" gradientUnits="userSpaceOnUse">
<stop stop-color="white" stop-opacity="0.6"/>
<stop offset="1" stop-color="white" stop-opacity="0.1"/>
</linearGradient>
<clipPath id="clip0_6594_520141">
<rect width="30.25" height="30.25" fill="white" transform="translate(20.3717 34.3708) rotate(-7)"/>
</clipPath>
</defs>
</svg>
