<svg width="14" height="14" viewBox="0 0 14 14" fill="none" xmlns="http://www.w3.org/2000/svg">
<path d="M6.25 0.75C6.46875 0.552083 6.71875 0.447917 7 0.4375C7.28125 0.447917 7.53125 0.552083 7.75 0.75L9.25 2.25C9.44792 2.46875 9.55208 2.71875 9.5625 3C9.55208 3.28125 9.44792 3.53125 9.25 3.75L7.75 5.25C7.53125 5.44792 7.28125 5.55208 7 5.5625C6.71875 5.55208 6.46875 5.44792 6.25 5.25L4.75 3.75C4.55208 3.53125 4.44792 3.28125 4.4375 3C4.44792 2.71875 4.55208 2.46875 4.75 2.25L6.25 0.75ZM5.5 3L7 4.5L8.5 3L7 1.5L5.5 3ZM2.25 4.75C2.46875 4.55208 2.71875 4.44792 3 4.4375C3.28125 4.44792 3.53125 4.55208 3.75 4.75L5.25 6.25C5.44792 6.46875 5.55208 6.71875 5.5625 7C5.55208 7.28125 5.44792 7.53125 5.25 7.75L3.75 9.25C3.53125 9.44792 3.28125 9.55208 3 9.5625C2.71875 9.55208 2.46875 9.44792 2.25 9.25L0.75 7.75C0.552083 7.53125 0.447917 7.28125 0.4375 7C0.447916 6.71875 0.552083 6.46875 0.75 6.25L2.25 4.75ZM1.5 7L3 8.5L4.5 7L3 5.5L1.5 7ZM13.25 6.25C13.4479 6.46875 13.5521 6.71875 13.5625 7C13.5521 7.28125 13.4479 7.53125 13.25 7.75L11.75 9.25C11.5313 9.44792 11.2812 9.55208 11 9.5625C10.7188 9.55208 10.4688 9.44792 10.25 9.25L8.75 7.75C8.55208 7.53125 8.44792 7.28125 8.4375 7C8.44792 6.71875 8.55208 6.46875 8.75 6.25L10.25 4.75C10.4688 4.55208 10.7188 4.44792 11 4.4375C11.2813 4.44792 11.5313 4.55208 11.75 4.75L13.25 6.25ZM12.5 7L11 5.5L9.5 7L11 8.5L12.5 7ZM6.25 8.75C6.46875 8.55208 6.71875 8.44792 7 8.4375C7.28125 8.44792 7.53125 8.55208 7.75 8.75L9.25 10.25C9.44792 10.4688 9.55208 10.7188 9.5625 11C9.55208 11.2813 9.44792 11.5313 9.25 11.75L7.75 13.25C7.53125 13.4479 7.28125 13.5521 7 13.5625C6.71875 13.5521 6.46875 13.4479 6.25 13.25L4.75 11.75C4.55208 11.5312 4.44792 11.2812 4.4375 11C4.44792 10.7188 4.55208 10.4687 4.75 10.25L6.25 8.75ZM5.5 11L7 12.5L8.5 11L7 9.5L5.5 11Z" fill="currentColor"/>
</svg>
