<svg width="14" height="14" viewBox="0 0 14 14" fill="none" xmlns="http://www.w3.org/2000/svg">
<path d="M7.74999 5.24994C7.53124 5.44786 7.28125 5.55202 7 5.56244C6.71875 5.55202 6.46876 5.44786 6.25001 5.24994L4.75002 3.74996C4.55211 3.53121 4.44794 3.28122 4.43753 2.99997C4.44794 2.71872 4.55211 2.46872 4.75002 2.24998L6.25001 0.749992C6.46876 0.552077 6.71875 0.447912 7 0.437495C7.28125 0.447912 7.53124 0.552077 7.74999 0.749992L9.24998 2.24998C9.44789 2.46872 9.55206 2.71872 9.56247 2.99997C9.55206 3.28122 9.44789 3.53121 9.24998 3.74996L7.74999 5.24994ZM3.75003 9.2499C3.53129 9.44782 3.28129 9.55198 3.00004 9.5624C2.7188 9.55198 2.4688 9.44782 2.25005 9.2499L0.750066 7.74992C0.552152 7.53117 0.447986 7.28117 0.437569 6.99993C0.447986 6.71868 0.552152 6.46868 0.750066 6.24993L2.25005 4.74995C2.4688 4.55204 2.7188 4.44787 3.00004 4.43745C3.28129 4.44787 3.53129 4.55203 3.75003 4.74995L5.25002 6.24993C5.44793 6.46868 5.5521 6.71868 5.56252 6.99993C5.5521 7.28117 5.44793 7.53117 5.25002 7.74992L3.75003 9.2499ZM10.25 4.74995C10.4687 4.55203 10.7187 4.44787 11 4.43745C11.2812 4.44787 11.5312 4.55204 11.7499 4.74995L13.2499 6.24993C13.4478 6.46868 13.552 6.71868 13.5624 6.99993C13.552 7.28117 13.4478 7.53117 13.2499 7.74992L11.7499 9.2499C11.5312 9.44782 11.2812 9.55198 11 9.5624C10.7187 9.55198 10.4687 9.44782 10.25 9.2499L8.74998 7.74992C8.55207 7.53117 8.4479 7.28117 8.43748 6.99993C8.4479 6.71868 8.55207 6.46868 8.74998 6.24993L10.25 4.74995ZM7.74999 13.2499C7.53124 13.4478 7.28125 13.5519 7 13.5624C6.71875 13.5519 6.46876 13.4478 6.25001 13.2499L4.75002 11.7499C4.55211 11.5311 4.44794 11.2811 4.43753 10.9999C4.44794 10.7186 4.55211 10.4686 4.75002 10.2499L6.25001 8.74991C6.46876 8.55199 6.71875 8.44783 7 8.43741C7.28125 8.44783 7.53124 8.55199 7.74999 8.74991L9.24998 10.2499C9.44789 10.4686 9.55206 10.7186 9.56247 10.9999C9.55206 11.2811 9.44789 11.5311 9.24998 11.7499L7.74999 13.2499Z" fill="currentColor"/>
</svg>
