<svg width="14" height="14" viewBox="0 0 14 14" fill="none" xmlns="http://www.w3.org/2000/svg">
<g id="Menu_icon">
<path id="Icon" d="M4.5 9.625C4.71875 9.625 4.9375 9.84375 4.9375 10.0625V10.9375C4.9375 11.1836 4.71875 11.375 4.5 11.375H3.625C3.37891 11.375 3.1875 11.1836 3.1875 10.9375V10.0625C3.1875 9.84375 3.37891 9.625 3.625 9.625H4.5ZM4.5 6.125C4.71875 6.125 4.9375 6.34375 4.9375 6.5625V7.4375C4.9375 7.68359 4.71875 7.875 4.5 7.875H3.625C3.37891 7.875 3.1875 7.68359 3.1875 7.4375V6.5625C3.1875 6.34375 3.37891 6.125 3.625 6.125H4.5ZM4.5 2.625C4.71875 2.625 4.9375 2.84375 4.9375 3.0625V3.9375C4.9375 4.18359 4.71875 4.375 4.5 4.375H3.625C3.37891 4.375 3.1875 4.18359 3.1875 3.9375V3.0625C3.1875 2.84375 3.37891 2.625 3.625 2.625H4.5ZM11.5 0C12.457 0 13.25 0.792969 13.25 1.75V12.25C13.25 13.2344 12.457 14 11.5 14H2.75C1.76562 14 1 13.2344 1 12.25V1.75C1 0.792969 1.76562 0 2.75 0H11.5ZM11.9375 12.25V1.75C11.9375 1.53125 11.7188 1.3125 11.5 1.3125H2.75C2.50391 1.3125 2.3125 1.53125 2.3125 1.75V12.25C2.3125 12.4961 2.50391 12.6875 2.75 12.6875H11.5C11.7188 12.6875 11.9375 12.4961 11.9375 12.25ZM10.4062 2.84375C10.7617 2.84375 11.0625 3.14453 11.0625 3.5C11.0625 3.88281 10.7617 4.15625 10.4062 4.15625H6.46875C6.08594 4.15625 5.8125 3.88281 5.8125 3.5C5.8125 3.14453 6.08594 2.84375 6.46875 2.84375H10.4062ZM10.4062 6.34375C10.7617 6.34375 11.0625 6.64453 11.0625 7C11.0625 7.38281 10.7617 7.65625 10.4062 7.65625H6.46875C6.08594 7.65625 5.8125 7.38281 5.8125 7C5.8125 6.64453 6.08594 6.34375 6.46875 6.34375H10.4062ZM10.4062 9.84375C10.7617 9.84375 11.0625 10.1445 11.0625 10.5C11.0625 10.8828 10.7617 11.1562 10.4062 11.1562H6.46875C6.08594 11.1562 5.8125 10.8828 5.8125 10.5C5.8125 10.1445 6.08594 9.84375 6.46875 9.84375H10.4062Z" fill="currentColor"/>
</g>
</svg>
