<svg width="14" height="14" viewBox="0 0 14 14" fill="none" xmlns="http://www.w3.org/2000/svg">
<g id="menu_line_icon">
<path id="Icon" d="M12.8333 3.55556C13.4653 3.55556 14 4.09028 14 4.72222V9.38889C14 10.0451 13.4653 10.5556 12.8333 10.5556H3.5C2.84375 10.5556 2.33333 10.0451 2.33333 9.38889V3.16667C2.33333 2.53472 2.84375 2 3.5 2H6.61111L8.16667 3.55556H12.8333ZM1.16667 10.9444C1.16667 11.3819 1.50694 11.7222 1.94444 11.7222H11.6667C11.6667 12.3785 11.1319 12.8889 10.5 12.8889H1.55556C0.680556 12.8889 0 12.2083 0 11.3333V6.27778C0 5.64583 0.510417 5.11111 1.16667 5.11111V10.9444Z" fill="currentColor"/>
</g>
</svg>
