<svg width="14" height="14" viewBox="0 0 14 14" fill="none" xmlns="http://www.w3.org/2000/svg">
<g id="Modify Menu_icon">
<g id="Icon">
<path d="M4.5 9.625C4.71875 9.625 4.9375 9.84375 4.9375 10.0625V10.9375C4.9375 11.1836 4.71875 11.375 4.5 11.375H3.625C3.37891 11.375 3.1875 11.1836 3.1875 10.9375V10.0625C3.1875 9.84375 3.37891 9.625 3.625 9.625H4.5Z" fill="currentColor"/>
<path d="M4.5 6.125C4.71875 6.125 4.9375 6.34375 4.9375 6.5625V7.4375C4.9375 7.68359 4.71875 7.875 4.5 7.875H3.625C3.37891 7.875 3.1875 7.68359 3.1875 7.4375V6.5625C3.1875 6.34375 3.37891 6.125 3.625 6.125H4.5Z" fill="currentColor"/>
<path d="M4.5 2.625C4.71875 2.625 4.9375 2.84375 4.9375 3.0625V3.9375C4.9375 4.18359 4.71875 4.375 4.5 4.375H3.625C3.37891 4.375 3.1875 4.18359 3.1875 3.9375V3.0625C3.1875 2.84375 3.37891 2.625 3.625 2.625H4.5Z" fill="currentColor"/>
<path d="M11.5 0C12.457 0 13.25 0.792969 13.25 1.75V7H12L11.9375 7.0625V1.75C11.9375 1.53125 11.7188 1.3125 11.5 1.3125H2.75C2.50391 1.3125 2.3125 1.53125 2.3125 1.75V12.25C2.3125 12.4961 2.50391 12.6875 2.75 12.6875H7V14H2.75C1.76562 14 1 13.2344 1 12.25V1.75C1 0.792969 1.76562 0 2.75 0H11.5Z" fill="currentColor"/>
<path d="M6.46875 9.84375H9.15625L7.84375 11.1562H6.46875C6.08594 11.1562 5.8125 10.8828 5.8125 10.5C5.8125 10.1445 6.08594 9.84375 6.46875 9.84375Z" fill="currentColor"/>
<path d="M10.4062 2.84375C10.7617 2.84375 11.0625 3.14453 11.0625 3.5C11.0625 3.88281 10.7617 4.15625 10.4062 4.15625H6.46875C6.08594 4.15625 5.8125 3.88281 5.8125 3.5C5.8125 3.14453 6.08594 2.84375 6.46875 2.84375H10.4062Z" fill="currentColor"/>
<path d="M10.4062 6.34375C10.7617 6.34375 11.0625 6.64453 11.0625 7C11.0625 7.38281 10.7617 7.65625 10.4062 7.65625H6.46875C6.08594 7.65625 5.8125 7.38281 5.8125 7C5.8125 6.64453 6.08594 6.34375 6.46875 6.34375H10.4062Z" fill="currentColor"/>
<path d="M8.09393 12.2857C8.02348 12.3562 8 12.4501 8 12.5441V14H9.45597C9.5499 14 9.64384 13.9765 9.71429 13.9061L12.6497 10.9472L11.0528 9.35032L8.09393 12.2857Z" fill="currentColor"/>
<path d="M13.1898 10.4071L13.8239 9.77302C14.0587 9.53818 14.0587 9.16245 13.8239 8.92762L13.0724 8.17615C12.955 8.05873 12.8141 7.98828 12.6497 7.98828C12.5088 7.98828 12.3444 8.05873 12.227 8.17615L11.593 8.8102L13.1898 10.4071Z" fill="currentColor"/>
</g>
</g>
</svg>
