<svg xmlns="http://www.w3.org/2000/svg" width="14" height="14" viewBox="0 0 14 14" fill="none">
    <path d="M5.25 0.625C5.71484 0.625 6.125 1.03516 6.125 1.5V3.25C6.125 3.74219 5.71484 4.125 5.25 4.125H3.5C3.00781 4.125 2.625 3.74219 2.625 3.25V1.5C2.625 1.03516 3.00781 0.625 3.5 0.625H5.25ZM5.25 5C5.71484 5 6.125 5.41016 6.125 5.875V7.625C6.125 8.11719 5.71484 8.5 5.25 8.5H3.5C3.00781 8.5 2.625 8.11719 2.625 7.625V5.875C2.625 5.41016 3.00781 5 3.5 5H5.25ZM5.25 9.375C5.71484 9.375 6.125 9.78516 6.125 10.25V12C6.125 12.4922 5.71484 12.875 5.25 12.875H3.5C3.00781 12.875 2.625 12.4922 2.625 12V10.25C2.625 9.78516 3.00781 9.375 3.5 9.375H5.25ZM10.5 0.625C10.9648 0.625 11.375 1.03516 11.375 1.5V3.25C11.375 3.74219 10.9648 4.125 10.5 4.125H8.75C8.25781 4.125 7.875 3.74219 7.875 3.25V1.5C7.875 1.03516 8.25781 0.625 8.75 0.625H10.5ZM10.5 5C10.9648 5 11.375 5.41016 11.375 5.875V7.625C11.375 8.11719 10.9648 8.5 10.5 8.5H8.75C8.25781 8.5 7.875 8.11719 7.875 7.625V5.875C7.875 5.41016 8.25781 5 8.75 5H10.5ZM10.5 9.375C10.9648 9.375 11.375 9.78516 11.375 10.25V12C11.375 12.4922 10.9648 12.875 10.5 12.875H8.75C8.25781 12.875 7.875 12.4922 7.875 12V10.25C7.875 9.78516 8.25781 9.375 8.75 9.375H10.5Z" fill="currentColor"/>
</svg>
