<svg width="14" height="14" viewBox="0 0 14 14" fill="none" xmlns="http://www.w3.org/2000/svg">
<g id="move-left_icon">
<path id="Icon" d="M13.5 7C13.5 7.29167 13.4128 7.53125 13.2383 7.71875C13.0831 7.90625 12.8699 8 12.5984 8H3.67002L6.7528 11.2812C6.92729 11.4896 7.01454 11.7292 7.01454 12C7.01454 12.2708 6.92729 12.5104 6.7528 12.7188C6.55891 12.9063 6.33594 13 6.08389 13C5.83184 13 5.60887 12.9063 5.41499 12.7188L0.761745 7.71875C0.587248 7.51042 0.5 7.27083 0.5 7C0.5 6.72917 0.587248 6.48958 0.761745 6.28125L5.41499 1.28125C5.60887 1.09375 5.83184 1 6.08389 1C6.33594 1 6.55891 1.09375 6.7528 1.28125C6.92729 1.48958 7.01454 1.72917 7.01454 2C7.01454 2.27083 6.92729 2.51042 6.7528 2.71875L3.67002 6H12.5984C12.8699 6 13.0831 6.09375 13.2383 6.28125C13.4128 6.46875 13.5 6.70833 13.5 7Z" fill="currentColor"/>
</g>
</svg>
