<svg width="14" height="14" viewBox="0 0 14 14" fill="none" xmlns="http://www.w3.org/2000/svg">
<g id="Move_icon">
<path id="Icon" d="M7.61803 0.256373C7.2762 -0.0854576 6.72107 -0.0854576 6.37924 0.256373L4.62907 2.00654C4.28724 2.34837 4.28724 2.90351 4.62907 3.24534C4.9709 3.58717 5.52603 3.58717 5.86786 3.24534L6.12491 2.98828V6.12491H2.98828L3.24534 5.86786C3.58717 5.52603 3.58717 4.9709 3.24534 4.62907C2.90351 4.28724 2.34837 4.28724 2.00654 4.62907L0.256373 6.37924C-0.0854576 6.72107 -0.0854576 7.2762 0.256373 7.61803L2.00654 9.3682C2.34837 9.71003 2.90351 9.71003 3.24534 9.3682C3.58717 9.02637 3.58717 8.47124 3.24534 8.12941L2.98828 7.87235H6.12491V11.0117L5.86786 10.7547C5.52603 10.4128 4.9709 10.4128 4.62907 10.7547C4.28724 11.0965 4.28724 11.6516 4.62907 11.9935L6.37924 13.7436C6.72107 14.0855 7.2762 14.0855 7.61803 13.7436L9.3682 11.9935C9.71003 11.6516 9.71003 11.0965 9.3682 10.7547C9.02637 10.4128 8.47124 10.4128 8.12941 10.7547L7.87235 11.0117V7.87509H11.0117L10.7547 8.13214C10.4128 8.47397 10.4128 9.0291 10.7547 9.37093C11.0965 9.71276 11.6516 9.71276 11.9935 9.37093L13.7436 7.62076C14.0855 7.27893 14.0855 6.7238 13.7436 6.38197L11.9935 4.6318C11.6516 4.28997 11.0965 4.28997 10.7547 4.6318C10.4128 4.97363 10.4128 5.52876 10.7547 5.87059L11.0117 6.12765H7.87509V2.98828L8.13214 3.24534C8.47397 3.58717 9.0291 3.58717 9.37093 3.24534C9.71276 2.90351 9.71276 2.34837 9.37093 2.00654L7.62076 0.256373H7.61803Z" fill="currentColor"/>
</g>
</svg>
