<svg width="14" height="14" viewBox="0 0 14 14" fill="none" xmlns="http://www.w3.org/2000/svg">
<g id="move-at the end_icon">
<path id="Icon" d="M4.62109 4.12891C4.45703 3.94661 4.375 3.73698 4.375 3.5C4.375 3.26302 4.45703 3.05339 4.62109 2.87109C4.80339 2.70703 5.01302 2.625 5.25 2.625C5.48698 2.625 5.69661 2.70703 5.87891 2.87109L9.37891 6.37109C9.54297 6.55339 9.625 6.76302 9.625 7C9.625 7.23698 9.54297 7.44661 9.37891 7.62891L5.87891 11.1289C5.69661 11.293 5.48698 11.375 5.25 11.375C5.01302 11.375 4.80339 11.293 4.62109 11.1289C4.45703 10.9466 4.375 10.737 4.375 10.5C4.375 10.263 4.45703 10.0534 4.62109 9.87109L6.64453 7.875H1.75C1.49479 7.875 1.28516 7.79297 1.12109 7.62891C0.957031 7.46484 0.875 7.25521 0.875 7C0.875 6.74479 0.957031 6.53516 1.12109 6.37109C1.28516 6.20703 1.49479 6.125 1.75 6.125H6.64453L4.62109 4.12891ZM11.375 2.625C11.375 2.36979 11.457 2.16016 11.6211 1.99609C11.7852 1.83203 11.9948 1.75 12.25 1.75C12.5052 1.75 12.7148 1.83203 12.8789 1.99609C13.043 2.16016 13.125 2.36979 13.125 2.625V11.375C13.125 11.6302 13.043 11.8398 12.8789 12.0039C12.7148 12.168 12.5052 12.25 12.25 12.25C11.9948 12.25 11.7852 12.168 11.6211 12.0039C11.457 11.8398 11.375 11.6302 11.375 11.375V2.625Z" fill="currentColor"/>
</g>
</svg>
