<svg width="14" height="14" viewBox="0 0 14 14" fill="none" xmlns="http://www.w3.org/2000/svg">
<g id="move-at the beggining_icon">
<path id="Icon" d="M9.37891 2.87109C9.54297 3.05339 9.625 3.26302 9.625 3.5C9.625 3.73698 9.54297 3.94661 9.37891 4.12891L7.35547 6.125H12.25C12.5052 6.125 12.7148 6.20703 12.8789 6.37109C13.043 6.53516 13.125 6.74479 13.125 7C13.125 7.25521 13.043 7.46484 12.8789 7.62891C12.7148 7.79297 12.5052 7.875 12.25 7.875H7.35547L9.37891 9.87109C9.54297 10.0534 9.625 10.263 9.625 10.5C9.625 10.737 9.54297 10.9466 9.37891 11.1289C9.19661 11.293 8.98698 11.375 8.75 11.375C8.51302 11.375 8.30339 11.293 8.12109 11.1289L4.62109 7.62891C4.45703 7.44661 4.375 7.23698 4.375 7C4.375 6.76302 4.45703 6.55339 4.62109 6.37109L8.12109 2.87109C8.30339 2.70703 8.51302 2.625 8.75 2.625C8.98698 2.625 9.19661 2.70703 9.37891 2.87109ZM1.75 1.75C2.00521 1.75 2.21484 1.83203 2.37891 1.99609C2.54297 2.16016 2.625 2.36979 2.625 2.625V11.375C2.625 11.6302 2.54297 11.8398 2.37891 12.0039C2.21484 12.168 2.00521 12.25 1.75 12.25C1.49479 12.25 1.28516 12.168 1.12109 12.0039C0.957031 11.8398 0.875 11.6302 0.875 11.375V2.625C0.875 2.36979 0.957031 2.16016 1.12109 1.99609C1.28516 1.83203 1.49479 1.75 1.75 1.75Z" fill="currentColor"/>
</g>
</svg>
