<svg width="14" height="14" viewBox="0 0 14 14" fill="none" xmlns="http://www.w3.org/2000/svg">
<g id="move-right_icon">
<path id="Icon" d="M13.2388 7.71875L8.59598 12.7188C8.40253 12.9063 8.18006 13 7.92857 13C7.67708 13 7.45461 12.9063 7.26116 12.7188C7.08705 12.5104 7 12.2708 7 12C7 11.7292 7.08705 11.4896 7.26116 11.2812L10.3371 8H1.42857C1.15774 8 0.935268 7.90625 0.761161 7.71875C0.587054 7.53125 0.5 7.29167 0.5 7C0.5 6.70833 0.587054 6.46875 0.761161 6.28125C0.935268 6.09375 1.15774 6 1.42857 6H10.3371L7.26116 2.71875C7.08705 2.51042 7 2.27083 7 2C7 1.72917 7.08705 1.48958 7.26116 1.28125C7.45461 1.09375 7.67708 1 7.92857 1C8.18006 1 8.40253 1.09375 8.59598 1.28125L13.2388 6.28125C13.4129 6.48958 13.5 6.72917 13.5 7C13.5 7.27083 13.4129 7.51042 13.2388 7.71875Z" fill="currentColor"/>
</g>
</svg>
