<svg width="14" height="14" viewBox="0 0 14 14" fill="none" xmlns="http://www.w3.org/2000/svg">
<g id="Nested_icon">
<path id="Icon" d="M0 1.5C0.0208333 1.08333 0.166667 0.729167 0.4375 0.4375C0.729167 0.166667 1.08333 0.0208333 1.5 0H4.5C4.91667 0.0208333 5.27083 0.166667 5.5625 0.4375C5.83333 0.729167 5.97917 1.08333 6 1.5V4.5C5.97917 4.91667 5.83333 5.27083 5.5625 5.5625C5.27083 5.83333 4.91667 5.97917 4.5 6H4V9C4 9.29167 4.09375 9.53125 4.28125 9.71875C4.46875 9.90625 4.70833 10 5 10H8V9.5C8.02083 9.08333 8.16667 8.72917 8.4375 8.4375C8.72917 8.16667 9.08333 8.02083 9.5 8H12.5C12.9167 8.02083 13.2708 8.16667 13.5625 8.4375C13.8333 8.72917 13.9792 9.08333 14 9.5V12.5C13.9792 12.9167 13.8333 13.2708 13.5625 13.5625C13.2708 13.8333 12.9167 13.9792 12.5 14H9.5C9.08333 13.9792 8.72917 13.8333 8.4375 13.5625C8.16667 13.2708 8.02083 12.9167 8 12.5V12H5C4.14583 11.9792 3.4375 11.6875 2.875 11.125C2.3125 10.5625 2.02083 9.85417 2 9V6H1.5C1.08333 5.97917 0.729167 5.83333 0.4375 5.5625C0.166667 5.27083 0.0208333 4.91667 0 4.5V1.5Z" fill="currentColor"/>
</g>
</svg>
