<svg width="14" height="14" viewBox="0 0 14 14" fill="none" xmlns="http://www.w3.org/2000/svg">
<g id="online_shop_icon">
<path id="Icon" d="M6.24192 0.311815L7.06321 3.26846C7.25484 4.19926 7.03583 5.15743 6.46093 5.86922C6.10504 6.27986 5.69439 6.581 5.20162 6.77264L5.39325 13.343C5.39325 13.5072 5.31112 13.6989 5.20162 13.8084C5.06473 13.9452 4.90048 14 4.73622 14H3.42215C3.23052 14 3.06626 13.9452 2.92938 13.8084C2.81987 13.6989 2.73774 13.5072 2.76512 13.343L2.92938 6.77264C2.4366 6.581 2.02596 6.27986 1.67006 5.86922C1.09516 5.15743 0.87615 4.19926 1.06778 3.29584L1.88908 0.311815C1.94383 0.12018 2.16284 -0.0440778 2.38185 0.010675C2.60086 0.0380514 2.76512 0.229686 2.76512 0.448697V4.39089H3.23052L3.64116 0.393944C3.64116 0.174933 3.8328 0.010675 4.07919 0.010675C4.2982 0.010675 4.48983 0.174933 4.48983 0.393944L4.90048 4.39089H5.39325V0.448697C5.39325 0.229686 5.53013 0.0380514 5.74914 0.010675C5.99553 -0.0440778 6.18717 0.12018 6.24192 0.311815ZM12.5932 0.010675C12.9765 0.010675 13.2776 0.284439 13.2776 0.667708V13.3703C13.2776 13.7262 12.9765 14 12.5932 14H11.2792C11.1149 14 10.9507 13.9452 10.8138 13.8084C10.7043 13.6715 10.6221 13.5072 10.6495 13.3156L10.9233 8.25096C6.15979 4.035 11.0602 0.010675 12.5932 0.010675Z" fill="currentColor"/>
</g>
</svg>
