<svg width="14" height="14" viewBox="0 0 14 14" fill="none" xmlns="http://www.w3.org/2000/svg">
<g id="open-modal_icon">
<path id="Icon" fill-rule="evenodd" clip-rule="evenodd" d="M13.4805 1.39941C13.8086 1.72754 13.9818 2.1377 14 2.62988V11.3799C13.9818 11.8721 13.8086 12.2822 13.4805 12.6104C13.1523 12.9385 12.7422 13.1117 12.25 13.1299H1.75C1.25781 13.1117 0.847656 12.9385 0.519531 12.6104C0.191406 12.2822 0.0182292 11.8721 0 11.3799V2.62988C0.0182292 2.1377 0.191406 1.72754 0.519531 1.39941C0.847656 1.07129 1.25781 0.898112 1.75 0.879883H12.25C12.7422 0.898112 13.1523 1.07129 13.4805 1.39941ZM2.0125 2.18143C1.6259 2.18143 1.3125 2.49483 1.3125 2.88143V10.9814C1.3125 11.368 1.6259 11.6814 2.0125 11.6814H8.5V2.18143H2.0125Z" fill="currentColor"/>
</g>
</svg>
