<svg width="14" height="14" viewBox="0 0 14 14" fill="none" xmlns="http://www.w3.org/2000/svg">
<g id="Open drawer_icon">
<path id="Icon" d="M9.53125 4.0625C9.88672 4.0625 10.1875 4.36328 10.1875 4.71875V8.98438C10.1875 9.33984 9.88672 9.64062 9.53125 9.64062C9.14844 9.64062 8.875 9.33984 8.875 8.98438V6.30469L5.15625 9.99609C5.04688 10.1328 4.88281 10.1875 4.71875 10.1875C4.52734 10.1875 4.36328 10.1328 4.25391 9.99609C3.98047 9.75 3.98047 9.33984 4.25391 9.09375L7.94531 5.375H5.26562C4.91016 5.375 4.60938 5.10156 4.60938 4.71875C4.60938 4.36328 4.91016 4.0625 5.26562 4.0625H9.53125ZM11.5 1C12.457 1 13.25 1.79297 13.25 2.75V11.5C13.25 12.4844 12.457 13.25 11.5 13.25H2.75C1.76562 13.25 1 12.4844 1 11.5V2.75C1 1.79297 1.76562 1 2.75 1H11.5ZM11.9375 11.5V2.75C11.9375 2.53125 11.7188 2.3125 11.5 2.3125H2.75C2.50391 2.3125 2.3125 2.53125 2.3125 2.75V11.5C2.3125 11.7461 2.50391 11.9375 2.75 11.9375H11.5C11.7188 11.9375 11.9375 11.7461 11.9375 11.5Z" fill="currentColor"/>
</g>
</svg>
