<svg width="14" height="14" viewBox="0 0 14 14" fill="none" xmlns="http://www.w3.org/2000/svg">
<g id="Ordered list_icon">
<path id="Icon" d="M12.2505 6.28252C12.6487 6.28252 13 6.61753 13 6.99721C13 7.39922 12.6487 7.71189 12.2505 7.71189H6.25427C5.83266 7.71189 5.50475 7.39922 5.50475 6.99721C5.50475 6.61753 5.83266 6.28252 6.25427 6.28252H12.2505ZM6.25427 4.13847C5.83266 4.13847 5.50475 3.8258 5.50475 3.42379C5.50475 3.04411 5.83266 2.7091 6.25427 2.7091H12.2505C12.6487 2.7091 13 3.04411 13 3.42379C13 3.8258 12.6487 4.13847 12.2505 4.13847H6.25427ZM12.2505 9.85595C12.6487 9.85595 13 10.191 13 10.5706C13 10.9726 12.6487 11.2853 12.2505 11.2853H6.25427C5.83266 11.2853 5.50475 10.9726 5.50475 10.5706C5.50475 10.191 5.83266 9.85595 6.25427 9.85595H12.2505ZM1.9445 6.28252C1.61658 6.28252 1.38236 6.05918 1.38236 5.74651C1.38236 5.45617 1.61658 5.2105 1.9445 5.2105H2.31926V3.46845C2.06161 3.55779 1.78054 3.44612 1.64 3.22278C1.47605 2.97711 1.56974 2.6421 1.82739 2.48576L2.57691 2.08375C2.76429 1.97208 2.9751 1.97208 3.13906 2.08375C3.32644 2.17309 3.44355 2.35176 3.44355 2.53043V5.2105H3.81831C4.12281 5.2105 4.38046 5.45617 4.38046 5.74651C4.38046 6.05918 4.12281 6.28252 3.81831 6.28252H1.9445ZM4.19308 10.9503C4.49757 10.9503 4.75522 11.1736 4.75522 11.4863C4.75522 11.7767 4.49757 12 4.19308 12H1.54631C1.33551 12 1.12471 11.866 1.03102 11.665C0.960747 11.464 1.00759 11.2183 1.19497 11.0843L3.13906 9.40927C3.3967 9.20826 3.42013 8.87325 3.20932 8.64992C3.11563 8.51591 2.9751 8.44891 2.81114 8.44891C2.64718 8.42658 2.48322 8.47124 2.36611 8.58291L2.06161 8.82859C1.82739 9.00726 1.47605 8.98492 1.26524 8.76159C1.07786 8.53825 1.10128 8.20324 1.33551 8.00223L1.61658 7.75656C1.96792 7.46622 2.43638 7.33222 2.88141 7.37688C3.34986 7.39922 3.77147 7.60022 4.07596 7.95757C4.66153 8.62758 4.59126 9.63261 3.88858 10.2133L3.02194 10.9503H4.19308Z" fill="currentColor"/>
</g>
</svg>
