<svg width="14" height="14" viewBox="0 0 14 14" fill="none" xmlns="http://www.w3.org/2000/svg">
<g id="Paper-check_icon">
<path id="Icon" d="M6.22222 9.47228C6.22222 10.9063 6.92708 12.1945 7.99653 12.9723C7.92361 12.9723 7.85069 12.9723 7.77778 12.9723H1.55556C0.680556 12.9723 0 12.2917 0 11.4167V2.08339C0 1.23269 0.680556 0.527832 1.55556 0.527832H7.77778C8.62847 0.527832 9.33333 1.23269 9.33333 2.08339V5.36464C7.53472 5.87505 6.22222 7.52783 6.22222 9.47228ZM1.94444 3.63894C1.72569 3.63894 1.55556 3.83339 1.55556 4.02783C1.55556 4.24658 1.72569 4.41672 1.94444 4.41672H7.38889C7.58333 4.41672 7.77778 4.24658 7.77778 4.02783C7.77778 3.83339 7.58333 3.63894 7.38889 3.63894H1.94444ZM4.27778 9.08339C4.47222 9.08339 4.66667 8.91325 4.66667 8.6945C4.66667 8.50005 4.47222 8.30561 4.27778 8.30561H1.94444C1.72569 8.30561 1.55556 8.50005 1.55556 8.6945C1.55556 8.91325 1.72569 9.08339 1.94444 9.08339H4.27778ZM5.83333 6.75005C6.02778 6.75005 6.22222 6.57992 6.22222 6.36117C6.22222 6.16672 6.02778 5.97228 5.83333 5.97228H1.94444C1.72569 5.97228 1.55556 6.16672 1.55556 6.36117C1.55556 6.57992 1.72569 6.75005 1.94444 6.75005H5.83333ZM10.5 5.97228C12.4201 5.97228 14 7.55214 14 9.47228C14 11.4167 12.4201 12.9723 10.5 12.9723C8.55556 12.9723 7 11.4167 7 9.47228C7 7.55214 8.55556 5.97228 10.5 5.97228ZM12.1285 8.84033C12.2743 8.6945 12.2743 8.45144 12.1285 8.30561C11.9826 8.15978 11.7153 8.15978 11.5694 8.30561L10.0382 9.83686L9.40625 9.20492C9.26042 9.05908 8.99306 9.05908 8.84722 9.20492C8.70139 9.35075 8.70139 9.61811 8.84722 9.76394L9.77083 10.6632C9.84375 10.7362 9.94097 10.7848 10.0382 10.7848C10.1354 10.7848 10.2326 10.7362 10.3056 10.6632L12.1285 8.84033Z" fill="currentColor"/>
</g>
</svg>
