<svg width="14" height="14" viewBox="0 0 14 14" fill="none" xmlns="http://www.w3.org/2000/svg">
<g id="Phone_icon">
<path id="Icon" d="M13.9555 10.5589L13.3 13.3172C13.2181 13.7269 12.8904 14 12.4807 14C5.59858 14 0 8.37411 0 1.49195C0 1.0823 0.245791 0.754573 0.655444 0.672643L3.38646 0.0171991C3.79611 -0.0647314 4.20576 0.15375 4.36963 0.508782L5.6532 3.48559C5.78975 3.84062 5.70782 4.25027 5.40741 4.46875L3.93266 5.69771C4.86121 7.58211 6.39058 9.11148 8.30229 10.04L9.50393 8.56528C9.72242 8.26487 10.1321 8.18294 10.4871 8.31949L13.4639 9.60306C13.8462 9.76693 14.0374 10.1766 13.9555 10.5589Z" fill="currentColor"/>
</g>
</svg>
