<svg width="14" height="14" viewBox="0 0 14 14" fill="none" xmlns="http://www.w3.org/2000/svg">
<g id="Pin_icon">
<path id="Icon" d="M6.16667 12.4566V10.4898H7.83333V12.4566C7.83333 12.5112 7.80729 12.5385 7.80729 12.5659L7.18229 13.8771C7.10417 14.041 6.86979 14.041 6.79167 13.8771L6.16667 12.5659C6.16667 12.5385 6.16667 12.5112 6.16667 12.4566ZM9.76042 5.87317C11.0104 6.47415 12 7.56683 12 8.96C12 9.34244 11.7135 9.61561 11.375 9.61561H2.625C2.26042 9.61561 2 9.34244 2 8.96C2 7.59415 2.96354 6.47415 4.21354 5.87317L4.55208 2.62244H3.45833C3.09375 2.62244 2.83333 2.34927 2.83333 1.96683V0.65561C2.83333 0.300488 3.09375 0 3.45833 0H10.5417C10.8802 0 11.1667 0.300488 11.1667 0.65561V1.96683C11.1667 2.34927 10.8802 2.62244 10.5417 2.62244H9.42188L9.76042 5.87317Z" fill="currentColor"/>
</g>
</svg>
