<svg width="14" height="14" viewBox="0 0 14 14" fill="currentColor" xmlns="http://www.w3.org/2000/svg">
<g id="Plus_icon">
<path id="Icon" d="M13 7C13 7.66346 12.4808 8.15385 11.8462 8.15385H8.15385V11.8462C8.15385 12.5096 7.63462 13 7 13C6.33654 13 5.84615 12.5096 5.84615 11.8462V8.15385H2.15385C1.49038 8.15385 1 7.66346 1 7C1 6.36539 1.49038 5.84615 2.15385 5.84615H5.84615V2.15385C5.84615 1.51923 6.33654 1 7 1C7.63462 1 8.15385 1.51923 8.15385 2.15385V5.84615H11.8462C12.4808 5.84615 13 6.36539 13 7Z" fill="currentColor"/>
</g>
</svg>
