<svg width="14" height="14" viewBox="0 0 14 14" fill="none" xmlns="http://www.w3.org/2000/svg">
<g id="Portion_icon">
<path id="Icon" d="M0 5.28571C0 4.34018 0.784766 3.57143 1.75 3.57143C1.76367 3.57143 1.78008 3.57143 1.79375 3.57143C1.99609 2.59375 2.8793 1.85714 3.9375 1.85714C4.34766 1.85714 4.73047 1.96696 5.05586 2.15714C5.41953 1.47143 6.15508 1 7 1C7.84492 1 8.58047 1.47143 8.94414 2.15714C9.26953 1.96696 9.65234 1.85714 10.0625 1.85714C11.1207 1.85714 12.0039 2.59375 12.2063 3.57143C12.2199 3.57143 12.2363 3.57143 12.25 3.57143C13.2152 3.57143 14 4.34018 14 5.28571C14 5.59911 13.9152 5.89107 13.7648 6.14286H0.235156C0.0847656 5.89107 0 5.59911 0 5.28571ZM0 7.73393C0 7.32946 0.336328 7 0.749219 7H13.2508C13.6637 7 14 7.32946 14 7.73393C14 9.62232 12.7859 11.2348 11.0824 11.8616L11.0332 12.25C10.9785 12.6786 10.6066 13 10.1637 13H3.83359C3.39336 13 3.01875 12.6786 2.96406 12.25L2.91484 11.8643C1.21406 11.2348 0 9.62232 0 7.73393Z" fill="currentColor"/>
</g>
</svg>
