<svg width="14" height="14" viewBox="0 0 14 14" fill="none" xmlns="http://www.w3.org/2000/svg">
<g id="Price History_icon">
<path id="Icon" d="M5.28571 2.28571C5.28571 1.57589 5.86161 1 6.57143 1H7.42857C8.13839 1 8.71429 1.57589 8.71429 2.28571V11.7143C8.71429 12.4241 8.13839 13 7.42857 13H6.57143C5.86161 13 5.28571 12.4241 5.28571 11.7143V2.28571ZM1 7.42857C1 6.71875 1.57589 6.14286 2.28571 6.14286H3.14286C3.85268 6.14286 4.42857 6.71875 4.42857 7.42857V11.7143C4.42857 12.4241 3.85268 13 3.14286 13H2.28571C1.57589 13 1 12.4241 1 11.7143V7.42857ZM10.8571 2.71429H11.7143C12.4241 2.71429 13 3.29018 13 4V11.7143C13 12.4241 12.4241 13 11.7143 13H10.8571C10.1473 13 9.57143 12.4241 9.57143 11.7143V4C9.57143 3.29018 10.1473 2.71429 10.8571 2.71429Z" fill="currentColor"/>
</g>
</svg>
