<svg width="14" height="14" viewBox="0 0 14 14" fill="none" xmlns="http://www.w3.org/2000/svg">
<g id="Print-Eye-Closed_icon">
<g id="Icon">
<path d="M9.20068 11.7689C9.23055 11.7689 9.26042 11.7838 9.29029 11.7838C9.97728 11.7838 10.5597 11.2761 10.6941 10.604L9.20068 11.7689ZM9.27535 12.5007C8.9916 12.5007 8.73771 12.441 8.48382 12.3364L7.36373 13.2026C7.96111 13.5163 8.6033 13.6805 9.29029 13.6805C11.1123 13.6805 12.7252 12.441 13.5317 10.604C13.5616 10.5293 13.5915 10.4099 13.5915 10.3501C13.5915 10.2755 13.5616 10.156 13.5317 10.0813C13.3376 9.66314 13.1135 9.27484 12.8447 8.91641L11.411 10.0514C11.411 10.141 11.4409 10.2456 11.4409 10.3501C11.4409 11.53 10.4701 12.5007 9.29029 12.5007H9.27535ZM5.07405 13.1626C4.90977 13.2821 4.8799 13.5061 5.01431 13.6554C5.13379 13.8197 5.35781 13.8496 5.50715 13.7152L13.7557 7.44195C13.9199 7.32247 13.9498 7.09845 13.8154 6.94911C13.7557 6.8595 13.6511 6.79976 13.5316 6.79976C13.457 6.79976 13.3823 6.82963 13.3226 6.88937L11.8292 7.88592C11.0974 7.31841 10.2162 7.00478 9.29029 7.00478C7.45333 7.00478 5.8404 8.24435 5.03393 10.0813C5.00406 10.156 4.98913 10.2755 4.98913 10.3501C4.98913 10.4099 5.00406 10.5293 5.03393 10.604C5.31769 11.2611 5.72092 11.8287 6.18389 12.3066L5.07405 13.1626ZM7.13971 10.3501C7.13971 9.15536 8.09552 8.19955 9.29029 8.19955C9.84287 8.19955 10.3357 8.40863 10.724 8.76706L9.3799 9.81248C9.32016 9.67807 9.29029 9.54366 9.29029 9.39431C9.29029 9.2151 9.33509 9.06575 9.40977 8.91641C9.36496 8.91641 9.32016 8.91641 9.29029 8.91641C8.49876 8.91641 7.85657 9.55859 7.85657 10.3501C7.85657 10.5443 7.90137 10.7384 7.97604 10.9176L7.3936 11.3657C7.22932 11.067 7.13971 10.7086 7.13971 10.3501Z" fill="currentColor"/>
<path d="M2.75 3.4375V1.375H7.66992L8.25 1.95508V3.4375H9.625V1.67578C9.625 1.48242 9.53906 1.31055 9.41016 1.18164L8.44336 0.214844C8.31445 0.0859375 8.14258 0 7.94922 0H2.0625C1.67578 0 1.375 0.322266 1.375 0.6875V3.4375H2.75Z" fill="currentColor"/>
<path d="M11 5.5C11 4.74805 10.377 4.125 9.625 4.125H1.375C0.601562 4.125 0 4.74805 0 5.5V7.5625C0 7.94922 0.300781 8.25 0.6875 8.25H1.375V10.3125C1.375 10.6992 1.67578 11 2.0625 11H3.75717C3.70601 10.8959 3.65685 10.7901 3.60976 10.6829C3.57 10.5835 3.55013 10.4244 3.55013 10.325C3.55013 10.2455 3.57 10.0865 3.60976 9.98712C3.66363 9.86442 3.7202 9.74368 3.77937 9.625H2.75V7.5625H5.27891C6.37729 6.50531 7.76966 5.87232 9.27506 5.87232C9.87076 5.87232 10.4497 5.97307 11 6.16131V5.5Z" fill="currentColor"/>
</g>
</g>
</svg>
