<svg width="15" height="15" viewBox="0 0 15 15" fill="none" xmlns="http://www.w3.org/2000/svg">
<g id="Print_icon">
<g id="Icon">
<path fill-rule="evenodd" clip-rule="evenodd" d="M13.124 6.12402C14.0811 6.12402 14.874 6.91699 14.874 7.87402V10.499C14.874 10.9912 14.4639 11.374 13.999 11.374H13.124V13.999C13.124 14.4912 12.7139 14.874 12.249 14.874H3.49902C3.00684 14.874 2.62402 14.4912 2.62402 13.999V11.374H1.74902C1.25684 11.374 0.874023 10.9912 0.874023 10.499V7.87402C0.874023 6.91699 1.63965 6.12402 2.62402 6.12402H13.124ZM11.374 13.124V10.499H4.37402V13.124H11.374ZM12.6865 8.96777C13.042 8.96777 13.3428 8.69434 13.3428 8.31152C13.3428 7.95606 13.042 7.65527 12.6865 7.65527C12.3037 7.65527 12.0303 7.95606 12.0303 8.31152C12.0303 8.69434 12.3037 8.96777 12.6865 8.96777Z" fill="currentColor"/>
<path d="M4.37402 2.62402V5.24902H2.62402V1.74902C2.62402 1.28418 3.00684 0.874023 3.49902 0.874023H10.9912C11.2373 0.874023 11.4561 0.983398 11.6201 1.14746L12.8506 2.37793C13.0146 2.54199 13.124 2.76074 13.124 3.00684V5.24902H11.374V3.3623L10.6357 2.62402H4.37402Z" fill="currentColor"/>
</g>
</g>
</svg>
