<svg xmlns="http://www.w3.org/2000/svg" width="14" height="14" viewBox="0 0 14 14" fill="none">
<path d="M5.05938 10.0727C5.02969 10.1469 5 10.2657 5 10.325C5 10.3993 5.02969 10.518 5.05938 10.5922C5.86095 12.418 7.4641 13.6501 9.27506 13.6501C11.1009 13.6501 12.704 12.418 13.5056 10.5922C13.5353 10.518 13.5501 10.3993 13.5501 10.325C13.5501 10.2657 13.5353 10.1469 13.5056 10.0727C12.704 8.24689 11.1009 7 9.27506 7C7.4641 7 5.86095 8.24689 5.05938 10.0727ZM7.13753 10.3399V10.325C7.13753 9.15238 8.10239 8.18752 9.27506 8.18752C10.4626 8.18752 11.4126 9.15238 11.4126 10.325C11.4126 11.5126 10.4626 12.4626 9.27506 12.4626C8.10239 12.4626 7.13753 11.5126 7.13753 10.3399ZM9.27506 8.90003C8.50318 8.90003 7.85004 9.55316 7.85004 10.325C7.85004 11.1118 8.50318 11.7501 9.27506 11.7501C10.0618 11.7501 10.7001 11.1118 10.7001 10.325C10.7001 10.2954 10.7001 10.2508 10.7001 10.2063C10.5665 10.2805 10.4032 10.325 10.2251 10.325C9.70554 10.325 9.27506 9.90942 9.27506 9.37504C9.27506 9.21175 9.33444 9.06331 9.40866 8.91487C9.36413 8.91487 9.3196 8.91487 9.28991 8.90003H9.27506Z" fill="currentColor"/>
<path d="M2.75 3.4375V1.375H7.66992L8.25 1.95508V3.4375H9.625V1.67578C9.625 1.48242 9.53906 1.31055 9.41016 1.18164L8.44336 0.214844C8.31445 0.0859375 8.14258 0 7.94922 0H2.0625C1.67578 0 1.375 0.322266 1.375 0.6875V3.4375H2.75Z" fill="currentColor"/>
<path d="M11 5.5C11 4.74805 10.377 4.125 9.625 4.125H1.375C0.601562 4.125 0 4.74805 0 5.5V7.5625C0 7.94922 0.300781 8.25 0.6875 8.25H1.375V10.3125C1.375 10.6992 1.67578 11 2.0625 11H3.75717C3.70601 10.8959 3.65685 10.7901 3.60976 10.6829C3.57 10.5835 3.55013 10.4244 3.55013 10.325C3.55013 10.2455 3.57 10.0865 3.60976 9.98712C3.66363 9.86442 3.7202 9.74368 3.77937 9.625H2.75V7.5625H5.27891C6.37729 6.50531 7.76966 5.87232 9.27506 5.87232C9.87076 5.87232 10.4497 5.97307 11 6.16131V5.5Z" fill="currentColor"/>
</svg>
