<svg width="14" height="14" viewBox="0 0 14 14" fill="none" xmlns="http://www.w3.org/2000/svg">
<g id="Quit_icon">
<path id="Icon" d="M4.375 11.5C4.83984 11.5 5.25 11.9102 5.25 12.375C5.25 12.8672 4.83984 13.25 4.375 13.25H2.625C1.14844 13.25 0 12.1016 0 10.625V3.625C0 2.17578 1.14844 1 2.625 1H4.375C4.83984 1 5.25 1.41016 5.25 1.875C5.25 2.36719 4.83984 2.75 4.375 2.75H2.625C2.13281 2.75 1.75 3.16016 1.75 3.625V10.625C1.75 11.1172 2.13281 11.5 2.625 11.5H4.375ZM13.7266 6.52344C14.082 6.85156 14.082 7.42578 13.7266 7.75391L10.2266 11.2539C9.89844 11.6094 9.32422 11.6094 8.99609 11.2539C8.64062 10.9258 8.64062 10.3516 8.99609 10.0234L10.9922 8H5.25C4.75781 8 4.375 7.61719 4.375 7.125C4.375 6.66016 4.75781 6.25 5.25 6.25H10.9922L8.99609 4.25391C8.64062 3.92578 8.64062 3.35156 8.99609 3.02344C9.32422 2.66797 9.89844 2.66797 10.2266 3.02344L13.7266 6.52344Z" fill="currentColor"/>
</g>
</svg>
