<svg width="14" height="14" viewBox="0 0 14 14" fill="none" xmlns="http://www.w3.org/2000/svg">
<g id="Recipes_icon">
<path id="Icon" d="M13.25 9.84375C13.25 10.1445 13.0586 10.3906 12.8125 10.4727V12.3047C13.0586 12.3867 13.25 12.6328 13.25 12.9062V13.3438C13.25 13.7266 12.9492 14 12.5938 14H3.625C2.14844 14 1 12.8516 1 11.375V2.625C1 1.17578 2.14844 0 3.625 0H6.25V5.25C6.25 5.63281 6.66016 5.82422 6.93359 5.60547L8.4375 4.40234L9.91406 5.60547C10.1875 5.82422 10.625 5.63281 10.625 5.25V0H12.5938C12.9492 0 13.25 0.300781 13.25 0.65625V9.84375ZM11.5 12.25V10.5H3.625C3.13281 10.5 2.75 10.9102 2.75 11.375C2.75 11.8672 3.13281 12.25 3.625 12.25H11.5Z" fill="currentColor"/>
</g>
</svg>
