<svg width="14" height="14" viewBox="0 0 14 14" fill="none" xmlns="http://www.w3.org/2000/svg">
<g id="remove-intend_icon">
<path id="Icon" d="M3.70536 9.49107L1.13393 7.34821C1.05357 7.26786 1 7.13393 1 7.02679C1 6.89286 1.05357 6.75893 1.13393 6.67857L3.70536 4.53571C3.78571 4.48214 3.89286 4.45536 4 4.45536C4.05357 4.45536 4.10714 4.45536 4.16071 4.48214C4.32143 4.5625 4.42857 4.69643 4.42857 4.88393V9.16964C4.42857 9.33036 4.32143 9.46429 4.16071 9.54464C4.02679 9.625 3.83929 9.59821 3.70536 9.49107ZM12.1429 11.2857C12.5982 11.2857 13 11.6875 13 12.1429C13 12.625 12.5982 13 12.1429 13H1.85714C1.375 13 1 12.625 1 12.1429C1 11.6875 1.375 11.2857 1.85714 11.2857H12.1429ZM1.85714 2.71429C1.375 2.71429 1 2.33929 1 1.85714C1 1.40179 1.375 1 1.85714 1H12.1429C12.5982 1 13 1.40179 13 1.85714C13 2.33929 12.5982 2.71429 12.1429 2.71429H1.85714ZM12.1429 7.85714C12.5982 7.85714 13 8.25893 13 8.71429C13 9.19643 12.5982 9.57143 12.1429 9.57143H7C6.51786 9.57143 6.14286 9.19643 6.14286 8.71429C6.14286 8.25893 6.51786 7.85714 7 7.85714H12.1429ZM12.1429 4.42857C12.5982 4.42857 13 4.83036 13 5.28571C13 5.76786 12.5982 6.14286 12.1429 6.14286H7C6.51786 6.14286 6.14286 5.76786 6.14286 5.28571C6.14286 4.83036 6.51786 4.42857 7 4.42857H12.1429Z" fill="currentColor"/>
</g>
</svg>
