<svg width="14" height="14" viewBox="0 0 14 14" fill="none" xmlns="http://www.w3.org/2000/svg">
<g id="rename">
<path id="&#238;&#134;&#190;" d="M3.15 8.5C3.12083 8.80556 2.94583 8.97222 2.625 9C2.30417 8.97222 2.12917 8.80556 2.1 8.5V5.5C2.12917 5.19444 2.30417 5.02778 2.625 5C2.94583 5.02778 3.12083 5.19444 3.15 5.5V8.5ZM0 4.33333C0.0145833 3.95833 0.153125 3.64583 0.415625 3.39583C0.678125 3.14583 1.00625 3.01389 1.4 3H12.6C12.9938 3.01389 13.3219 3.14583 13.5844 3.39583C13.8469 3.64583 13.9854 3.95833 14 4.33333V9.66667C13.9854 10.0417 13.8469 10.3542 13.5844 10.6042C13.3219 10.8542 12.9938 10.9861 12.6 11H1.4C1.00625 10.9861 0.678125 10.8542 0.415625 10.6042C0.153125 10.3542 0.0145833 10.0417 0 9.66667V4.33333ZM1.4 9.66667H12.6V4.33333H1.4V9.66667Z" fill="currentColor"/>
</g>
</svg>
