<svg width="14" height="14" viewBox="0 0 14 14" fill="none" xmlns="http://www.w3.org/2000/svg">
<g id="Repeat_icon">
<path id="Icon" d="M13.0194 6.00035H13.2759C13.6772 6.00035 14 5.66602 14 5.25046V1.25102C14 0.947941 13.825 0.67298 13.5535 0.557371C13.2819 0.441763 12.9712 0.504254 12.763 0.719848L11.5079 2.01966C8.86493 -0.683078 4.60783 -0.673704 1.97996 2.05091C-0.659986 4.7849 -0.659986 9.21552 1.97996 11.9495C4.6199 14.6835 8.89812 14.6835 11.5381 11.9495C11.9152 11.5589 11.9152 10.9247 11.5381 10.5341C11.1609 10.1435 10.5485 10.1435 10.1713 10.5341C8.28565 12.4869 5.22935 12.4869 3.34368 10.5341C1.458 8.58124 1.458 5.41606 3.34368 3.46321C5.2203 1.51974 8.25247 1.51036 10.1412 3.43196L8.90114 4.71928C8.69296 4.93488 8.63262 5.25671 8.74425 5.53792C8.85588 5.81913 9.12138 6.00035 9.41404 6.00035H13.0194Z" fill="currentColor"/>
</g>
</svg>
