<svg width="14" height="14" viewBox="0 0 14 14" fill="none" xmlns="http://www.w3.org/2000/svg">
<g id="Replace_icon" clip-path="url(#clip0_3413_265350)">
<path id="Icon" d="M0 6.12488C0 6.60887 0.391016 6.99988 0.875 6.99988C1.35898 6.99988 1.75 6.60887 1.75 6.12488C1.75 4.67566 2.92578 3.49988 4.375 3.49988H8.75V4.37488C8.75 4.72762 8.96328 5.04754 9.29141 5.18426C9.61953 5.32097 9.99414 5.24441 10.2457 4.99558L11.9957 3.24558C12.3375 2.90379 12.3375 2.34871 11.9957 2.00691L10.2457 0.256912C9.99414 0.00534938 9.61953 -0.0684787 9.29141 0.06824C8.96328 0.204959 8.75 0.522146 8.75 0.874881V1.74988H4.375C1.95781 1.74988 0 3.70769 0 6.12488ZM14 7.87488C14 7.3909 13.609 6.99988 13.125 6.99988C12.641 6.99988 12.25 7.3909 12.25 7.87488C12.25 9.3241 11.0742 10.4999 9.625 10.4999H5.25V9.62488C5.25 9.27215 5.03672 8.95222 4.70859 8.81551C4.38047 8.67879 4.00586 8.75535 3.7543 9.00418L2.0043 10.7542C1.6625 11.096 1.6625 11.6511 2.0043 11.9928L3.7543 13.7428C4.00586 13.9944 4.38047 14.0682 4.70859 13.9315C5.03672 13.7948 5.25 13.4776 5.25 13.1221V12.2499H9.625C12.0422 12.2499 14 10.2921 14 7.87488Z" fill="currentColor"/>
</g>
<defs>
<clipPath id="clip0_3413_265350">
<rect width="14" height="14" fill="white"/>
</clipPath>
</defs>
</svg>
