<svg width="14" height="14" viewBox="0 0 14 14" fill="none" xmlns="http://www.w3.org/2000/svg">
<g id="Reset_icon">
<path id="Icon" d="M13.5625 1.0625V5.02734C13.5625 5.24609 13.4531 5.46484 13.2891 5.62891C13.125 5.79297 12.9062 5.875 12.6875 5.875H8.72266C8.25781 5.875 7.875 5.49219 7.875 5.02734C7.875 4.53516 8.25781 4.15234 8.72266 4.15234H10.4727V4.125C9.65234 3.05859 8.36719 2.375 7 2.375C4.56641 2.375 2.625 4.34375 2.625 6.75C2.625 9.18359 4.56641 11.125 7 11.125C7.92969 11.125 8.85938 10.8242 9.59766 10.2773C10.0898 9.89453 10.7734 10.0039 11.1289 10.4688C11.5117 10.9609 11.4023 11.6445 10.9375 12C9.78906 12.875 8.42188 13.3125 7 13.3125C3.36328 13.3125 0.4375 10.3867 0.4375 6.75C0.4375 3.14062 3.36328 0.1875 7 0.1875C8.83203 0.1875 10.582 0.980469 11.8125 2.32031V1.0625C11.8125 0.597656 12.1953 0.1875 12.6875 0.1875C13.1523 0.1875 13.5625 0.597656 13.5625 1.0625Z" fill="currentColor"/>
</g>
</svg>
