<svg width="14" height="14" viewBox="0 0 14 14" fill="none" xmlns="http://www.w3.org/2000/svg">
<path d="M13.6111 11.9167C13.8056 11.9167 14 12.1112 14 12.3056V13.0834C14 13.3021 13.8056 13.4723 13.6111 13.4723H0.388889C0.170139 13.4723 0 13.3021 0 13.0834V12.3056C0 12.1112 0.170139 11.9167 0.388889 11.9167H2.33333V2.26742C2.33333 1.58686 2.84375 1.02783 3.5 1.02783H10.5C11.1319 1.02783 11.6667 1.58686 11.6667 2.26742V11.9167H13.6111ZM9.33333 8.02783C9.74653 8.02783 10.1111 7.68755 10.1111 7.25005C10.1111 6.83686 9.74653 6.47228 9.33333 6.47228C8.89583 6.47228 8.55556 6.83686 8.55556 7.25005C8.55556 7.68755 8.89583 8.02783 9.33333 8.02783Z" fill="currentColor"/>
</svg>
