<svg width="14" height="14" viewBox="0 0 14 14" fill="none" xmlns="http://www.w3.org/2000/svg">
<g id="Save_icon">
<path id="Icon" d="M12.8398 3.67969C13.0586 3.89844 13.25 4.30859 13.25 4.60938V11.5C13.25 12.4844 12.457 13.25 11.5 13.25H2.75C1.76562 13.25 1 12.4844 1 11.5V2.75C1 1.79297 1.76562 1 2.75 1H9.64062C9.94141 1 10.3516 1.19141 10.5703 1.41016L12.8398 3.67969ZM7.125 11.5C8.08203 11.5 8.875 10.7344 8.875 9.75C8.875 8.79297 8.08203 8 7.125 8C6.14062 8 5.375 8.79297 5.375 9.75C5.375 10.7344 6.14062 11.5 7.125 11.5ZM9.75 5.8125V3.1875C9.75 2.96875 9.53125 2.75 9.3125 2.75H3.1875C2.94141 2.75 2.75 2.96875 2.75 3.1875V5.8125C2.75 6.05859 2.94141 6.25 3.1875 6.25H9.3125C9.53125 6.25 9.75 6.05859 9.75 5.8125Z" fill="currentColor"/>
</g>
</svg>
