<svg width="14" height="14" viewBox="0 0 14 14" fill="none" xmlns="http://www.w3.org/2000/svg">
<g id="Search_icon">
<path id="Icon" d="M13.7947 12.2654C14.0684 12.5112 14.0684 12.921 13.7947 13.1941L13.1926 13.7951C12.9189 14.0683 12.5083 14.0683 12.262 13.7951L8.86804 10.4078C7.93744 11.0088 6.84262 11.3639 5.69306 11.3639C2.54545 11.3639 0 8.82341 0 5.68195C0 2.5678 2.54545 0 5.69306 0C8.81329 0 11.3861 2.5678 11.3861 5.68195C11.3861 6.85659 11.0029 7.94927 10.4008 8.87805L13.7947 12.2654ZM2.18964 5.68195C2.18964 7.62146 3.74976 9.17854 5.69306 9.17854C7.60899 9.17854 9.19648 7.62146 9.19648 5.68195C9.19648 3.76976 7.60899 2.18537 5.69306 2.18537C3.74976 2.18537 2.18964 3.76976 2.18964 5.68195Z" fill="currentColor"/>
</g>
</svg>
