<svg xmlns="http://www.w3.org/2000/svg" width="14" height="14" viewBox="0 0 14 14" fill="none">
    <path
        d="M11.375 0.625C12.332 0.625 13.125 1.41797 13.125 2.375V11.125C13.125 12.1094 12.332 12.875 11.375 12.875H2.625C1.64062 12.875 0.875 12.1094 0.875 11.125V2.375C0.875 1.41797 1.64062 0.625 2.625 0.625H11.375ZM10.3086 6.12109C10.5 5.92969 10.5273 5.65625 10.4453 5.41016C10.3359 5.16406 10.0898 5 9.84375 5H4.15625C3.88281 5 3.63672 5.16406 3.55469 5.41016C3.44531 5.65625 3.47266 5.92969 3.66406 6.12109L6.50781 9.18359C6.61719 9.32031 6.80859 9.375 7 9.375C7.16406 9.375 7.35547 9.32031 7.46484 9.18359L10.3086 6.12109Z"
        fill="currentColor"/>
</svg>
