<svg width="14" height="14" viewBox="0 0 14 14" fill="none" xmlns="http://www.w3.org/2000/svg">
<g id="Settings_icon" clip-path="url(#clip0_4049_130639)">
<path id="Icon" d="M13.464 4.55636C13.5502 4.7943 13.4774 5.05958 13.2916 5.22915L12.1251 6.3067C12.1547 6.5337 12.1709 6.76617 12.1709 7.00137C12.1709 7.23657 12.1547 7.46904 12.1251 7.69603L13.2916 8.77359C13.4774 8.94315 13.5502 9.20844 13.464 9.44638C13.3454 9.77183 13.2027 10.0836 13.0383 10.3845L12.9117 10.606C12.7339 10.9068 12.5346 11.1912 12.3164 11.4593C12.1574 11.6562 11.8934 11.7218 11.6564 11.6452L10.1559 11.1612C9.7949 11.4429 9.39621 11.6781 8.97057 11.8558L8.63384 13.4175C8.57996 13.6663 8.39139 13.8633 8.14355 13.9043C7.7718 13.9672 7.38927 14 6.99865 14C6.60804 14 6.22551 13.9672 5.85375 13.9043C5.60592 13.8633 5.41735 13.6663 5.36347 13.4175L5.02673 11.8558C4.6011 11.6781 4.20241 11.4429 3.84143 11.1612L2.34363 11.648C2.10657 11.7246 1.84257 11.6562 1.68363 11.462C1.46543 11.194 1.26608 10.9096 1.08828 10.6087L0.96167 10.3872C0.797344 10.0863 0.654568 9.77457 0.536038 9.44911C0.449833 9.21117 0.522568 8.94589 0.708446 8.77632L1.8749 7.69877C1.84526 7.46904 1.8291 7.23657 1.8291 7.00137C1.8291 6.76617 1.84526 6.5337 1.8749 6.3067L0.708446 5.22915C0.522568 5.05958 0.449833 4.7943 0.536038 4.55636C0.654568 4.2309 0.797344 3.91913 0.96167 3.61828L1.08828 3.39676C1.26608 3.09592 1.46543 2.81149 1.68363 2.54347C1.84257 2.34655 2.10657 2.28091 2.34363 2.35749L3.84412 2.84157C4.2051 2.55988 4.6038 2.32467 5.02943 2.1469L5.36616 0.585271C5.42004 0.336394 5.60861 0.13948 5.85645 0.0984567C6.2282 0.0328189 6.61073 0 7.00135 0C7.39196 0 7.77449 0.0328189 8.14625 0.0957218C8.39408 0.136745 8.58265 0.333659 8.63653 0.582536L8.97327 2.14417C9.3989 2.32194 9.79759 2.55714 10.1586 2.83884L11.6591 2.35476C11.8961 2.27818 12.1601 2.34655 12.3191 2.54073C12.5373 2.80875 12.7366 3.09318 12.9144 3.39402L13.041 3.61555C13.2054 3.91639 13.3481 4.22817 13.4667 4.55362L13.464 4.55636ZM7.00135 9.18929C7.57292 9.18929 8.12108 8.95878 8.52524 8.54847C8.9294 8.13815 9.15645 7.58164 9.15645 7.00137C9.15645 6.42109 8.9294 5.86459 8.52524 5.45427C8.12108 5.04395 7.57292 4.81344 7.00135 4.81344C6.42978 4.81344 5.88162 5.04395 5.47746 5.45427C5.0733 5.86459 4.84624 6.42109 4.84624 7.00137C4.84624 7.58164 5.0733 8.13815 5.47746 8.54847C5.88162 8.95878 6.42978 9.18929 7.00135 9.18929Z" fill="currentColor"/>
</g>
<defs>
<clipPath id="clip0_4049_130639">
<rect width="14" height="14" fill="white"/>
</clipPath>
</defs>
</svg>
