<svg width="14" height="14" viewBox="0 0 14 14" fill="none" xmlns="http://www.w3.org/2000/svg">
<g id="Shopping list_icon">
<path id="Icon" d="M12.4444 1.5C13.2951 1.5 14 2.21205 14 3.07143V10.9286C14 11.8125 13.2951 12.5 12.4444 12.5H1.55556C0.680556 12.5 0 11.8125 0 10.9286V3.07143C0 2.21205 0.680556 1.5 1.55556 1.5H12.4444ZM12.8333 10.9286V3.07143C12.8333 2.875 12.6389 2.67857 12.4444 2.67857H1.55556C1.33681 2.67857 1.16667 2.875 1.16667 3.07143V10.9286C1.16667 11.1496 1.33681 11.3214 1.55556 11.3214H12.4444C12.6389 11.3214 12.8333 11.1496 12.8333 10.9286ZM3.11111 3.85714C3.52431 3.85714 3.88889 4.22545 3.88889 4.64286C3.88889 5.08482 3.52431 5.42857 3.11111 5.42857C2.67361 5.42857 2.33333 5.08482 2.33333 4.64286C2.33333 4.22545 2.67361 3.85714 3.11111 3.85714ZM3.11111 6.21429C3.52431 6.21429 3.88889 6.58259 3.88889 7C3.88889 7.44196 3.52431 7.78571 3.11111 7.78571C2.67361 7.78571 2.33333 7.44196 2.33333 7C2.33333 6.58259 2.67361 6.21429 3.11111 6.21429ZM3.11111 8.57143C3.52431 8.57143 3.88889 8.93973 3.88889 9.35714C3.88889 9.79911 3.52431 10.1429 3.11111 10.1429C2.67361 10.1429 2.33333 9.79911 2.33333 9.35714C2.33333 8.93973 2.67361 8.57143 3.11111 8.57143ZM11.0833 4.05357C11.3993 4.05357 11.6667 4.32366 11.6667 4.64286C11.6667 4.98661 11.3993 5.23214 11.0833 5.23214H5.25C4.90972 5.23214 4.66667 4.98661 4.66667 4.64286C4.66667 4.32366 4.90972 4.05357 5.25 4.05357H11.0833ZM11.0833 6.41071C11.3993 6.41071 11.6667 6.6808 11.6667 7C11.6667 7.34375 11.3993 7.58929 11.0833 7.58929H5.25C4.90972 7.58929 4.66667 7.34375 4.66667 7C4.66667 6.6808 4.90972 6.41071 5.25 6.41071H11.0833ZM11.0833 8.76786C11.3993 8.76786 11.6667 9.03795 11.6667 9.35714C11.6667 9.70089 11.3993 9.94643 11.0833 9.94643H5.25C4.90972 9.94643 4.66667 9.70089 4.66667 9.35714C4.66667 9.03795 4.90972 8.76786 5.25 8.76786H11.0833Z" fill="currentColor"/>
</g>
</svg>
