<svg width="14" height="14" viewBox="0 0 14 14" fill="none" xmlns="http://www.w3.org/2000/svg">
<g id="Shopping cart_icon">
<path id="Icon" d="M11.2902 11.122C11.9228 11.122 12.4581 11.6573 12.4581 12.29C12.4581 12.9469 11.9228 13.4579 11.2902 13.4579C10.6332 13.4579 10.1223 12.9469 10.1223 12.29C10.1223 11.6573 10.6332 11.122 11.2902 11.122ZM4.28264 11.122C4.91527 11.122 5.45057 11.6573 5.45057 12.29C5.45057 12.9469 4.91527 13.4579 4.28264 13.4579C3.62569 13.4579 3.11472 12.9469 3.11472 12.29C3.11472 11.6573 3.62569 11.122 4.28264 11.122ZM13.845 2.09493C13.991 2.28959 14.0397 2.55724 13.9667 2.77622L12.6285 7.44793C12.5311 7.78858 12.2391 8.00756 11.8985 8.00756H4.13665L4.35564 9.17549H11.8742C12.1905 9.17549 12.4581 9.44314 12.4581 9.75945C12.4581 10.1001 12.1905 10.3434 11.8742 10.3434H3.89334C3.60135 10.3434 3.35804 10.1488 3.30937 9.88111L1.84946 2.16793H0.584208C0.243562 2.16793 0.000244141 1.92461 0.000244141 1.58396C0.000244141 1.26765 0.243562 1 0.584208 1H2.3361C2.60375 1 2.84707 1.21899 2.89573 1.48664L2.94439 1.77862H13.2124C13.4801 1.77862 13.6991 1.90028 13.845 2.09493Z" fill="currentColor"/>
</g>
</svg>
