<svg width="14" height="14" viewBox="0 0 14 14" fill="none" xmlns="http://www.w3.org/2000/svg">
<g id="Sort/None_icon">
<path id="Icon" d="M9.67464 12.2692C9.99199 12.5761 10.5074 12.5761 10.8247 12.2692L13.262 9.91205C13.5793 9.60513 13.5793 9.1067 13.262 8.79978C12.9446 8.49286 12.4293 8.49286 12.1119 8.79978L11.0608 9.81629L11.0608 2.28571C11.0608 1.85112 10.6978 1.5 10.2484 1.5C9.79904 1.5 9.43599 1.85112 9.43599 2.28571L9.43599 9.81629L8.38492 8.79978C8.06757 8.49286 7.55219 8.49286 7.23484 8.79978C6.91749 9.1067 6.91749 9.60513 7.23484 9.91205L9.6721 12.2692L9.67464 12.2692ZM0.738013 4.08549C0.420662 4.39241 0.420662 4.89085 0.738013 5.19777C1.05537 5.50469 1.57074 5.50469 1.8881 5.19777L2.93663 4.1837L2.93663 11.7143C2.93663 12.1489 3.29968 12.5 3.74905 12.5C4.19842 12.5 4.56147 12.1489 4.56147 11.7143L4.56147 4.1837L5.61254 5.20022C5.92989 5.50714 6.44527 5.50714 6.76262 5.20022C7.07997 4.8933 7.07997 4.39487 6.76262 4.08795L4.32536 1.7308C4.00801 1.42388 3.49263 1.42388 3.17528 1.7308L0.738013 4.08795L0.738013 4.08549Z" fill="currentColor"/>
</g>
</svg>
