<svg width="14" height="14" viewBox="0 0 14 14" fill="none" xmlns="http://www.w3.org/2000/svg">
<g id="Sort/Ascending_icon">
<path id="Icon" d="M10.0522 7.78571C10.4964 7.78571 10.8418 8.15402 10.8418 8.57143C10.8418 9.01339 10.4964 9.35714 10.0522 9.35714H7.70824C7.26411 9.35714 6.91868 9.01339 6.91868 8.57143C6.91868 8.15402 7.26411 7.78571 7.70824 7.78571H10.0522ZM8.49779 10.9286C8.91724 10.9286 9.28735 11.2969 9.28735 11.7143C9.28735 12.1562 8.91724 12.5 8.49779 12.5H7.70824C7.26411 12.5 6.91868 12.1562 6.91868 11.7143C6.91868 11.2969 7.26411 10.9286 7.70824 10.9286H8.49779ZM11.6313 4.64286C12.0755 4.64286 12.4209 5.01116 12.4209 5.42857C12.4209 5.87054 12.0755 6.21429 11.6313 6.21429H7.70824C7.26411 6.21429 6.91868 5.87054 6.91868 5.42857C6.91868 5.01116 7.26411 4.64286 7.70824 4.64286H11.6313ZM13.2104 1.5C13.6546 1.5 14 1.8683 14 2.28571C14 2.72768 13.6546 3.07143 13.2104 3.07143H7.70824C7.26411 3.07143 6.91868 2.72768 6.91868 2.28571C6.91868 1.8683 7.26411 1.5 7.70824 1.5H13.2104ZM3.53841 1.74554L5.70968 4.12723C6.00576 4.44643 5.98109 4.9375 5.66033 5.23214C5.33958 5.52679 4.8461 5.50223 4.55002 5.18304L3.76047 4.29911V11.7143C3.76047 12.1562 3.39036 12.5 2.97091 12.5C2.52679 12.5 2.18136 12.1562 2.18136 11.7143V4.29911L1.36713 5.18304C1.21909 5.35491 0.997028 5.42857 0.774965 5.42857C0.60225 5.42857 0.404862 5.35491 0.25682 5.23214C-0.0639361 4.9375 -0.0886096 4.44643 0.207473 4.12723L2.37875 1.74554C2.67483 1.42634 3.24232 1.42634 3.53841 1.74554Z" fill="currentColor"/>
</g>
</svg>
