<svg width="14" height="14" viewBox="0 0 14 14" fill="none" xmlns="http://www.w3.org/2000/svg">
<g id="Sort/Descending_icon">
<path id="Icon" d="M10.0522 7.77521C10.4964 7.77521 10.8418 8.1429 10.8418 8.55961C10.8418 9.00084 10.4964 9.34401 10.0522 9.34401H7.70824C7.26411 9.34401 6.91868 9.00084 6.91868 8.55961C6.91868 8.1429 7.26411 7.77521 7.70824 7.77521H10.0522ZM13.2104 1.5C13.6546 1.5 14 1.86769 14 2.2844C14 2.72563 13.6546 3.0688 13.2104 3.0688H7.70824C7.26411 3.0688 6.91868 2.72563 6.91868 2.2844C6.91868 1.86769 7.26411 1.5 7.70824 1.5H13.2104ZM8.49779 10.9128C8.91724 10.9128 9.28735 11.2805 9.28735 11.6972C9.28735 12.1384 8.91724 12.4816 8.49779 12.4816H7.70824C7.26411 12.4816 6.91868 12.1384 6.91868 11.6972C6.91868 11.2805 7.26411 10.9128 7.70824 10.9128H8.49779ZM11.6313 4.6376C12.0755 4.6376 12.4209 5.00529 12.4209 5.42201C12.4209 5.86323 12.0755 6.20641 11.6313 6.20641H7.70824C7.26411 6.20641 6.91868 5.86323 6.91868 5.42201C6.91868 5.00529 7.26411 4.6376 7.70824 4.6376H11.6313ZM4.55002 8.82925C4.8461 8.51058 5.33958 8.48607 5.66033 8.78022C5.98109 9.07437 6.00576 9.56462 5.70968 9.88329L3.53841 12.261C3.24232 12.5797 2.67483 12.5797 2.37875 12.261L0.207473 9.88329C-0.0886096 9.56462 -0.0639361 9.07437 0.25682 8.78022C0.404862 8.65766 0.60225 8.58412 0.774965 8.58412C0.997028 8.58412 1.21909 8.65766 1.36713 8.82925L2.18136 9.7117V2.30891C2.18136 1.86769 2.52679 1.5 2.97091 1.5C3.39036 1.5 3.76047 1.86769 3.76047 2.30891V9.7117L4.55002 8.82925Z" fill="currentColor"/>
</g>
</svg>
