<svg width="14" height="14" viewBox="0 0 14 14" fill="none" xmlns="http://www.w3.org/2000/svg">
<g id="split_icon">
<path id="Icon" d="M4.8125 0C5.52344 0 6.125 0.601562 6.125 1.3125V4.8125C6.125 5.55078 5.52344 6.125 4.8125 6.125H1.3125C0.574219 6.125 0 5.55078 0 4.8125V1.3125C0 0.601562 0.574219 0 1.3125 0H4.8125ZM4.8125 7.875C5.52344 7.875 6.125 8.47656 6.125 9.1875V12.6875C6.125 13.4258 5.52344 14 4.8125 14H1.3125C0.574219 14 0 13.4258 0 12.6875V9.1875C0 8.47656 0.574219 7.875 1.3125 7.875H4.8125ZM12.6875 0C13.3984 0 14 0.601562 14 1.3125V4.8125C14 5.55078 13.3984 6.125 12.6875 6.125H9.1875C8.44922 6.125 7.875 5.55078 7.875 4.8125V1.3125C7.875 0.601562 8.44922 0 9.1875 0H12.6875ZM13.3438 10.2812C13.6992 10.2812 14 10.582 14 10.9375C14 11.3203 13.6992 11.5938 13.3438 11.5938H11.5938V13.3438C11.5938 13.7266 11.293 14 10.9375 14C10.5547 14 10.2812 13.7266 10.2812 13.3438V11.5938H8.53125C8.14844 11.5938 7.875 11.3203 7.875 10.9375C7.875 10.582 8.14844 10.2812 8.53125 10.2812H10.2812V8.53125C10.2812 8.17578 10.5547 7.875 10.9375 7.875C11.293 7.875 11.5938 8.17578 11.5938 8.53125V10.2812H13.3438Z" fill="currentColor"/>
</g>
</svg>
