<svg width="14" height="14" viewBox="0 0 14 14" fill="none" xmlns="http://www.w3.org/2000/svg">
<g id="Star-Outlined_icon">
<path id="Icon" d="M7.0002 1.5C7.20938 1.5 7.40037 1.61171 7.49132 1.79002L9.0511 4.82553L12.5345 5.31104C12.7391 5.33897 12.9096 5.47431 12.9733 5.66121C13.037 5.84811 12.9847 6.05005 12.8391 6.18754L10.313 8.55494L10.9087 11.8977C10.9429 12.091 10.8587 12.2865 10.6882 12.4025C10.5177 12.5185 10.2948 12.5314 10.1129 12.439L6.99792 10.8665L3.88746 12.4369C3.70328 12.5292 3.48046 12.5164 3.3122 12.4003C3.14394 12.2843 3.05754 12.0889 3.09165 11.8955L3.68737 8.55279L1.16125 6.18754C1.01346 6.05005 0.963435 5.84596 1.0271 5.66121C1.09076 5.47646 1.26129 5.34112 1.46593 5.31104L4.94929 4.82553L6.50907 1.79002C6.60229 1.61171 6.79101 1.5 7.0002 1.5ZM7.0002 3.19714L5.80649 5.52157C5.72691 5.6741 5.57457 5.78151 5.39494 5.80729L2.70511 6.18109L4.65825 8.00927C4.78331 8.12743 4.84242 8.295 4.81287 8.46041L4.3513 11.0319L6.74327 9.82457C6.9047 9.74293 7.09797 9.74293 7.25713 9.82457L9.6491 11.0319L9.1898 8.46256C9.16024 8.29714 9.21709 8.12958 9.34442 8.01142L11.2976 6.18324L8.60773 5.80729C8.43037 5.78151 8.27576 5.67625 8.19618 5.52157L7.0002 3.19714Z" fill="currentColor"/>
</g>
</svg>
