<svg width="14" height="14" viewBox="0 0 14 14" fill="none" xmlns="http://www.w3.org/2000/svg">
<g id="Star outlined_icon">
<path id="Icon" fill-rule="evenodd" clip-rule="evenodd" d="M7 3.36621L5.69755 5.88457L2.93815 6.26541L4.9375 8.12952L4.45143 10.8346L7.01336 9.53982L9.54784 10.8306L9.06249 8.12952L11.0619 6.26541L8.30245 5.88457L7 3.36621ZM12.7858 6.36707L10.4133 8.57911L10.9729 11.6932C11.0624 12.2515 10.4581 12.6811 9.92089 12.4233L7.01119 10.9415L4.07911 12.4233C3.54193 12.6811 2.93761 12.2515 3.02714 11.6932L3.5867 8.57911L1.21417 6.36707C0.788911 5.95902 1.03512 5.27179 1.61706 5.18588L4.88487 4.73488L6.3621 1.87856C6.63069 1.36313 7.39169 1.38461 7.6379 1.87856L9.11513 4.73488L12.3829 5.18588C12.9649 5.27179 13.2111 5.95902 12.7858 6.36707Z" fill="currentColor"/>
</g>
</svg>
