<svg width="14" height="14" viewBox="0 0 14 14" fill="none" xmlns="http://www.w3.org/2000/svg">
<g id="Stock location_icon">
<path id="Icon" d="M0 12.4348V4.97606C0 4.35901 0.347813 3.80555 0.879375 3.57711L6.73969 1.05476C6.90594 0.981748 7.09187 0.981748 7.26031 1.05476L13.1206 3.57711C13.6522 3.80555 14 4.36137 14 4.97606V12.4348C14 12.748 13.7659 13 13.475 13H12.425C12.1341 13 11.9 12.748 11.9 12.4348V6.21721C11.9 5.80035 11.5872 5.46357 11.2 5.46357H2.8C2.41281 5.46357 2.1 5.80035 2.1 6.21721V12.4348C2.1 12.748 1.86594 13 1.575 13H0.525C0.234062 13 0 12.748 0 12.4348ZM10.675 13H3.325C3.03406 13 2.8 12.748 2.8 12.4348V11.1159H11.2V12.4348C11.2 12.748 10.9659 13 10.675 13ZM2.8 10.3622V8.85496H11.2V10.3622H2.8ZM2.8 8.10132V6.21721H11.2V8.10132H2.8Z" fill="currentColor"/>
</g>
</svg>
