<svg width="14" height="14" viewBox="0 0 14 14" fill="none" xmlns="http://www.w3.org/2000/svg">
<g id="Subline_icon">
<path id="Icon" d="M1.96875 1.25C2.36979 1.28686 2.58854 1.50801 2.625 1.91346V3.24038C2.58854 3.64583 2.36979 3.86699 1.96875 3.90385V6.33654H3.5C3.53646 5.93109 3.75521 5.70994 4.15625 5.67308H5.46875C5.86979 5.70994 6.08854 5.93109 6.125 6.33654V7.66346C6.08854 8.06891 5.86979 8.29006 5.46875 8.32692H4.15625C3.75521 8.29006 3.53646 8.06891 3.5 7.66346H1.96875V10.5385C1.98698 10.6675 2.0599 10.7412 2.1875 10.7596H3.5C3.53646 10.3542 3.75521 10.133 4.15625 10.0962H5.46875C5.86979 10.133 6.08854 10.3542 6.125 10.7596V12.0865C6.08854 12.492 5.86979 12.7131 5.46875 12.75H4.15625C3.75521 12.7131 3.53646 12.492 3.5 12.0865H2.1875C1.75 12.0681 1.38542 11.9207 1.09375 11.6442C0.820312 11.3494 0.674479 10.9808 0.65625 10.5385V3.90385C0.255208 3.86699 0.0364583 3.64583 0 3.24038V1.91346C0.0364583 1.50801 0.255208 1.28686 0.65625 1.25H1.96875ZM4.375 2.57692C4.375 2.31891 4.45703 2.10697 4.62109 1.94111C4.78516 1.77524 4.99479 1.69231 5.25 1.69231H13.125C13.3802 1.69231 13.5898 1.77524 13.7539 1.94111C13.918 2.10697 14 2.31891 14 2.57692C14 2.83494 13.918 3.04688 13.7539 3.21274C13.5898 3.37861 13.3802 3.46154 13.125 3.46154H5.25C4.99479 3.46154 4.78516 3.37861 4.62109 3.21274C4.45703 3.04688 4.375 2.83494 4.375 2.57692ZM7.875 7C7.875 6.74199 7.95703 6.53005 8.12109 6.36418C8.28516 6.19832 8.49479 6.11539 8.75 6.11539H13.125C13.3802 6.11539 13.5898 6.19832 13.7539 6.36418C13.918 6.53005 14 6.74199 14 7C14 7.25801 13.918 7.46995 13.7539 7.63582C13.5898 7.80168 13.3802 7.88462 13.125 7.88462H8.75C8.49479 7.88462 8.28516 7.80168 8.12109 7.63582C7.95703 7.46995 7.875 7.25801 7.875 7ZM7.875 11.4231C7.875 11.1651 7.95703 10.9531 8.12109 10.7873C8.28516 10.6214 8.49479 10.5385 8.75 10.5385H13.125C13.3802 10.5385 13.5898 10.6214 13.7539 10.7873C13.918 10.9531 14 11.1651 14 11.4231C14 11.6811 13.918 11.893 13.7539 12.0589C13.5898 12.2248 13.3802 12.3077 13.125 12.3077H8.75C8.49479 12.3077 8.28516 12.2248 8.12109 12.0589C7.95703 11.893 7.875 11.6811 7.875 11.4231Z" fill="currentColor"/>
</g>
</svg>
