<svg width="14" height="14" viewBox="0 0 14 14" fill="none" xmlns="http://www.w3.org/2000/svg">
<g id="Supplier_icon">
<path id="Icon" d="M12.0293 7.08565C12.1836 7.08565 12.3123 7.08565 12.4409 7.05993C12.5695 7.05993 12.6467 7.00848 12.7753 6.98275V12.4365C12.7753 13.1311 12.2094 13.6713 11.5405 13.6713H2.48523C1.79065 13.6713 1.25042 13.1311 1.25042 12.4365V6.98275C1.35332 7.00848 1.43049 7.05993 1.53339 7.05993C1.68774 7.08565 1.81637 7.08565 1.97072 7.08565C2.27942 7.08565 2.58813 7.05993 2.8711 6.95703V10.3785H11.1289V6.95703C11.4119 7.05993 11.7206 7.08565 12.0293 7.08565ZM13.6757 3.17542C14.4474 4.38451 13.7786 6.05664 12.338 6.26245C12.2351 6.26245 12.1322 6.26245 12.0293 6.26245C11.3604 6.26245 10.7687 5.97947 10.3571 5.54214C9.94554 5.97947 9.35386 6.26245 8.685 6.26245C8.01615 6.26245 7.39874 5.97947 6.98714 5.54214C6.60126 5.97947 5.98385 6.26245 5.315 6.26245C4.64614 6.26245 4.05446 5.97947 3.64286 5.54214C3.23126 5.97947 2.63958 6.26245 1.97072 6.26245C1.86782 6.26245 1.76492 6.26245 1.66202 6.26245C0.221408 6.05664 -0.447448 4.38451 0.324309 3.17542L1.79065 0.860153C1.91927 0.628626 2.1508 0.5 2.40805 0.5H11.592C11.8492 0.5 12.0807 0.628626 12.2094 0.860153L13.6757 3.17542Z" fill="currentColor"/>
</g>
</svg>
