<svg width="14" height="14" viewBox="0 0 14 14" fill="none" xmlns="http://www.w3.org/2000/svg">
<g id="Terminal_icon">
<path id="Icon" d="M13.027 10.9402C13.5865 10.9402 14 11.378 14 11.9132C14 12.4727 13.5865 12.8862 13.0513 12.8862H6.43456C5.87506 12.8862 5.46151 12.4727 5.46151 11.9132C5.46151 11.378 5.87506 10.9402 6.43456 10.9402H13.027ZM5.94804 6.78038C6.31293 7.14527 6.31293 7.75343 5.94804 8.11832L1.66663 12.5943C1.49634 12.7889 1.22876 12.8862 0.961169 12.8862C0.742233 12.8862 0.498972 12.8133 0.304362 12.6187C-0.0848567 12.2538 -0.109183 11.6456 0.280036 11.2564L3.90464 7.43719L0.280036 3.6423C-0.109183 3.25308 -0.0848567 2.64493 0.304362 2.28004C0.693581 1.89082 1.30174 1.91514 1.66663 2.30436L5.94804 6.78038Z" fill="currentColor"/>
</g>
</svg>
