<svg width="12" height="13" viewBox="0 0 12 13" fill="none" xmlns="http://www.w3.org/2000/svg">
  <path
    d="M11.6875 1.71875V3.03125C11.6875 3.66016 11.1953 4.125 10.5938 4.125C9.96484 4.125 9.5 3.66016 9.5 3.03125V2.8125H7.06641C7.06641 2.86719 7.09375 2.89453 7.09375 2.92188V11.125H8.1875C8.65234 11.125 9.0625 11.5352 9.0625 12C9.0625 12.4922 8.65234 12.875 8.1875 12.875H3.8125C3.32031 12.875 2.9375 12.4922 2.9375 12C2.9375 11.5352 3.32031 11.125 3.8125 11.125H4.90625V2.92188C4.90625 2.89453 4.90625 2.86719 4.90625 2.8125H2.5V3.03125C2.5 3.66016 2.00781 4.125 1.40625 4.125C0.777344 4.125 0.3125 3.66016 0.3125 3.03125V1.71875C0.3125 1.11719 0.777344 0.625 1.40625 0.625H10.5938C11.1953 0.625 11.6875 1.11719 11.6875 1.71875Z"
    fill="currentColor" />
</svg>