<svg width="14" height="14" viewBox="0 0 14 14" fill="none" xmlns="http://www.w3.org/2000/svg">
<g id="ui">
<path id="&#239;&#152;&#152;" d="M2.33333 1.14057L5.49306 4.3384L3.57292 6.26686L0.388889 3.09344C0.12963 2.80051 0 2.47504 0 2.11701C0 1.75898 0.12963 1.4335 0.388889 1.14057C0.680556 0.880191 1.00463 0.75 1.36111 0.75C1.71759 0.75 2.04167 0.880191 2.33333 1.14057ZM9.72222 13.2484C9.05787 13.2321 8.48264 13.0287 7.99653 12.6381C7.52662 12.2313 7.21875 11.7186 7.07292 11.1002L10.3056 7.85357C10.9213 8.00003 11.4317 8.30924 11.8368 8.78118C12.2257 9.2694 12.4282 9.84712 12.4444 10.5144C12.4444 10.612 12.4363 10.7096 12.4201 10.8073C12.4039 11.0188 12.4606 11.2141 12.5903 11.3931C12.7199 11.5722 12.89 11.6698 13.1007 11.6861H13.2222C13.4491 11.6861 13.6354 11.7593 13.7812 11.9058C13.9271 12.0522 14 12.2394 14 12.4672C14 12.6951 13.9271 12.8822 13.7812 13.0287C13.6354 13.1751 13.4491 13.2484 13.2222 13.2484H9.72222ZM12.7604 1.79967C13.0521 2.10887 13.1979 2.47504 13.1979 2.89816C13.1979 3.32128 13.0521 3.68744 12.7604 3.99665L11.375 5.38807L8.60417 2.60523L9.98958 1.21381C10.2975 0.920876 10.662 0.774411 11.0833 0.774411C11.5046 0.774411 11.8692 0.920876 12.1771 1.21381L12.7604 1.79967ZM1.87153 9.36704L8.06944 3.14227L10.8403 5.92511L4.64236 12.1499C4.48032 12.3126 4.28588 12.4265 4.05903 12.4916L1.53125 13.224C1.3044 13.2891 1.10995 13.2321 0.947917 13.0531C0.802083 12.9066 0.753472 12.7195 0.802083 12.4916L1.53125 9.9529C1.59606 9.72507 1.70949 9.52978 1.87153 9.36704Z" fill="currentColor"/>
</g>
</svg>
