<svg xmlns="http://www.w3.org/2000/svg" width="14" height="14" viewBox="0 0 14 14" fill="none">
<path d="M7.87466 0.929688C9.4782 1.14844 10.8357 1.80469 11.9473 2.89844C13.0588 3.97396 13.7422 5.30469 13.9973 6.89062C14.0155 7.14583 13.9426 7.3737 13.7786 7.57422C13.6146 7.77474 13.3868 7.875 13.0953 7.875H0.904725C0.613172 7.875 0.385396 7.77474 0.221398 7.57422C0.0573995 7.3737 -0.0154887 7.14583 0.00273331 6.89062C0.257842 5.30469 0.941169 3.97396 2.05271 2.89844C3.16426 1.80469 4.5218 1.14844 6.12534 0.929688V0.875C6.12534 0.619792 6.20734 0.410156 6.37134 0.246094C6.53534 0.0820312 6.74489 0 7 0C7.25511 0 7.46466 0.0820312 7.62866 0.246094C7.79266 0.410156 7.87466 0.619792 7.87466 0.875V0.929688ZM6.09801 11.8125V8.75H7.87466V11.7852C7.85644 12.4232 7.63777 12.9427 7.21866 13.3438C6.81778 13.763 6.29845 13.9818 5.66068 14C5.20513 14 4.79513 13.8633 4.43069 13.5898C4.04803 13.3346 3.7747 12.9883 3.6107 12.5508C3.51959 12.3138 3.5287 12.0859 3.63803 11.8672C3.72914 11.6667 3.89314 11.5208 4.13003 11.4297C4.36691 11.3568 4.59469 11.3659 4.81335 11.457C5.0138 11.5664 5.15957 11.7305 5.25068 11.9492C5.30535 12.1315 5.44201 12.2318 5.66068 12.25C5.93401 12.2318 6.07979 12.0859 6.09801 11.8125Z" fill="currentColor"/>
</svg>
