<svg width="14" height="14" viewBox="0 0 14 14" fill="none" xmlns="http://www.w3.org/2000/svg">
<g id="un-Pin_icon">
<path id="Icon" d="M9.8813 13.053L8.89789 11.3496L10.3413 10.5163L11.3247 12.2196C11.352 12.2669 11.3431 12.3036 11.3568 12.3273L11.4711 13.7753C11.4854 13.9563 11.2824 14.0735 11.1328 13.9706L9.93594 13.1476C9.92228 13.1239 9.90862 13.1003 9.8813 13.053ZM9.70187 5.55468C11.0849 5.45014 12.4882 5.90164 13.1848 7.10817C13.376 7.43937 13.2645 7.81917 12.9714 7.98844L5.39364 12.3634C5.0779 12.5457 4.71579 12.4394 4.52457 12.1082C3.84164 10.9253 4.1161 9.47358 4.89814 8.32812L3.56596 5.34363L2.61874 5.89051C2.30301 6.0728 1.94089 5.96644 1.74967 5.63524L1.09406 4.49969C0.916502 4.19214 0.991786 3.8017 1.30752 3.61941L7.44187 0.0777444C7.73506 -0.0915264 8.13338 0.0254745 8.31094 0.333019L8.96655 1.46857C9.15777 1.79977 9.04628 2.17957 8.75309 2.34884L7.78332 2.90874L9.70187 5.55468Z" fill="currentColor"/>
</g>
</svg>
