<svg width="14" height="14" viewBox="0 0 14 14" fill="none" xmlns="http://www.w3.org/2000/svg">
<g id="Underline_icon">
<path id="Icon" d="M2.28571 1.71429C1.80357 1.71429 1.42857 1.33929 1.42857 0.857143C1.42857 0.401786 1.80357 0 2.28571 0H5.28571C5.74107 0 6.14286 0.401786 6.14286 0.857143C6.14286 1.33929 5.74107 1.71429 5.28571 1.71429H4.85714V6C4.85714 7.20536 5.79464 8.14286 7 8.14286C8.17857 8.14286 9.14286 7.20536 9.14286 6V1.71429H8.71429C8.23214 1.71429 7.85714 1.33929 7.85714 0.857143C7.85714 0.401786 8.23214 0 8.71429 0H11.7143C12.1696 0 12.5714 0.401786 12.5714 0.857143C12.5714 1.33929 12.1696 1.71429 11.7143 1.71429H11.2857V6C11.2857 8.38393 9.35714 10.2857 7 10.2857C4.61607 10.2857 2.71429 8.38393 2.71429 6V1.71429H2.28571ZM12.1429 12C12.5982 12 13 12.4018 13 12.8571C13 13.3393 12.5982 13.7143 12.1429 13.7143H1.85714C1.375 13.7143 1 13.3393 1 12.8571C1 12.4018 1.375 12 1.85714 12H12.1429Z" fill="currentColor"/>
</g>
</svg>
