<svg width="14" height="14" viewBox="0 0 14 14" fill="none" xmlns="http://www.w3.org/2000/svg">
<g id="Unordered list_icon">
<path id="Icon" d="M2.875 2C3.0625 2 3.25 2.19231 3.25 2.38462V3.92308C3.25 4.13942 3.0625 4.30769 2.875 4.30769H1.375C1.16406 4.30769 1 4.13942 1 3.92308V2.38462C1 2.19231 1.16406 2 1.375 2H2.875ZM2.875 5.84615C3.0625 5.84615 3.25 6.03846 3.25 6.23077V7.76923C3.25 7.98558 3.0625 8.15385 2.875 8.15385H1.375C1.16406 8.15385 1 7.98558 1 7.76923V6.23077C1 6.03846 1.16406 5.84615 1.375 5.84615H2.875ZM2.875 9.69231C3.0625 9.69231 3.25 9.88462 3.25 10.0769V11.6154C3.25 11.8317 3.0625 12 2.875 12H1.375C1.16406 12 1 11.8317 1 11.6154V10.0769C1 9.88462 1.16406 9.69231 1.375 9.69231H2.875ZM5.5 3.92308C5.07812 3.92308 4.75 3.58654 4.75 3.15385C4.75 2.74519 5.07812 2.38462 5.5 2.38462H12.25C12.6484 2.38462 13 2.74519 13 3.15385C13 3.58654 12.6484 3.92308 12.25 3.92308H5.5ZM12.25 10.0769C12.6484 10.0769 13 10.4375 13 10.8462C13 11.2788 12.6484 11.6154 12.25 11.6154H5.5C5.07812 11.6154 4.75 11.2788 4.75 10.8462C4.75 10.4375 5.07812 10.0769 5.5 10.0769H12.25ZM12.25 6.23077C12.6484 6.23077 13 6.59135 13 7C13 7.43269 12.6484 7.76923 12.25 7.76923H5.5C5.07812 7.76923 4.75 7.43269 4.75 7C4.75 6.59135 5.07812 6.23077 5.5 6.23077H12.25Z" fill="currentColor"/>
</g>
</svg>
