<svg width="14" height="14" viewBox="0 0 14 14" fill="none" xmlns="http://www.w3.org/2000/svg">
<g id="view-line_icon">
<path id="Icon" d="M0 2.71429C0.0182292 2.23214 0.191406 1.83036 0.519531 1.50893C0.847656 1.1875 1.25781 1.01786 1.75 1H12.25C12.7422 1.01786 13.1523 1.1875 13.4805 1.50893C13.8086 1.83036 13.9818 2.23214 14 2.71429V11.2857C13.9818 11.7679 13.8086 12.1696 13.4805 12.4911C13.1523 12.8125 12.7422 12.9821 12.25 13H1.75C1.25781 12.9821 0.847656 12.8125 0.519531 12.4911C0.191406 12.1696 0.0182292 11.7679 0 11.2857V2.71429ZM3.5 6.14286H12.25V2.71429H3.5V6.14286ZM12.25 7.85714H3.5V11.2857H12.25V7.85714Z" fill="currentColor"/>
</g>
</svg>
