<svg width="14" height="14" viewBox="0 0 14 14" fill="none" xmlns="http://www.w3.org/2000/svg">
<path d="M12.95 1C13.5188 1 14 1.48125 14 2.05V11.5C14 11.8938 13.6719 12.2 13.3 12.2H8.85938C9.0125 11.9812 9.07812 11.7188 9.07812 11.4563V8.7H9.45C9.625 8.7 9.8 8.54688 9.8 8.35V7.65C9.8 7.475 9.625 7.3 9.45 7.3H9.1V7.16875C9.1 6.97188 9.05625 6.79688 8.99063 6.6H9.45C9.625 6.6 9.8 6.44688 9.8 6.25V5.55C9.8 5.375 9.625 5.2 9.45 5.2H8.75C8.55313 5.2 8.4 5.375 8.4 5.55V5.725L7 4.43438V2.05C7 1.48125 7.45937 1 8.05 1H12.95ZM9.8 4.15V3.45C9.8 3.275 9.625 3.1 9.45 3.1H8.75C8.55313 3.1 8.4 3.275 8.4 3.45V4.15C8.4 4.34687 8.55313 4.5 8.75 4.5H9.45C9.625 4.5 9.8 4.34687 9.8 4.15ZM12.6 8.35V7.65C12.6 7.475 12.425 7.3 12.25 7.3H11.55C11.3531 7.3 11.2 7.475 11.2 7.65V8.35C11.2 8.54688 11.3531 8.7 11.55 8.7H12.25C12.425 8.7 12.6 8.54688 12.6 8.35ZM12.6 6.25V5.55C12.6 5.375 12.425 5.2 12.25 5.2H11.55C11.3531 5.2 11.2 5.375 11.2 5.55V6.25C11.2 6.44688 11.3531 6.6 11.55 6.6H12.25C12.425 6.6 12.6 6.44688 12.6 6.25ZM12.6 4.15V3.45C12.6 3.275 12.425 3.1 12.25 3.1H11.55C11.3531 3.1 11.2 3.275 11.2 3.45V4.15C11.2 4.34687 11.3531 4.5 11.55 4.5H12.25C12.425 4.5 12.6 4.34687 12.6 4.15ZM4.70312 3.31875L8.00625 6.31563C8.24687 6.53438 8.37813 6.84062 8.4 7.16875C8.4 8.19688 8.37813 10.2969 8.37813 11.4563C8.37813 11.8719 8.05 12.2 7.63438 12.2H0.74375C0.328125 12.2 0 11.8719 0 11.4563V7.16875C0 6.84062 0.13125 6.53438 0.371875 6.31563L3.675 3.31875C3.95937 3.03437 4.41875 3.03437 4.70312 3.31875ZM5.25 9.05V7.65C5.25 7.475 5.075 7.3 4.9 7.3H3.5C3.30312 7.3 3.15 7.475 3.15 7.65V9.05C3.15 9.24687 3.30312 9.4 3.5 9.4H4.9C5.075 9.4 5.25 9.24687 5.25 9.05Z" fill="currentColor"/>
</svg>
