<svg xmlns="http://www.w3.org/2000/svg" width="14" height="14" viewBox="0 0 14 14" fill="none">
  <path d="M13.8528 11.5273C14.2903 12.293 13.7434 13.25 12.8411 13.25H1.16531C0.26297 13.25 -0.283905 12.293 0.153595 11.5273L5.97781 1.57422C6.44266 0.808594 7.56375 0.808594 8.00125 1.57422L13.8528 11.5273ZM6.36063 4.71875V8.21875C6.36063 8.60156 6.63406 8.875 7.01688 8.875C7.37235 8.875 7.67313 8.60156 7.67313 8.21875V4.71875C7.67313 4.36328 7.37235 4.0625 7.01688 4.0625C6.63406 4.0625 6.36063 4.36328 6.36063 4.71875ZM7.01688 11.5C7.48172 11.5 7.86453 11.1172 7.86453 10.6523C7.86453 10.1875 7.48172 9.80469 7.01688 9.80469C6.52469 9.80469 6.14188 10.1875 6.14188 10.6523C6.14188 11.1172 6.52469 11.5 7.01688 11.5Z" fill="currentColor"/>
</svg>