<svg width="14" height="14" viewBox="0 0 14 14" fill="none" xmlns="http://www.w3.org/2000/svg">
<g id="warning-circle_icon">
<path id="Icon" d="M7 1C10.3 1 13 3.7 13 7C13 10.325 10.3 13 7 13C3.675 13 1 10.325 1 7C1 3.7 3.675 1 7 1ZM6.4 4.4V7.6C6.4 7.95 6.65 8.2 7 8.2C7.325 8.2 7.6 7.95 7.6 7.6V4.4C7.6 4.075 7.325 3.8 7 3.8C6.65 3.8 6.4 4.075 6.4 4.4ZM7 10.6C7.425 10.6 7.775 10.25 7.775 9.825C7.775 9.4 7.425 9.05 7 9.05C6.55 9.05 6.2 9.4 6.2 9.825C6.2 10.25 6.55 10.6 7 10.6Z" fill="currentColor"/>
</g>
</svg>
