<svg width="14" height="14" viewBox="0 0 14 14" fill="none" xmlns="http://www.w3.org/2000/svg">
<g id="Weekly_icon">
<path id="Icon" d="M10.0674 7C10.3408 7.01823 10.4867 7.16406 10.5049 7.4375V9.1875C10.4867 9.46094 10.3408 9.60677 10.0674 9.625H3.94238C3.66895 9.60677 3.52311 9.46094 3.50488 9.1875V7.4375C3.52311 7.16406 3.66895 7.01823 3.94238 7H10.0674ZM4.37988 0C4.78092 0.0364583 4.99967 0.255208 5.03613 0.65625V1.75H8.97363V0.65625C9.01009 0.255208 9.22884 0.0364583 9.62988 0C10.0309 0.0364583 10.2497 0.255208 10.2861 0.65625V1.75H11.3799C11.8721 1.76823 12.2822 1.94141 12.6104 2.26953C12.9385 2.59766 13.1117 3.00781 13.1299 3.5V12.25C13.1117 12.7422 12.9385 13.1523 12.6104 13.4805C12.2822 13.8086 11.8721 13.9818 11.3799 14H2.62988C2.1377 13.9818 1.72754 13.8086 1.39941 13.4805C1.07129 13.1523 0.898112 12.7422 0.879883 12.25V3.5C0.898112 3.00781 1.07129 2.59766 1.39941 2.26953C1.72754 1.94141 2.1377 1.76823 2.62988 1.75H3.72363V0.65625C3.76009 0.255208 3.97884 0.0364583 4.37988 0ZM11.8174 5.25H2.19238V12.25C2.21061 12.5234 2.35645 12.6693 2.62988 12.6875H11.3799C11.6533 12.6693 11.7992 12.5234 11.8174 12.25V5.25Z" fill="currentColor"/>
</g>
</svg>
