<svg xmlns="http://www.w3.org/2000/svg" width="14" height="14" viewBox="0 0 14 14" fill="none">
<path d="M11.7656 10.7344C12.0781 11.0156 12.0781 11.4844 11.7656 11.7656C11.4844 12.0781 11.0156 12.0781 10.7344 11.7656L7.01562 8.04688L3.26562 11.7656C2.98438 12.0781 2.51562 12.0781 2.23438 11.7656C1.92188 11.4844 1.92188 11.0156 2.23438 10.7344L5.95312 6.98438L2.23438 3.26562C1.92188 2.98438 1.92188 2.51562 2.23438 2.23438C2.51562 1.92188 2.98438 1.92188 3.26562 2.23438L7.01562 5.95312L10.7344 2.23438C11.0156 1.92188 11.4844 1.92188 11.7656 2.23438C12.0781 2.51562 12.0781 2.98438 11.7656 3.26562L8.04688 6.98438L11.7656 10.7344Z" fill="currentColor"/>
</svg>