<svg width="14" height="14" viewBox="0 0 14 14" fill="none" xmlns="http://www.w3.org/2000/svg">
<g id="X-close_icon">
<path id="Icon" d="M11.6342 9.62752C12.1037 10.1283 12.1037 10.9108 11.6342 11.4116C11.1334 11.881 10.351 11.881 9.85018 11.4116L7.00198 8.53206L4.12248 11.4116C3.6217 11.881 2.83922 11.881 2.33844 11.4116C1.86896 10.9108 1.86896 10.1283 2.33844 9.62752L5.21794 6.74802L2.33844 3.89982C1.86896 3.39904 1.86896 2.61657 2.33844 2.11578C2.83922 1.6463 3.6217 1.6463 4.12248 2.11578L7.00198 4.99528L9.85018 2.11578C10.351 1.6463 11.1334 1.6463 11.6342 2.11578C12.1037 2.61657 12.1037 3.39904 11.6342 3.89982L8.75472 6.74802L11.6342 9.62752Z" fill="currentColor"/>
</g>
</svg>
