<svg width="194" height="24" viewBox="0 0 194 24" fill="none" xmlns="http://www.w3.org/2000/svg">
<g id="Combined Shape 1" clip-path="url(#clip0_23496_584)">
<g id="Symbols">
<g id="Group">
<g id="Group-30">
<g id="logo_gastrosmart">
<path id="Combined-Shape" d="M189.778 17.3009C190.611 17.3009 191.379 17.6223 191.956 18.1366C192.533 18.7152 192.853 19.4223 192.853 20.258C192.853 21.0937 192.533 21.9294 191.956 22.508C191.379 23.0866 190.611 23.408 189.842 23.408C189.009 23.408 188.24 23.0866 187.663 22.508C187.087 21.9294 186.766 21.158 186.766 20.3223C186.766 19.5509 187.023 18.8437 187.535 18.2652L187.663 18.1366V18.2009C188.176 17.558 189.009 17.2366 189.778 17.3009ZM12.2338 0.458008H12.7463H12.8104H13.0667H13.1308C13.2589 0.458008 13.3871 0.458008 13.5152 0.458008H13.4511C13.5152 0.458008 13.5793 0.458008 13.7074 0.458008H13.7715H13.8356H13.8996H14.0278H14.1559H14.2841C14.3481 0.458008 14.4763 0.458008 14.5404 0.522294C14.6044 0.522294 14.6044 0.522294 14.6685 0.522294C14.7326 0.522294 14.8607 0.522294 14.9248 0.586579H14.9889C15.117 0.586579 15.1811 0.650865 15.3092 0.650865C15.3092 0.650865 15.3092 0.650865 15.3733 0.650865L15.5014 0.715151C15.5014 0.715151 15.5014 0.715151 15.5655 0.715151H15.6296H15.6937C15.7577 0.908008 15.8218 0.908008 15.9499 0.972293C16.014 0.972293 16.1422 1.03658 16.2062 1.03658C16.2703 1.03658 16.2703 1.03658 16.3344 1.10086C16.3984 1.10086 16.3984 1.16515 16.4625 1.16515C16.5266 1.16515 16.5266 1.16515 16.5907 1.22944H16.6547C16.847 1.29372 16.9751 1.35801 17.1673 1.42229H17.2314C17.2955 1.42229 17.3595 1.48658 17.4236 1.48658C17.4236 1.48658 17.4877 1.48658 17.4877 1.55086C17.6799 1.61515 17.808 1.67944 18.0002 1.80801L18.1284 1.87229H18.1925L18.3847 1.93658L18.4488 2.00086C18.5128 2.00086 18.5769 2.06515 18.5769 2.06515C18.5769 2.06515 18.641 2.06515 18.641 2.12944C18.705 2.12944 18.705 2.19372 18.7691 2.19372H18.8332H18.8973C18.8973 2.19372 18.8973 2.19372 18.9613 2.19372L18.8332 2.12944C18.8973 2.19372 18.9613 2.19372 19.0254 2.25801L19.0895 2.32229H19.1535H19.2176H19.2817L19.4098 2.38658C19.4739 2.45087 19.4739 2.45086 19.538 2.51515C19.538 2.51515 19.6021 2.51515 19.6021 2.57944L19.6661 2.83658H19.7302L19.6661 2.77229C19.6661 2.83658 19.7943 2.90086 19.8583 2.96515L19.9224 3.02944C19.9865 3.09372 19.9865 3.09372 20.0506 3.15801L20.1146 3.22229L20.1787 3.28658H20.2428L20.3709 3.41515L20.435 3.47944C20.4991 3.54372 20.5631 3.60801 20.6272 3.67229C20.6913 3.73658 20.7554 3.80086 20.8194 3.86515L20.8835 3.92944C20.9476 3.99372 21.0116 4.05801 21.0757 4.12229L21.1398 4.25086V4.12229L21.2679 4.25086C21.332 4.31515 21.332 4.31515 21.3961 4.37944C21.3961 4.44372 21.4601 4.44372 21.4601 4.50801L21.5242 4.57229L21.5883 4.63658C21.7164 4.76515 21.7805 4.82944 21.7805 4.89372L18.5128 7.40087C17.1673 5.47229 15.0529 4.31515 12.6823 4.25086H12.6182H12.49H12.3619C11.2086 4.31515 10.1194 4.57229 9.09422 5.08658L8.96608 5.15087C8.83793 5.21515 8.70979 5.34372 8.58165 5.40801L8.38943 5.53658C5.76247 7.40086 4.5451 10.7437 5.50618 13.8937C6.40319 16.8509 9.03015 18.9723 12.1056 19.1652C12.1697 19.1652 12.2978 19.1652 12.3619 19.1652H12.49H12.5541H12.7463C14.6685 19.1652 16.5266 18.458 18.0002 17.2366L18.1925 17.108V13.5723H12.5541V9.90801H22.1649V18.5223C19.7302 21.2866 16.2703 22.958 12.5541 23.0223H12.2978C12.2338 23.0223 12.1056 23.0223 12.0415 23.0223H11.7853C9.03015 22.8937 6.46726 21.7366 4.48103 19.808C2.30258 17.6866 1.08521 14.7937 1.08521 11.708C1.08521 8.68658 2.30258 5.79372 4.41696 3.67229C6.27505 1.80801 8.77386 0.715151 11.4008 0.458008H11.529C11.7212 0.522294 11.9775 0.522294 12.2338 0.458008ZM87.07 7.14372H87.1341C91.7473 7.14372 95.3994 10.358 95.5916 14.6652C95.5916 14.7937 95.5916 14.9223 95.5916 14.9866C95.5916 17.7509 94.118 20.1294 91.8754 21.5437C91.6191 21.7366 91.3628 21.8652 91.0425 21.9937C90.0173 22.508 88.864 22.8294 87.6467 22.8294H87.4545C87.3263 22.8294 87.1982 22.8294 87.07 22.8294C82.585 22.8294 78.9328 19.7437 78.5484 15.6294C78.5484 15.3723 78.5484 15.1794 78.5484 14.9223C78.5484 14.858 78.5484 14.7937 78.5484 14.7294V14.6652C78.5484 14.6009 78.5484 14.4723 78.5484 14.408C78.8047 10.2937 82.3927 7.07944 86.8778 7.01515L87.07 7.14372ZM49.1393 7.14372C51.1255 7.20801 53.0477 7.91515 54.6495 9.00801L54.8417 9.13658H54.9058L53.1118 12.0937C52.9196 12.0294 52.7914 11.9009 52.5992 11.7723C51.51 11.1937 50.1645 10.4866 49.0112 10.4866C48.6908 10.4866 48.1782 10.5509 47.8579 10.7437C47.6016 10.8723 47.4734 11.1294 47.4734 11.4509C47.4734 11.5152 47.4734 11.6437 47.5375 11.708C47.9219 12.9294 50.613 13.1866 52.7273 14.3437C54.0729 15.0509 55.1621 16.1437 55.2262 18.008V18.1366V18.2009C55.2262 21.4151 52.0226 22.8294 49.2034 22.8937H49.0752C46.9609 22.8294 44.8465 22.1223 43.0525 20.9652L42.7962 20.7723H42.7321L44.398 17.8152C45.6794 18.8437 47.2812 19.4223 48.9471 19.5509C49.716 19.5509 51.1255 19.358 51.2537 18.3294V18.2652V18.2009C51.0615 16.1437 44.7183 16.3366 43.7572 12.8009V12.7366V12.6723H43.6932C43.6291 12.3509 43.565 12.0294 43.565 11.708C43.565 9.77944 44.7183 8.55801 46.192 7.85086L46.2561 7.78658H46.192L46.3201 7.72229C47.2171 7.27229 48.1782 7.14372 49.1393 7.14372ZM189.842 17.8794C188.56 17.8794 187.471 18.9723 187.471 20.258C187.471 20.9009 187.727 21.5437 188.176 22.058C188.624 22.508 189.201 22.7652 189.778 22.7009C190.354 22.7009 190.995 22.508 191.379 22.058C191.828 21.608 192.084 20.9652 192.084 20.3223C192.084 19.6794 191.828 18.9723 191.379 18.5223C190.995 18.1366 190.418 17.8794 189.842 17.8794ZM33.0572 7.40087H33.2494C35.0434 7.46515 36.7734 8.10801 38.0548 9.26515C38.5033 9.65086 38.9518 10.1652 39.2722 10.6794C39.5285 11.0009 39.7207 11.3866 39.9129 11.7723L39.977 11.9652C40.2974 12.8009 40.4896 13.7009 40.5536 14.6652V14.9223V22.508H32.5446C32.4165 22.508 32.2243 22.508 32.0961 22.508C30.174 22.508 28.3799 21.7366 26.9704 20.3866L26.8422 20.258C25.4967 18.8437 24.7278 16.9152 24.7919 14.858C24.7919 11.4509 26.7781 8.62229 30.1099 7.65801C30.8147 7.46515 31.5835 7.33658 32.2883 7.33658C32.4165 7.33658 32.4806 7.33658 32.6087 7.33658H32.8009C32.865 7.40086 32.9291 7.40087 33.0572 7.40087ZM63.6837 2.70801V7.40087H68.2969V10.8723H68.2328H63.6837V15.4366C63.6837 17.8152 64.9011 18.9723 66.7591 19.0366H66.8873V22.5723H66.8232C62.4022 22.5723 59.7112 19.6152 59.5831 16.0794V15.8866L59.6471 10.8723H56.2513V7.40087H59.6471V2.70801H63.6837ZM77.5873 7.40087V10.9366C76.3059 10.9366 75.2807 11.4509 74.7682 12.4152C74.5119 12.9294 74.3197 13.508 74.3197 14.2794V14.4723V22.508H70.3472V20.7723V14.0223C70.3472 13.3152 70.4753 12.608 70.6675 11.9652C71.5005 9.39372 73.8712 7.40086 77.331 7.33658L77.5873 7.40087ZM190.034 18.5223C190.867 18.5223 191.251 18.8437 191.251 19.5509C191.315 19.9366 191.059 20.3223 190.675 20.5152C190.867 20.6437 191.059 20.8366 191.123 21.0294C191.187 21.2223 191.187 21.4794 191.251 21.6723V21.8652H190.482V21.6723C190.482 21.4151 190.482 21.2223 190.418 20.9652C190.354 20.7723 190.226 20.6437 190.034 20.5794C189.842 20.4509 189.585 20.4509 189.393 20.4509H189.265V21.8652H188.56V18.3294H190.034V18.5223ZM190.098 19.1652H190.034H189.265V20.0652H190.098C190.226 20.0652 190.354 20.0651 190.418 19.9366C190.482 19.808 190.547 19.7437 190.482 19.6152C190.482 19.4866 190.482 19.358 190.418 19.2294C190.354 19.1652 190.29 19.1652 190.226 19.1652H190.098ZM87.07 10.5509H86.8778H86.6856C84.379 10.7437 82.5209 12.608 82.3927 14.9866C82.3927 15.308 82.3927 15.5652 82.4568 15.8866L82.5209 16.0152C83.0975 18.008 84.8916 19.4223 86.9419 19.5509H87.1341C89.2485 19.5509 91.1066 18.2009 91.6832 16.1437C91.7473 15.8866 91.8113 15.6294 91.8113 15.3723V15.1794C91.8113 15.1152 91.8113 15.0509 91.8113 15.0509C91.6832 12.608 89.6329 10.6794 87.2622 10.6152L87.07 10.5509ZM32.9931 11.1294H32.8009H32.6087H32.4165C31.4554 11.1294 30.4943 11.5152 29.7895 12.2223C29.0207 12.9937 28.7003 14.0223 28.7644 15.0509C28.7644 16.5294 29.5332 18.008 31.1991 18.5866C31.6476 18.7152 32.2243 18.8437 32.8009 18.8437H36.5171V15.0509C36.5812 13.958 36.1967 12.9294 35.4279 12.158C34.7872 11.5152 33.8901 11.1294 32.9931 11.1294Z" fill="#005681"/>
</g>
</g>
</g>
</g>
<g id="Combined-Shape_2">
<path d="M100.139 21.8653C100.011 21.801 99.8186 21.7367 99.6905 21.6725H99.6264C98.9216 21.351 98.2809 20.9653 97.6402 20.5153L97.3198 20.2582V20.1939L98.9857 16.851C100.716 18.201 102.766 18.9725 104.944 19.1653H105.201C106.418 19.1653 108.02 18.8439 108.725 17.8153C108.981 17.4939 109.109 17.0439 109.109 16.5296V16.2082C109.045 15.6296 108.725 15.1153 108.276 14.7296C106.61 13.1867 102.83 12.6725 100.395 10.9367C100.075 10.6796 99.7546 10.4867 99.4983 10.1653C98.6653 9.26532 98.0887 8.10817 98.0887 6.56532C98.0887 4.76532 98.7935 3.41532 99.8186 2.45103C101.228 1.10103 103.343 0.522461 105.393 0.522461C108.084 0.651032 110.711 1.55103 112.889 3.15817L112.953 3.22246L111.031 6.56532C109.365 5.66532 107.315 4.3796 105.393 4.3796C104.111 4.3796 102.638 4.8296 102.638 6.43675C102.638 6.88675 102.766 7.33675 103.022 7.65817C103.343 8.04389 103.855 8.4296 104.432 8.75103C106.867 9.97246 110.967 10.6153 112.697 13.4439C113.21 14.2153 113.466 15.1153 113.53 16.2725V16.5296V16.6582C113.53 16.9796 113.53 17.2367 113.466 17.5582V17.5582C113.466 17.6225 113.466 17.751 113.402 17.8153C113.402 17.8796 113.338 18.0082 113.338 18.0725V18.1367V18.201V18.3296V18.3939C113.338 18.4582 113.338 18.4582 113.274 18.5224L113.274 18.5225V18.5867C113.274 18.651 113.21 18.7153 113.21 18.7796C113.21 18.8439 113.21 18.8439 113.146 18.9082L113.146 18.9082V18.9725C113.146 19.0367 113.082 19.0367 113.082 19.101V19.1653C113.082 19.2296 113.017 19.2296 113.017 19.2939C113.017 19.2939 113.017 19.3582 112.953 19.3582C112.953 19.3582 112.953 19.4225 112.889 19.4225C112.889 19.4225 112.889 19.4867 112.825 19.4867L112.761 19.551V19.6153L112.697 19.6796C112.697 19.6796 112.697 19.7439 112.633 19.7439C112.633 19.8082 112.569 19.8082 112.569 19.8725V19.9367C112.569 20.001 112.505 20.001 112.505 20.0653C112.505 20.0653 112.505 20.1296 112.441 20.1296L112.377 20.1939C112.377 20.1939 112.377 20.2582 112.313 20.2582L112.249 20.3225L112.249 20.3225C112.185 20.3868 112.12 20.451 112.056 20.5796C112.056 20.5796 112.056 20.6439 111.992 20.6439L111.928 20.7082L111.864 20.7725L111.8 20.8367L111.736 20.901L111.672 20.9653C111.672 20.9653 111.608 20.9653 111.608 21.0296L111.544 21.0939L111.48 21.1582C111.416 21.2225 111.416 21.2225 111.352 21.2225L111.288 21.2867L111.223 21.351C111.223 21.351 111.159 21.351 111.159 21.4153L111.095 21.4796L111.031 21.5439C111.031 21.5439 110.967 21.5439 110.967 21.6082C110.903 21.6725 110.839 21.7367 110.711 21.7367L110.647 21.801H110.583C110.519 21.801 110.519 21.8653 110.455 21.8653H110.391L110.326 21.9296C110.326 21.9296 110.262 21.9296 110.262 21.9939C110.198 21.9939 110.198 22.0582 110.134 22.0582C110.134 22.0582 110.07 22.0582 110.07 22.1225C110.07 22.1225 110.006 22.1225 110.006 22.1867C110.006 22.1867 109.942 22.1867 109.942 22.251C109.942 22.251 109.878 22.251 109.878 22.3153C109.878 22.3153 109.814 22.3153 109.814 22.3796H109.75C109.686 22.3796 109.686 22.4439 109.622 22.4439C109.622 22.4439 109.558 22.4439 109.558 22.5082H109.494C109.494 22.5082 109.429 22.5082 109.429 22.5725H109.365C109.301 22.6367 109.173 22.6367 109.109 22.701C109.045 22.701 109.045 22.701 108.981 22.7653H108.917C108.917 22.7653 108.853 22.7653 108.853 22.8296C108.789 22.8296 108.789 22.8296 108.725 22.8939L108.725 22.8939H108.661C108.468 22.9582 108.34 23.0225 108.148 23.0225H108.02H107.956H107.892C107.828 23.0225 107.7 23.0867 107.635 23.0867C107.507 23.151 107.315 23.151 107.187 23.151C107.123 23.151 106.995 23.151 106.931 23.2153C106.738 23.2153 106.61 23.2796 106.418 23.2796H106.354H106.098H105.97H105.329H105.008H105.008C104.816 23.2796 104.688 23.2796 104.496 23.2153H104.304H104.176H103.983H103.855H103.663H103.535H103.343C103.279 23.2153 103.214 23.2153 103.15 23.151C102.958 23.0867 102.702 23.0867 102.51 23.0225C102.446 23.0225 102.382 23.0225 102.317 22.9582C102.253 22.9582 102.189 22.9582 102.125 22.8939C102.061 22.8939 101.997 22.8939 101.997 22.8296C101.933 22.8296 101.869 22.7653 101.805 22.7653C101.741 22.7653 101.741 22.7653 101.677 22.701C101.613 22.701 101.549 22.6367 101.485 22.6367C101.42 22.6367 101.356 22.5725 101.356 22.5725C101.292 22.5725 101.228 22.5082 101.164 22.5082C101.1 22.5082 101.1 22.5082 101.036 22.4439C100.908 22.3796 100.844 22.3796 100.716 22.3153C100.652 22.3153 100.523 22.251 100.459 22.251H100.395C100.331 22.251 100.267 22.1867 100.203 22.1867H100.139V21.8653Z" fill="#F97316"/>
<path d="M185.035 7.40103V10.8725H180.485V15.4367C180.485 16.7867 180.87 17.751 181.575 18.3296L181.703 18.4582C181.767 18.5225 181.895 18.5867 181.959 18.651C182.023 18.651 182.087 18.7153 182.087 18.7153C182.215 18.7796 182.279 18.8439 182.408 18.8439C182.409 18.8439 182.41 18.8439 182.411 18.8439C182.474 18.8461 182.537 18.9082 182.6 18.9082C182.664 18.9082 182.728 18.9725 182.792 18.9725C182.856 18.9725 182.92 18.9725 182.92 19.0367H182.792C182.856 19.0367 182.92 19.0367 182.984 19.101H182.92C182.984 19.101 183.048 19.101 183.112 19.1653H182.984C183.112 19.1653 183.241 19.2296 183.369 19.2296H183.497H183.561H183.753V22.7653C179.332 22.7653 176.641 19.8082 176.513 16.2725V16.0796V14.7296V11.001H173.117V10.6153V7.5296H176.513V2.70818H180.485V7.40103H185.035Z" fill="#F97316"/>
<path d="M166.774 14.8582V15.051V15.2439V15.4367V15.6296L166.838 22.5725H163.314H163.25V15.3725C163.25 14.2153 163.506 13.0582 164.083 12.0296C164.852 10.551 166.069 9.39389 167.543 8.75103C168.44 8.36532 169.465 8.10817 170.49 8.10817H171.067V11.6439H171.003V11.7082C170.875 11.7082 170.747 11.6439 170.618 11.6439H170.426H170.234C169.465 11.6439 168.696 11.9653 168.055 12.4153L167.927 12.5439L167.863 12.6082L167.735 12.7367L167.671 12.801L167.607 12.8653L167.543 12.9296L167.479 12.9939L167.478 12.9949C167.415 13.0588 167.414 13.1225 167.351 13.1225L167.287 13.1867L167.223 13.251C167.158 13.3153 167.158 13.3153 167.158 13.3796L167.223 13.3153C167.158 13.3796 167.158 13.4439 167.094 13.5082L167.158 13.4439C167.158 13.5082 167.094 13.5082 167.094 13.5725V13.5082C167.094 13.5725 167.03 13.6367 167.03 13.701C167.03 13.7653 166.966 13.8296 166.966 13.8939L167.03 13.8296C167.03 13.8939 166.966 13.9582 166.966 14.0225C166.966 14.0867 166.902 14.151 166.902 14.2153L166.966 14.151C166.966 14.2153 166.902 14.2796 166.902 14.3439V14.2796C166.902 14.3439 166.838 14.4082 166.838 14.4082V14.3439C166.838 14.4082 166.774 14.4725 166.774 14.5367V14.4082C166.774 14.4725 166.774 14.5367 166.71 14.5367V14.4726C166.71 14.5368 166.71 14.6011 166.646 14.6653V14.5367C166.646 14.5952 166.646 14.6537 166.598 14.7122C166.774 14.6813 166.774 14.7447 166.774 14.8582Z" fill="#F97316"/>
<path d="M123.91 6.82246H123.974C124.166 6.82246 124.358 6.82246 124.55 6.88675H124.615C124.743 6.88675 124.871 6.95103 124.999 6.95103H125.063H125.255H125.319C125.383 6.95103 125.447 6.95103 125.447 7.01532H125.512C125.576 7.01532 125.64 7.01532 125.704 7.0796C125.768 7.0796 125.832 7.14389 125.896 7.14389C125.96 7.14389 126.024 7.20817 126.152 7.20817H126.216C126.409 7.27246 126.537 7.33675 126.729 7.40103L126.729 7.40104C126.857 7.46532 126.985 7.52961 127.049 7.59389C127.113 7.59389 127.177 7.65817 127.177 7.65817C127.242 7.65817 127.306 7.72245 127.37 7.78672L127.37 7.78675C127.434 7.85103 127.498 7.85103 127.562 7.91532H127.626C127.818 8.04389 127.946 8.10817 128.074 8.23675C128.139 8.30103 128.267 8.36532 128.331 8.4296L128.523 8.62246L128.587 8.68675L128.715 8.81532L128.907 8.68675C128.907 8.68675 128.971 8.68675 128.971 8.62246C129.036 8.55818 129.164 8.49389 129.228 8.4296L129.292 8.36532C129.356 8.36532 129.356 8.30103 129.42 8.30103L129.484 8.23675L129.548 8.17246C129.612 8.17246 129.612 8.10817 129.676 8.10817H129.74H129.804C129.868 8.10817 129.868 8.04389 129.933 8.04389L129.804 8.17246C129.868 8.10817 129.997 8.04389 130.061 7.9796C130.061 7.9796 130.125 7.9796 130.125 7.91532C130.125 7.91532 130.189 7.91532 130.189 7.85103C130.189 7.85103 130.253 7.85103 130.253 7.78675H130.317C130.381 7.78675 130.445 7.72246 130.445 7.72246C130.509 7.72246 130.509 7.65817 130.573 7.65817C130.573 7.65817 130.637 7.65817 130.637 7.59389L130.765 7.5296H130.83C130.83 7.5296 130.894 7.5296 130.894 7.46532C130.958 7.46532 130.958 7.40103 131.022 7.40103C131.022 7.40103 131.086 7.40103 131.086 7.33675C131.15 7.33675 131.15 7.27246 131.214 7.27246L131.278 7.20817H131.342H131.406H131.47C131.534 7.20817 131.598 7.14389 131.662 7.14389C131.727 7.14389 131.791 7.0796 131.855 7.0796H131.919H131.983H132.047C132.111 7.0796 132.175 7.0796 132.239 7.01532H132.303L132.495 6.95103C132.493 6.95346 132.491 6.9558 132.488 6.95805C132.51 6.95375 132.533 6.95103 132.56 6.95103H132.688H132.816H132.88H132.944H133.072H133.136H133.328H133.392H133.521H133.649H133.777H133.905H134.161C138.518 6.95103 141.273 10.0367 141.273 13.6367V22.6367H137.237V14.0867C137.237 11.6439 135.955 10.2296 134.033 10.2296C132.047 10.2296 130.573 11.6439 130.573 14.0867V22.5082H126.537V15.6296V14.0225C126.537 11.5796 125.063 10.1653 123.077 10.1653C122.821 10.1653 122.564 10.1653 122.308 10.2296C122.244 10.2296 122.244 10.2296 122.18 10.2939H122.116C121.475 10.4867 121.027 10.8082 120.642 11.3225C120.194 11.9653 119.937 12.8653 119.937 14.0225V22.4439H115.901V16.0796V13.4439C115.901 9.84389 118.784 6.75817 123.141 6.75817C123.653 6.82246 123.782 6.82246 123.91 6.82246Z" fill="#F97316"/>
</g>
<path id="Subtract" fill-rule="evenodd" clip-rule="evenodd" d="M152.166 7.401C156.074 7.401 158.829 9.52243 159.791 12.6081C159.983 13.251 160.111 13.9581 160.111 14.6653V14.9867V22.6367H152.102C150.244 22.7653 148.45 22.1224 147.04 20.9653C146.944 20.901 146.864 20.8206 146.784 20.7403C146.704 20.6599 146.624 20.5796 146.528 20.5153C145.054 19.0367 144.285 17.0439 144.349 14.9867V14.4081V14.3439C144.541 10.4224 147.553 7.401 152.166 7.401ZM148.358 14.0951C148.305 14.356 148.258 14.5836 148.258 14.8582V15.051C148.258 16.9153 149.475 18.7153 152.166 18.8439H152.358H156.075V15.051C156.075 14.4082 155.947 13.701 155.626 13.1224C155.562 13.0582 155.498 12.8653 155.498 12.801C155.498 12.7766 155.489 12.7707 155.477 12.7693C154.768 11.6957 153.499 11.0659 152.166 11.1296C150.308 11.001 148.706 12.2224 148.386 13.9582C148.377 14.005 148.367 14.0506 148.358 14.0951Z" fill="#F97316"/>
</g>
<defs>
<clipPath id="clip0_23496_584">
<rect width="192.857" height="23.1429" fill="white" transform="translate(0.571289 0.265259)"/>
</clipPath>
</defs>
</svg>
